# 3ds Max Wavefront OBJ Exporter v0.97b - (c)2007 guruware
# 创建的文件:20.05.2018 07:57:35

mtllib ceng1ctj.mtl

#
# object 台阶
#

v  81.7585 0.0000 31.3106
v  53.7585 0.0000 31.3106
v  53.7585 4.5000 31.3106
v  81.7585 4.5000 31.3106
v  53.7585 0.0000 58.3105
v  53.7585 4.5000 58.3105
v  81.7585 0.0000 58.3105
v  81.7585 4.5000 58.3105
v  44.7585 -0.0000 67.3105
v  44.7585 1.5000 67.3105
v  44.7585 1.5000 44.8105
v  44.7585 -0.0000 44.8105
v  81.7585 -0.0000 67.3105
v  81.7585 1.5000 67.3105
v  47.7585 1.5000 64.3105
v  47.7585 1.5000 44.8105
v  81.7585 1.5000 64.3105
v  47.7585 3.0000 64.3105
v  47.7585 3.0000 44.8105
v  81.7585 3.0000 64.3105
v  50.7585 3.0000 61.3105
v  50.7585 3.0000 44.8105
v  81.7585 3.0000 61.3105
v  50.7585 4.5000 61.3105
v  50.7585 4.5000 44.8105
v  81.7585 4.5000 61.3105
v  53.7585 4.5000 44.8105
v  53.7585 -0.0000 58.3105
v  53.7585 -0.0000 44.8105
v  81.7585 -0.0000 58.3105
# 30 vertices

vn 0.0000 0.0000 -1.0000
vn -1.0000 0.0000 -0.0000
vn 0.0000 0.0000 1.0000
vn 1.0000 0.0000 -0.0000
vn 0.0000 -1.0000 -0.0000
vn 0.0000 1.0000 -0.0000
vn -0.0000 -1.0000 -0.0000
vn 0.0000 -1.0000 0.0000
# 8 vertex normals

g 台阶
usemtl 台阶
f 1//1 2//1 3//1 4//1 
f 2//2 5//2 6//2 3//2 
f 5//3 7//3 8//3 6//3 
f 7//4 1//4 4//4 8//4 
f 5//5 2//5 1//5 7//5 
f 6//6 8//6 4//6 3//6 
f 9//2 10//2 11//2 12//2 
f 13//3 14//3 10//3 9//3 
f 10//6 15//6 16//6 11//6 
f 14//6 17//6 15//6 10//6 
f 15//2 18//2 19//2 16//2 
f 17//3 20//3 18//3 15//3 
f 18//6 21//6 22//6 19//6 
f 20//6 23//6 21//6 18//6 
f 21//2 24//2 25//2 22//2 
f 23//3 26//3 24//3 21//3 
f 24//6 6//6 27//6 25//6 
f 26//6 8//6 6//6 24//6 
f 6//4 28//4 29//4 27//4 
f 8//1 30//1 28//1 6//1 
f 28//7 9//7 12//7 29//7 
f 30//8 13//8 9//8 28//8 
f 16//1 19//1 22//1 29//1 
f 22//1 25//1 27//1 29//1 
f 11//1 16//1 29//1 12//1 
f 30//4 8//4 26//4 23//4 
f 23//4 20//4 17//4 30//4 
f 13//4 30//4 17//4 14//4 
# 28 polygons

