# 3ds Max Wavefront OBJ Exporter v0.97b - (c)2007 guruware
# 创建的文件:19.05.2018 22:23:41

mtllib ceng2c.mtl

#
# object Line097
#

v  -96.2415 37.0996 36.3106
v  -21.2415 37.0996 36.3106
v  -21.2415 38.0996 36.3106
v  -96.2415 38.0996 36.3106
v  -21.2415 37.0996 31.3106
v  -21.2415 38.0996 31.3106
v  83.7584 37.0996 31.3106
v  83.7584 38.0996 31.3106
v  83.7584 37.0996 81.2618
v  83.7584 38.0996 81.2618
v  126.7585 37.0996 81.2618
v  126.7585 38.0996 81.2618
v  126.7585 37.0996 -71.6895
v  126.7585 38.0996 -71.6895
v  -16.2390 37.0996 -71.6895
v  -16.2390 38.0996 -71.6895
v  -16.2390 37.0996 -86.6894
v  -16.2390 38.0996 -86.6894
v  -40.2390 37.0996 -86.6894
v  -40.2390 38.0996 -86.6894
v  -40.2390 37.0996 -76.6894
v  -40.2390 38.0996 -76.6894
v  -96.2415 37.0996 -76.6894
v  -96.2415 38.0996 -76.6894
# 24 vertices

vn 0.0000 0.0000 1.0000
vn 1.0000 0.0000 -0.0000
vn -1.0000 0.0000 -0.0000
vn 0.0000 0.0000 -1.0000
vn 0.0000 -1.0000 -0.0000
vn -0.0000 -1.0000 -0.0000
vn 0.0000 1.0000 -0.0000
vn 0.0000 1.0000 0.0000
vn -0.0000 1.0000 0.0000
vn -0.0000 1.0000 -0.0000
# 10 vertex normals

g Line097
usemtl 楼8888板
f 1//1 2//1 3//1 4//1 
f 2//2 5//2 6//2 3//2 
f 5//1 7//1 8//1 6//1 
f 7//3 9//3 10//3 8//3 
f 9//1 11//1 12//1 10//1 
f 11//2 13//2 14//2 12//2 
f 13//4 15//4 16//4 14//4 
f 15//2 17//2 18//2 16//2 
f 17//4 19//4 20//4 18//4 
f 19//3 21//3 22//3 20//3 
f 21//4 23//4 24//4 22//4 
f 23//3 1//3 4//3 24//3 
f 23//5 5//6 2//5 1//5 
f 21//5 15//6 5//6 23//5 
f 17//5 15//6 21//5 19//5 
f 15//6 13//5 7//5 5//6 
f 11//5 9//5 7//5 13//5 
f 24//7 4//7 3//7 6//8 
f 22//7 24//7 6//8 16//8 
f 18//7 20//7 22//7 16//8 
f 16//8 6//8 8//9 14//9 
f 12//10 14//9 8//9 10//10 
# 22 polygons

