# 3ds Max Wavefront OBJ Exporter v0.97b - (c)2007 guruware
# 创建的文件:20.05.2018 08:18:50

mtllib chuang5.mtl

#
# object Rectangle294573262
#

v  -85.3615 45.3501 37.4655
v  -67.3615 45.3501 37.4655
v  -67.3615 61.3892 37.4655
v  -85.3615 61.3892 37.4655
# 4 vertices

vn 0.0000 -0.0000 1.0000
# 1 vertex normals

g Rectangle294573262
usemtl 玻璃
f 1//1 2//1 3//1 4//1 
# 1 polygons

#
# object Rectangle294573263
#

v  -67.4816 61.2115 37.2974
v  -85.0015 61.2115 37.2974
v  -85.0015 61.2115 37.8974
v  -67.4816 61.2115 37.8974
v  -85.0015 45.5671 37.2974
v  -85.0015 45.5671 37.8974
v  -67.4816 45.5671 37.2974
v  -67.4816 45.5671 37.8974
v  -68.0816 46.1004 37.2974
v  -84.4016 46.1004 37.2974
v  -84.4016 46.1004 37.8974
v  -68.0816 46.1004 37.8974
v  -84.4016 60.3226 37.2974
v  -84.4016 60.3226 37.8974
v  -68.0816 60.3226 37.2974
v  -68.0816 60.3226 37.8974
v  -75.6415 45.5671 37.2974
v  -75.6415 61.2115 37.2974
v  -75.6415 61.2115 37.8974
v  -75.6415 45.5671 37.8974
v  -76.8416 60.3226 37.2974
v  -76.8416 46.1004 37.2974
v  -76.8416 46.1004 37.8974
v  -76.8416 60.3226 37.8974
# 24 vertices

vn 0.0000 1.0000 0.0000
vn -1.0000 0.0000 -0.0000
vn 0.0000 -1.0000 -0.0000
vn 1.0000 0.0000 -0.0000
vn 0.0000 0.0000 -1.0000
vn 0.0000 -0.0000 1.0000
# 6 vertex normals

g Rectangle294573263
usemtl 窗框_
f 5//2 6//2 7//2 8//2 
f 6//3 9//3 10//3 7//3 
f 9//4 11//4 12//4 10//4 
f 11//5 5//5 8//5 12//5 
f 13//2 14//2 15//2 16//2 
f 14//5 17//5 18//5 15//5 
f 17//4 19//4 20//4 18//4 
f 19//3 13//3 16//3 20//3 
f 11//6 9//6 13//6 5//6 
f 19//6 17//6 5//6 13//6 
f 9//6 6//6 14//6 13//6 
f 6//6 5//6 17//6 14//6 
f 12//7 8//7 20//7 16//7 
f 10//7 12//7 16//7 15//7 
f 7//7 10//7 15//7 18//7 
f 8//7 7//7 18//7 20//7 
f 21//5 22//5 23//5 24//5 
f 25//3 26//3 27//3 28//3 
f 21//6 26//6 25//6 22//6 
f 24//7 23//7 28//7 27//7 
# 20 polygons

