# 3ds Max Wavefront OBJ Exporter v0.97b - (c)2007 guruware
# 创建的文件:20.05.2018 08:24:20

mtllib chuangh1.mtl

#
# object Rectangle077
#

v  99.2585 57.5000 -72.3226
v  111.2585 57.5000 -72.3226
v  111.2585 57.5000 -73.0226
v  99.2585 57.5000 -73.0226
v  111.2585 43.5000 -72.3226
v  111.2585 43.5000 -73.0226
v  99.2585 43.5000 -72.3226
v  99.2585 43.5000 -73.0226
v  99.3785 43.6333 -72.3226
v  111.1385 43.6333 -72.3226
v  111.1385 43.6333 -73.0226
v  99.3785 43.6333 -73.0226
v  111.1385 57.3667 -72.3226
v  111.1385 57.3667 -73.0226
v  99.3785 57.3667 -72.3226
v  99.3785 57.3667 -73.0226
# 16 vertices

vn 0.0000 1.0000 -0.0000
vn 1.0000 0.0000 0.0000
vn -0.0000 -1.0000 0.0000
vn -1.0000 0.0000 -0.0000
vn -1.0000 -0.0000 -0.0000
vn 1.0000 -0.0000 0.0000
vn -0.0000 0.0000 1.0000
vn 0.0000 0.0000 -1.0000
vn 0.0000 -0.0000 -1.0000
# 9 vertex normals

g Rectangle077
usemtl 窗框_
f 1//1 2//1 3//1 4//1 
f 2//2 5//2 6//2 3//2 
f 5//3 7//3 8//3 6//3 
f 7//4 1//4 4//4 8//4 
f 9//1 10//1 11//1 12//1 
f 10//5 13//5 14//5 11//5 
f 13//3 15//3 16//3 14//3 
f 15//6 9//6 12//6 16//6 
f 15//7 2//7 1//7 9//7 
f 7//7 5//7 9//7 1//7 
f 5//7 2//7 10//7 9//7 
f 2//7 15//7 13//7 10//7 
f 16//8 12//9 8//9 4//8 
f 6//9 8//9 12//9 11//9 
f 3//9 6//9 11//9 14//9 
f 16//8 4//8 3//9 14//9 
# 16 polygons

#
# object Rectangle076
#

v  111.2585 43.5000 -72.5726
v  99.2585 43.5000 -72.5726
v  99.2585 57.5000 -72.5726
v  111.2585 57.5000 -72.5726
# 4 vertices

vn 0.0000 -0.0000 -1.0000
# 1 vertex normals

g Rectangle076
usemtl 玻璃
f 17//10 18//10 19//10 20//10 
# 1 polygons

#
# object Rectangle075
#

v  99.3785 57.3667 -72.3226
v  111.1385 57.3667 -72.3226
v  111.1385 57.3667 -72.8226
v  99.3785 57.3667 -72.8226
v  111.1385 43.6333 -72.3226
v  111.1385 43.6333 -72.8226
v  99.3785 43.6333 -72.3226
v  99.3785 43.6333 -72.8226
v  99.6785 44.0333 -72.3226
v  110.8313 44.0333 -72.3226
v  110.8313 44.0333 -72.8226
v  99.6785 44.0333 -72.8226
v  110.8313 56.8559 -72.3226
v  110.8313 56.8559 -72.8226
v  99.6785 56.8559 -72.3226
v  99.6785 56.8559 -72.8226
# 16 vertices

vn 0.0000 1.0000 -0.0000
vn 1.0000 0.0000 0.0000
vn -0.0000 -1.0000 0.0000
vn -1.0000 0.0000 -0.0000
vn -1.0000 -0.0000 -0.0000
vn 1.0000 -0.0000 0.0000
vn -0.0000 0.0000 1.0000
vn 0.0000 -0.0000 -1.0000
# 8 vertex normals

g Rectangle075
usemtl 窗框_
f 21//11 22//11 23//11 24//11 
f 22//12 25//12 26//12 23//12 
f 25//13 27//13 28//13 26//13 
f 27//14 21//14 24//14 28//14 
f 29//11 30//11 31//11 32//11 
f 30//15 33//15 34//15 31//15 
f 33//13 35//13 36//13 34//13 
f 35//16 29//16 32//16 36//16 
f 35//17 33//17 21//17 29//17 
f 27//17 25//17 29//17 21//17 
f 25//17 22//17 30//17 29//17 
f 22//17 21//17 33//17 30//17 
f 36//18 32//18 28//18 24//18 
f 26//18 28//18 32//18 31//18 
f 23//18 26//18 31//18 34//18 
f 24//18 23//18 34//18 36//18 
# 16 polygons

