# 3ds Max Wavefront OBJ Exporter v0.97b - (c)2007 guruware
# 创建的文件:20.05.2018 08:29:03

mtllib chuangh13.mtl

#
# object Rectangle232
#

v  -73.4151 89.6773 -29.8439
v  -61.6551 89.6773 -29.8438
v  -61.6551 89.6773 -30.3438
v  -73.4151 89.6773 -30.3439
v  -61.6551 77.2287 -29.8438
v  -61.6551 77.2287 -30.3438
v  -73.4151 77.2287 -29.8439
v  -73.4151 77.2287 -30.3439
v  -73.1151 77.6287 -29.8439
v  -61.9623 77.6287 -29.8438
v  -61.9623 77.6287 -30.3438
v  -73.1151 77.6287 -30.3439
v  -61.9623 89.1665 -29.8438
v  -61.9623 89.1665 -30.3438
v  -73.1151 89.1665 -29.8439
v  -73.1151 89.1665 -30.3439
# 16 vertices

vn 0.0000 1.0000 -0.0000
vn 1.0000 0.0000 0.0000
vn -0.0000 -1.0000 0.0000
vn -1.0000 0.0000 -0.0000
vn -1.0000 -0.0000 -0.0000
vn 1.0000 -0.0000 0.0000
vn -0.0000 0.0000 1.0000
vn 0.0000 -0.0000 -1.0000
# 8 vertex normals

g Rectangle232
usemtl 窗框_
f 1//1 2//1 3//1 4//1 
f 2//2 5//2 6//2 3//2 
f 5//3 7//3 8//3 6//3 
f 7//4 1//4 4//4 8//4 
f 9//1 10//1 11//1 12//1 
f 10//5 13//5 14//5 11//5 
f 13//3 15//3 16//3 14//3 
f 15//6 9//6 12//6 16//6 
f 15//7 13//7 1//7 9//7 
f 7//7 5//7 9//7 1//7 
f 5//7 2//7 10//7 9//7 
f 2//7 1//7 13//7 10//7 
f 16//8 12//8 8//8 4//8 
f 6//8 8//8 12//8 11//8 
f 3//8 6//8 11//8 14//8 
f 4//8 3//8 14//8 16//8 
# 16 polygons

#
# object Rectangle233
#

v  -73.5351 89.8106 -29.8439
v  -61.5351 89.8106 -29.8438
v  -61.5351 89.8106 -30.5438
v  -73.5351 89.8106 -30.5439
v  -61.5351 77.0953 -29.8438
v  -61.5351 77.0953 -30.5438
v  -73.5351 77.0953 -29.8439
v  -73.5351 77.0953 -30.5439
v  -73.4151 77.2287 -29.8439
v  -61.6551 77.2287 -29.8438
v  -61.6551 77.2287 -30.5438
v  -73.4151 77.2287 -30.5439
v  -61.6551 89.6773 -29.8438
v  -61.6551 89.6773 -30.5438
v  -73.4151 89.6773 -29.8439
v  -73.4151 89.6773 -30.5439
# 16 vertices

vn 0.0000 1.0000 -0.0000
vn 1.0000 0.0000 0.0000
vn -0.0000 -1.0000 0.0000
vn -1.0000 0.0000 -0.0000
vn -1.0000 -0.0000 -0.0000
vn 1.0000 -0.0000 0.0000
vn -0.0000 0.0000 1.0000
vn 0.0000 -0.0000 -1.0000
# 8 vertex normals

g Rectangle233
usemtl 窗框_
f 17//9 18//9 19//9 20//9 
f 18//10 21//10 22//10 19//10 
f 21//11 23//11 24//11 22//11 
f 23//12 17//12 20//12 24//12 
f 25//9 26//9 27//9 28//9 
f 26//13 29//13 30//13 27//13 
f 29//11 31//11 32//11 30//11 
f 31//14 25//14 28//14 32//14 
f 31//15 18//15 17//15 25//15 
f 23//15 21//15 25//15 17//15 
f 21//15 18//15 26//15 25//15 
f 18//15 31//15 29//15 26//15 
f 32//16 28//16 24//16 20//16 
f 22//16 24//16 28//16 27//16 
f 19//16 22//16 27//16 30//16 
f 32//16 20//16 19//16 30//16 
# 16 polygons

#
# object Rectangle234
#

v  -61.5351 77.0953 -30.0938
v  -73.5351 77.0953 -30.0939
v  -73.5351 89.8106 -30.0939
v  -61.5351 89.8106 -30.0938
# 4 vertices

vn 0.0000 -0.0000 -1.0000
# 1 vertex normals

g Rectangle234
usemtl 玻璃
f 33//17 34//17 35//17 36//17 
# 1 polygons

