# 3ds Max Wavefront OBJ Exporter v0.97b - (c)2007 guruware
# 创建的文件:20.05.2018 08:24:35

mtllib chuangh2.mtl

#
# object Rectangle080
#

v  57.7585 57.5501 -72.3226
v  69.7585 57.5501 -72.3226
v  69.7585 57.5501 -73.0226
v  57.7585 57.5501 -73.0226
v  69.7585 43.5501 -72.3226
v  69.7585 43.5501 -73.0226
v  57.7585 43.5501 -72.3226
v  57.7585 43.5501 -73.0226
v  57.8785 43.6834 -72.3226
v  69.6385 43.6834 -72.3226
v  69.6385 43.6834 -73.0226
v  57.8785 43.6834 -73.0226
v  69.6385 57.4168 -72.3226
v  69.6385 57.4168 -73.0226
v  57.8785 57.4168 -72.3226
v  57.8785 57.4168 -73.0226
# 16 vertices

vn 0.0000 1.0000 -0.0000
vn 1.0000 -0.0000 0.0000
vn -0.0000 -1.0000 0.0000
vn -1.0000 -0.0000 -0.0000
vn 1.0000 0.0000 0.0000
vn -0.0000 0.0000 1.0000
vn 0.0000 0.0000 -1.0000
vn 0.0000 -0.0000 -1.0000
# 8 vertex normals

g Rectangle080
usemtl 窗框_
f 1//1 2//1 3//1 4//1 
f 2//2 5//2 6//2 3//2 
f 5//3 7//3 8//3 6//3 
f 7//4 1//4 4//4 8//4 
f 9//1 10//1 11//1 12//1 
f 10//4 13//4 14//4 11//4 
f 13//3 15//3 16//3 14//3 
f 15//5 9//5 12//5 16//5 
f 15//6 2//6 1//6 9//6 
f 7//6 5//6 9//6 1//6 
f 5//6 2//6 10//6 9//6 
f 2//6 15//6 13//6 10//6 
f 16//7 12//8 8//8 4//7 
f 6//8 8//8 12//8 11//8 
f 3//8 6//8 11//8 14//8 
f 16//7 4//7 3//8 14//8 
# 16 polygons

#
# object Rectangle079
#

v  69.7585 43.5501 -72.5726
v  57.7585 43.5501 -72.5726
v  57.7585 57.5501 -72.5726
v  69.7585 57.5501 -72.5726
# 4 vertices

vn 0.0000 -0.0000 -1.0000
# 1 vertex normals

g Rectangle079
usemtl 玻璃
f 17//9 18//9 19//9 20//9 
# 1 polygons

#
# object Rectangle078
#

v  57.8785 57.4168 -72.3226
v  69.6385 57.4168 -72.3226
v  69.6385 57.4168 -72.8226
v  57.8785 57.4168 -72.8226
v  69.6385 43.6834 -72.3226
v  69.6385 43.6834 -72.8226
v  57.8785 43.6834 -72.3226
v  57.8785 43.6834 -72.8226
v  58.1785 44.0834 -72.3226
v  69.3313 44.0834 -72.3226
v  69.3313 44.0834 -72.8226
v  58.1785 44.0834 -72.8226
v  69.3313 56.9060 -72.3226
v  69.3313 56.9060 -72.8226
v  58.1785 56.9060 -72.3226
v  58.1785 56.9060 -72.8226
# 16 vertices

vn 0.0000 1.0000 -0.0000
vn 1.0000 0.0000 0.0000
vn -0.0000 -1.0000 0.0000
vn -1.0000 -0.0000 -0.0000
vn -0.0000 0.0000 1.0000
vn 0.0000 -0.0000 -1.0000
# 6 vertex normals

g Rectangle078
usemtl 窗框_
f 21//10 22//10 23//10 24//10 
f 22//11 25//11 26//11 23//11 
f 25//12 27//12 28//12 26//12 
f 27//13 21//13 24//13 28//13 
f 29//10 30//10 31//10 32//10 
f 30//13 33//13 34//13 31//13 
f 33//12 35//12 36//12 34//12 
f 35//11 29//11 32//11 36//11 
f 35//14 33//14 21//14 29//14 
f 27//14 25//14 29//14 21//14 
f 25//14 22//14 30//14 29//14 
f 22//14 21//14 33//14 30//14 
f 36//15 32//15 28//15 24//15 
f 26//15 28//15 32//15 31//15 
f 23//15 26//15 31//15 34//15 
f 24//15 23//15 34//15 36//15 
# 16 polygons

