# 3ds Max Wavefront OBJ Exporter v0.97b - (c)2007 guruware
# 创建的文件:20.05.2018 08:19:15

mtllib chuang6.mtl

#
# object Rectangle014
#

v  -28.4965 61.2115 37.2974
v  -46.0165 61.2115 37.2974
v  -46.0165 61.2115 37.8974
v  -28.4965 61.2115 37.8974
v  -46.0165 45.5671 37.2974
v  -46.0165 45.5671 37.8974
v  -28.4965 45.5671 37.2974
v  -28.4965 45.5671 37.8974
v  -29.0965 46.1004 37.2974
v  -45.4165 46.1004 37.2974
v  -45.4165 46.1004 37.8974
v  -29.0965 46.1004 37.8974
v  -45.4165 60.3226 37.2974
v  -45.4165 60.3226 37.8974
v  -29.0965 60.3226 37.2974
v  -29.0965 60.3226 37.8974
v  -36.6565 45.5671 37.2974
v  -36.6565 61.2115 37.2974
v  -36.6565 61.2115 37.8974
v  -36.6565 45.5671 37.8974
v  -37.8565 60.3226 37.2974
v  -37.8565 46.1004 37.2974
v  -37.8565 46.1004 37.8974
v  -37.8565 60.3226 37.8974
# 24 vertices

vn 0.0000 1.0000 0.0000
vn -1.0000 0.0000 -0.0000
vn 0.0000 -1.0000 -0.0000
vn 1.0000 0.0000 -0.0000
vn 0.0000 0.0000 -1.0000
vn 0.0000 -0.0000 1.0000
# 6 vertex normals

g Rectangle014
usemtl 窗框_
f 1//1 2//1 3//1 4//1 
f 2//2 5//2 6//2 3//2 
f 5//3 7//3 8//3 6//3 
f 7//4 1//4 4//4 8//4 
f 9//1 10//1 11//1 12//1 
f 10//4 13//4 14//4 11//4 
f 13//3 15//3 16//3 14//3 
f 15//2 9//2 12//2 16//2 
f 7//5 5//5 9//5 1//5 
f 15//5 13//5 1//5 9//5 
f 5//5 2//5 10//5 9//5 
f 2//5 1//5 13//5 10//5 
f 8//6 4//6 16//6 12//6 
f 6//6 8//6 12//6 11//6 
f 3//6 6//6 11//6 14//6 
f 4//6 3//6 14//6 16//6 
f 17//4 18//4 19//4 20//4 
f 21//2 22//2 23//2 24//2 
f 17//5 22//5 21//5 18//5 
f 20//6 19//6 24//6 23//6 
# 20 polygons

#
# object Rectangle015
#

v  -46.3765 45.3501 37.4655
v  -28.3765 45.3501 37.4655
v  -28.3765 61.3892 37.4655
v  -46.3765 61.3892 37.4655
# 4 vertices

vn 0.0000 -0.0000 1.0000
# 1 vertex normals

g Rectangle015
usemtl 玻璃
f 25//7 26//7 27//7 28//7 
# 1 polygons

