# 3ds Max Wavefront OBJ Exporter v0.97b - (c)2007 guruware
# ´´½¨µÄÎÄ¼þ:20.05.2018 08:22:27

mtllib chuang11.mtl

#
# object Rectangle037
#

v  2.5106 22.6288 32.1437
v  -11.8037 22.6288 32.1437
v  -11.8037 22.6288 32.6437
v  2.5106 22.6288 32.6437
v  -11.8037 22.3756 32.1437
v  -11.8037 22.3756 32.6437
v  2.5106 22.3756 32.1437
v  2.5106 22.3756 32.6437
v  15.8249 22.6288 32.1437
v  4.3963 22.6288 32.1437
v  4.3963 22.6288 32.6437
v  15.8249 22.6288 32.6437
v  4.3963 22.3756 32.1437
v  4.3963 22.3756 32.6437
v  15.8249 22.3756 32.1437
v  15.8249 22.3756 32.6437
v  30.1106 22.6288 32.1437
v  17.7392 22.6288 32.1437
v  17.7392 22.6288 32.6437
v  30.1106 22.6288 32.6437
v  17.7392 22.3756 32.1437
v  17.7392 22.3756 32.6437
v  30.1106 22.3756 32.1437
v  30.1106 22.3756 32.6437
v  46.3106 22.6288 32.1437
v  32.0249 22.6288 32.1437
v  32.0249 22.6288 32.6437
v  46.3106 22.6288 32.6437
v  32.0249 22.3756 32.1437
v  32.0249 22.3756 32.6437
v  46.3106 22.3756 32.1437
v  46.3106 22.3756 32.6437
# 32 vertices

vn 0.0000 1.0000 0.0000
vn -1.0000 0.0000 -0.0000
vn 0.0000 -1.0000 -0.0000
vn 1.0000 0.0000 -0.0000
vn 0.0000 0.0000 -1.0000
vn 0.0000 -0.0000 1.0000
# 6 vertex normals

g Rectangle037
usemtl ´°¿ò_
f 1//1 2//1 3//1 4//1 
f 2//2 5//2 6//2 3//2 
f 5//3 7//3 8//3 6//3 
f 7//4 1//4 4//4 8//4 
f 5//5 2//5 1//5 7//5 
f 6//6 8//6 4//6 3//6 
f 9//1 10//1 11//1 12//1 
f 10//2 13//2 14//2 11//2 
f 13//3 15//3 16//3 14//3 
f 15//4 9//4 12//4 16//4 
f 13//5 10//5 9//5 15//5 
f 14//6 16//6 12//6 11//6 
f 17//1 18//1 19//1 20//1 
f 18//2 21//2 22//2 19//2 
f 21//3 23//3 24//3 22//3 
f 23//4 17//4 20//4 24//4 
f 21//5 18//5 17//5 23//5 
f 22//6 24//6 20//6 19//6 
f 25//1 26//1 27//1 28//1 
f 26//2 29//2 30//2 27//2 
f 29//3 31//3 32//3 30//3 
f 31//4 25//4 28//4 32//4 
f 29//5 26//5 25//5 31//5 
f 30//6 32//6 28//6 27//6 
# 24 polygons

#
# object Rectangle038
#

v  31.0535 32.8787 31.9437
v  3.4535 32.8787 31.9437
v  3.4535 32.8787 32.4437
v  31.0535 32.8787 32.4437
v  3.4535 11.4494 31.9437
v  3.4535 11.4494 32.4437
v  31.0535 11.4494 31.9437
v  31.0535 11.4494 32.4437
v  30.1106 11.8650 31.9437
v  4.3963 11.8650 31.9437
v  4.3963 11.8650 32.4437
v  30.1106 11.8650 32.4437
v  4.3963 32.4632 31.9437
v  4.3963 32.4632 32.4437
v  30.1106 32.4632 31.9437
v  30.1106 32.4632 32.4437
v  17.7392 11.4494 31.9437
v  17.7392 32.8787 31.9437
v  17.7392 32.8787 32.4437
v  17.7392 11.4494 32.4437
v  15.8249 32.4632 31.9437
v  15.8249 11.8650 31.9437
v  15.8249 11.8650 32.4437
v  15.8249 32.4632 32.4437
# 24 vertices

vn 0.0000 1.0000 0.0000
vn -1.0000 0.0000 -0.0000
vn 0.0000 -1.0000 -0.0000
vn 1.0000 0.0000 -0.0000
vn 0.0000 0.0000 -1.0000
vn 0.0000 -0.0000 1.0000
# 6 vertex normals

g Rectangle038
usemtl ´°¿ò_
f 33//7 34//7 35//7 36//7 
f 34//8 37//8 38//8 35//8 
f 37//9 39//9 40//9 38//9 
f 39//10 33//10 36//10 40//10 
f 41//7 42//7 43//7 44//7 
f 42//10 45//10 46//10 43//10 
f 45//9 47//9 48//9 46//9 
f 47//8 41//8 44//8 48//8 
f 39//11 37//11 41//11 33//11 
f 47//11 34//11 33//11 41//11 
f 45//11 42//11 34//11 47//11 
f 37//11 34//11 42//11 41//11 
f 40//12 36//12 48//12 44//12 
f 48//12 36//12 35//12 46//12 
f 38//12 40//12 44//12 43//12 
f 35//12 38//12 43//12 46//12 
f 49//10 50//10 51//10 52//10 
f 53//8 54//8 55//8 56//8 
f 49//11 54//11 53//11 50//11 
f 52//12 51//12 56//12 55//12 
# 20 polygons

#
# object Rectangle039
#

v  47.2535 33.2821 31.9437
v  -12.7465 33.2821 31.9437
v  -12.7465 33.2821 32.6437
v  47.2535 33.2821 32.6437
v  -12.7465 11.0461 31.9437
v  -12.7465 11.0461 32.6437
v  47.2535 11.0461 31.9437
v  47.2535 11.0461 32.6437
v  46.3106 11.4494 31.9437
v  -11.8037 11.4494 31.9437
v  -11.8037 11.4494 32.6437
v  46.3106 11.4494 32.6437
v  -11.8037 32.8787 31.9437
v  -11.8037 32.8787 32.6437
v  46.3106 32.8787 31.9437
v  46.3106 32.8787 32.6437
v  31.9963 11.0461 31.9437
v  31.9963 33.2821 31.9437
v  31.9963 33.2821 32.6437
v  31.9963 11.0461 32.6437
v  31.0535 32.8787 31.9437
v  31.0535 11.4494 31.9437
v  31.0535 11.4494 32.6437
v  31.0535 32.8787 32.6437
v  3.4535 11.0461 31.9437
v  3.4535 33.2821 31.9437
v  3.4535 33.2821 32.6437
v  3.4535 11.0461 32.6437
v  2.5106 32.8787 31.9437
v  2.5106 11.4494 31.9437
v  2.5106 11.4494 32.6437
v  2.5106 32.8787 32.6437
# 32 vertices

vn 0.0000 1.0000 0.0000
vn -1.0000 0.0000 -0.0000
vn 0.0000 -1.0000 -0.0000
vn 1.0000 0.0000 -0.0000
vn 0.0000 0.0000 -1.0000
vn 0.0000 -0.0000 1.0000
# 6 vertex normals

g Rectangle039
usemtl ´°¿ò_
f 57//13 58//13 59//13 60//13 
f 58//14 61//14 62//14 59//14 
f 61//15 63//15 64//15 62//15 
f 63//16 57//16 60//16 64//16 
f 65//13 66//13 67//13 68//13 
f 66//16 69//16 70//16 67//16 
f 69//15 71//15 72//15 70//15 
f 71//14 65//14 68//14 72//14 
f 71//17 58//17 57//17 65//17 
f 63//17 61//17 65//17 57//17 
f 61//17 69//17 66//17 65//17 
f 69//17 61//17 58//17 71//17 
f 72//18 68//18 64//18 60//18 
f 62//18 64//18 68//18 67//18 
f 72//18 60//18 59//18 70//18 
f 70//18 59//18 62//18 67//18 
f 73//16 74//16 75//16 76//16 
f 77//14 78//14 79//14 80//14 
f 77//17 74//17 73//17 78//17 
f 80//18 79//18 76//18 75//18 
f 81//16 82//16 83//16 84//16 
f 85//14 86//14 87//14 88//14 
f 85//17 82//17 81//17 86//17 
f 88//18 87//18 84//18 83//18 
# 24 polygons

#
# object Rectangle040
#

v  -12.7465 11.4494 32.1937
v  47.2535 11.4494 32.1937
v  47.2535 33.2821 32.1937
v  -12.7465 33.2821 32.1937
# 4 vertices

vn 0.0000 -0.0000 1.0000
# 1 vertex normals

g Rectangle040
usemtl ²£Á§
f 89//19 90//19 91//19 92//19 
# 1 polygons

