# 3ds Max Wavefront OBJ Exporter v0.97b - (c)2007 guruware
# 创建的文件:20.05.2018 08:16:52

mtllib chuang0.mtl

#
# object Rectangle294573260
#

v  -85.3615 73.5001 37.4655
v  -67.3615 73.5001 37.4655
v  -67.3615 89.5001 37.4655
v  -85.3615 89.5001 37.4655
# 4 vertices

vn 0.0000 -0.0000 1.0000
# 1 vertex normals

g Rectangle294573260
usemtl 玻璃
f 1//1 2//1 3//1 4//1 
# 1 polygons

#
# object Rectangle294573261
#

v  -67.6588 89.3615 37.2974
v  -84.8243 89.3615 37.2974
v  -84.8243 89.3615 37.8974
v  -67.6588 89.3615 37.8974
v  -84.8243 73.5001 37.2974
v  -84.8243 73.5001 37.8974
v  -67.6588 73.5001 37.2974
v  -67.6588 73.5001 37.8974
v  -68.2588 74.0334 37.2974
v  -84.2243 74.0334 37.2974
v  -84.2243 74.0334 37.8974
v  -68.2588 74.0334 37.8974
v  -84.2243 88.4726 37.2974
v  -84.2243 88.4726 37.8974
v  -68.2588 88.4726 37.2974
v  -68.2588 88.4726 37.8974
v  -75.7616 73.5001 37.2974
v  -75.7616 89.3615 37.2974
v  -75.7616 89.3615 37.8974
v  -75.7616 73.5001 37.8974
v  -76.9615 88.4726 37.2974
v  -76.9615 74.0334 37.2974
v  -76.9615 74.0334 37.8974
v  -76.9615 88.4726 37.8974
# 24 vertices

vn 0.0000 1.0000 0.0000
vn -1.0000 0.0000 -0.0000
vn 0.0000 -1.0000 -0.0000
vn 1.0000 0.0000 -0.0000
vn 0.0000 0.0000 -1.0000
vn 0.0000 -0.0000 1.0000
# 6 vertex normals

g Rectangle294573261
usemtl 窗框_
f 5//2 6//2 7//2 8//2 
f 6//3 9//3 10//3 7//3 
f 9//4 11//4 12//4 10//4 
f 11//5 5//5 8//5 12//5 
f 13//2 14//2 15//2 16//2 
f 14//5 17//5 18//5 15//5 
f 17//4 19//4 20//4 18//4 
f 19//3 13//3 16//3 20//3 
f 11//6 9//6 13//6 5//6 
f 19//6 17//6 5//6 13//6 
f 9//6 6//6 14//6 13//6 
f 6//6 5//6 17//6 14//6 
f 12//7 8//7 20//7 16//7 
f 10//7 12//7 16//7 15//7 
f 7//7 10//7 15//7 18//7 
f 8//7 7//7 18//7 20//7 
f 21//5 22//5 23//5 24//5 
f 25//3 26//3 27//3 28//3 
f 21//6 26//6 25//6 22//6 
f 24//7 23//7 28//7 27//7 
# 20 polygons

#
# object w_cg_taobao_com__________3810
#

v  -53.4414 83.2840 30.2223
v  -53.4414 74.6836 30.2223
v  -53.4414 74.6836 13.9815
v  -53.4414 83.2840 13.9815
v  -53.4025 83.2840 30.2223
v  -53.4024 83.2840 13.9815
v  -53.4024 74.6836 13.9815
v  -53.4025 74.6836 30.2223
# 8 vertices

vn -1.0000 -0.0000 -0.0000
vn 1.0000 0.0000 0.0000
vn -0.0000 -1.0000 -0.0000
vn -0.0000 0.0000 1.0000
vn -0.0000 1.0000 -0.0000
vn 0.0000 0.0000 -1.0000
# 6 vertex normals

vt 0.0000 1.0000 0.0000
vt 0.0000 0.0000 0.0000
vt 1.0000 0.0000 0.0000
vt 1.0000 1.0000 0.0000
# 4 texture coords

g w_cg_taobao_com__________3810
usemtl wire_000000000
f 32/4/8 31/3/8 30/2/8 29/1/8 
f 36/3/9 35/2/9 34/1/9 33/4/9 
f 30/3/10 31/2/10 35/1/10 36/4/10 
f 29/3/11 30/2/11 36/1/11 33/4/11 
f 32/3/12 29/2/12 33/1/12 34/4/12 
f 31/3/13 32/2/13 34/1/13 35/4/13 
# 6 polygons

