# 3ds Max Wavefront OBJ Exporter v0.97b - (c)2007 guruware
# 创建的文件:20.05.2018 08:26:43

mtllib chuangh7.mtl

#
# object Rectangle095
#

v  27.7610 32.8036 -72.3226
v  39.7610 32.8036 -72.3226
v  39.7610 32.8036 -73.0226
v  27.7610 32.8036 -73.0226
v  39.7610 18.8036 -72.3226
v  39.7610 18.8036 -73.0226
v  27.7610 18.8036 -72.3226
v  27.7610 18.8036 -73.0226
v  27.8810 18.9369 -72.3226
v  39.6410 18.9369 -72.3226
v  39.6410 18.9369 -73.0226
v  27.8810 18.9369 -73.0226
v  39.6410 32.6703 -72.3226
v  39.6410 32.6703 -73.0226
v  27.8810 32.6703 -72.3226
v  27.8810 32.6703 -73.0226
# 16 vertices

vn 0.0000 1.0000 -0.0000
vn 1.0000 -0.0000 0.0000
vn -0.0000 -1.0000 0.0000
vn -1.0000 -0.0000 -0.0000
vn -0.0000 0.0000 1.0000
vn 0.0000 0.0000 -1.0000
vn 0.0000 -0.0000 -1.0000
# 7 vertex normals

g Rectangle095
usemtl 窗框_
f 1//1 2//1 3//1 4//1 
f 2//2 5//2 6//2 3//2 
f 5//3 7//3 8//3 6//3 
f 7//4 1//4 4//4 8//4 
f 9//1 10//1 11//1 12//1 
f 10//4 13//4 14//4 11//4 
f 13//3 15//3 16//3 14//3 
f 15//2 9//2 12//2 16//2 
f 15//5 2//5 1//5 9//5 
f 7//5 5//5 9//5 1//5 
f 5//5 2//5 10//5 9//5 
f 2//5 15//5 13//5 10//5 
f 16//6 12//7 8//7 4//6 
f 6//7 8//7 12//7 11//7 
f 3//7 6//7 11//7 14//7 
f 16//6 4//6 3//7 14//7 
# 16 polygons

#
# object Rectangle094
#

v  39.7610 18.8036 -72.5726
v  27.7610 18.8036 -72.5726
v  27.7610 32.8036 -72.5726
v  39.7610 32.8036 -72.5726
# 4 vertices

vn 0.0000 -0.0000 -1.0000
# 1 vertex normals

g Rectangle094
usemtl 玻璃
f 17//8 18//8 19//8 20//8 
# 1 polygons

#
# object Rectangle093
#

v  27.8810 32.6703 -72.3226
v  39.6410 32.6703 -72.3226
v  39.6410 32.6703 -72.8226
v  27.8810 32.6703 -72.8226
v  39.6410 18.9369 -72.3226
v  39.6410 18.9369 -72.8226
v  27.8810 18.9369 -72.3226
v  27.8810 18.9369 -72.8226
v  28.1810 19.3370 -72.3226
v  39.3338 19.3370 -72.3226
v  39.3338 19.3370 -72.8226
v  28.1810 19.3370 -72.8226
v  39.3338 32.1595 -72.3226
v  39.3338 32.1595 -72.8226
v  28.1810 32.1595 -72.3226
v  28.1810 32.1595 -72.8226
# 16 vertices

vn 0.0000 1.0000 -0.0000
vn 1.0000 0.0000 0.0000
vn -0.0000 -1.0000 0.0000
vn -1.0000 -0.0000 -0.0000
vn 1.0000 -0.0000 0.0000
vn -0.0000 0.0000 1.0000
vn 0.0000 -0.0000 -1.0000
# 7 vertex normals

g Rectangle093
usemtl 窗框_
f 21//9 22//9 23//9 24//9 
f 22//10 25//10 26//10 23//10 
f 25//11 27//11 28//11 26//11 
f 27//12 21//12 24//12 28//12 
f 29//9 30//9 31//9 32//9 
f 30//12 33//12 34//12 31//12 
f 33//11 35//11 36//11 34//11 
f 35//13 29//13 32//13 36//13 
f 35//14 33//14 21//14 29//14 
f 27//14 25//14 29//14 21//14 
f 25//14 22//14 30//14 29//14 
f 22//14 21//14 33//14 30//14 
f 36//15 32//15 28//15 24//15 
f 26//15 28//15 32//15 31//15 
f 23//15 26//15 31//15 34//15 
f 24//15 23//15 34//15 36//15 
# 16 polygons

