# 3ds Max Wavefront OBJ Exporter v0.97b - (c)2007 guruware
# 创建的文件:23.05.2018 17:07:17

mtllib wq1.mtl

#
# object Box008
#

v  47.1441 13.0684 33.3105
v  47.1441 13.0684 31.2531
v  58.8917 13.0684 31.2531
v  58.8917 13.0684 33.3106
v  40.2351 93.5394 31.3106
v  40.2351 93.5394 33.3105
v  58.8917 93.5394 33.3106
v  58.8917 93.5394 31.3107
v  58.8393 28.4213 33.3106
v  47.1441 34.5660 33.3105
v  81.7745 28.4213 33.3106
v  81.7586 13.0684 33.3106
v  81.7586 13.0684 31.3107
v  81.7745 28.4213 31.3107
v  47.1441 34.5660 31.2531
v  58.8393 28.4213 31.2531
v  -21.2415 34.5660 31.3106
v  -21.2415 13.0684 31.3106
v  -21.2415 13.0684 33.3105
v  -21.2415 34.5660 33.3105
v  47.1441 64.2044 33.3105
v  58.0946 62.2561 33.3106
v  58.0946 72.1984 33.3106
v  40.2586 73.5394 33.3106
v  81.7586 62.1881 33.3106
v  81.7586 62.1881 31.3107
v  81.7586 73.4065 31.3107
v  81.7586 73.4065 33.3106
v  58.0946 72.1984 31.2531
v  58.0946 62.2561 31.2531
v  47.1441 64.2044 31.2531
v  40.2586 73.5394 31.2531
v  -21.2415 64.2044 31.3106
v  -21.2415 64.2044 33.3105
v  -21.2415 73.4065 33.3105
v  -21.2415 73.4065 31.3106
v  40.2586 89.7270 33.3106
v  58.0946 90.1615 33.3106
v  58.0946 44.3345 33.3106
v  47.1441 40.9905 33.3105
v  81.7586 89.5942 33.3106
v  81.7586 89.5942 31.3107
v  81.7586 93.5394 31.3107
v  81.7586 93.5394 33.3106
v  81.7586 44.2665 31.3107
v  81.7586 44.2665 33.3106
v  58.0946 90.1615 31.2531
v  40.2586 89.7270 31.2531
v  47.1441 40.9905 31.2531
v  58.0946 44.3345 31.2531
v  -21.2415 89.5941 31.3106
v  -21.2415 89.5941 33.3105
v  -21.2415 93.5394 33.3105
v  -21.2415 93.5394 31.3106
v  -21.2415 40.9905 33.3105
v  -21.2415 40.9906 31.3106
v  77.7693 13.0684 33.3106
v  77.7693 13.0684 31.2531
v  -12.7340 13.0684 31.2531
v  -12.7340 13.0684 33.3105
v  77.7693 93.5394 31.3107
v  77.7693 93.5394 33.3106
v  -12.7340 93.5394 33.3105
v  -12.7340 93.5394 31.3106
v  20.1255 93.5394 33.3105
v  20.1255 93.5394 31.3106
v  6.4256 93.5394 31.3106
v  6.4256 93.5394 33.3105
v  77.7170 28.4213 33.3106
v  -12.7340 34.5660 33.3105
v  -12.7340 34.5660 31.2531
v  77.7170 28.4213 31.2531
v  -12.7340 64.2044 33.3105
v  -11.7414 73.5394 33.3106
v  8.7286 64.2044 33.3105
v  24.7315 64.2044 33.3105
v  22.2586 73.5394 33.3106
v  6.2586 73.5394 33.3106
v  78.4726 72.1984 33.3106
v  78.4726 62.2561 33.3106
v  78.4726 62.2561 31.2531
v  78.4726 72.1984 31.2531
v  -12.7340 64.2044 31.2531
v  -11.7414 73.5394 31.2531
v  8.7286 64.2044 31.2531
v  6.2586 73.5394 31.2531
v  22.2586 73.5394 31.2531
v  24.7315 64.2044 31.3106
v  -11.7414 89.7270 33.3106
v  6.2586 89.7270 33.3106
v  22.2586 89.7270 33.3106
v  78.4726 90.1615 33.3106
v  78.4726 44.3345 33.3106
v  -12.7340 40.9905 33.3105
v  78.4726 90.1615 31.2531
v  -11.7414 89.7270 31.2531
v  6.2586 89.7270 31.2531
v  22.2586 89.7270 31.2531
v  -12.7340 40.9905 31.2531
v  78.4726 44.3345 31.2531
# 100 vertices

vn 0.0000 -1.0000 -0.0000
vn 0.0000 1.0000 -0.0000
vn 0.0000 0.0000 1.0000
vn 1.0000 0.0000 -0.0000
vn 1.0000 -0.0010 -0.0000
vn 0.0000 0.0000 -1.0000
vn -1.0000 0.0000 -0.0000
vn -0.0005 -0.0004 -1.0000
vn -0.0009 -0.0014 -1.0000
vn 1.0000 0.0005 -0.0000
vn -0.0002 0.0115 -0.9999
vn 0.0000 0.0101 -0.9999
vn 0.0000 0.0151 -0.9999
vn -0.0002 0.0170 -0.9999
vn -0.0045 0.0000 -1.0000
vn -0.0068 0.0000 -1.0000
vn 0.0144 0.0000 -0.9999
vn 0.0095 0.0000 -1.0000
vn 0.0142 0.0000 -0.9999
vn 0.0175 0.0000 -0.9998
vn 0.0117 0.0000 -0.9999
vn -0.0045 0.0001 -1.0000
vn -0.0062 0.0002 -1.0000
vn -0.0039 0.0002 -1.0000
vn 0.0007 -0.0010 -1.0000
vn 0.0009 -0.0031 -1.0000
vn 0.0011 -0.0050 -1.0000
vn 0.0086 0.0087 -0.9999
vn 0.0088 0.0085 -0.9999
vn 0.0000 0.0170 -0.9999
vn -0.0039 0.0018 -1.0000
vn -0.0028 0.0123 -0.9999
vn -0.0038 0.0096 -0.9999
vn 0.0119 -0.0003 -0.9999
vn 0.0172 -0.0004 -0.9999
vn 1.0000 0.0034 -0.0000
vn -1.0000 -0.0034 -0.0000
# 37 vertex normals

vt 0.6000 0.0000 0.0000
vt 0.6000 1.0000 0.0000
vt 0.4000 1.0000 0.0000
vt 0.4000 0.0000 0.0000
vt 0.6000 0.5000 0.0000
vt 0.4000 0.5000 0.0000
vt 0.0000 0.5000 0.0000
vt 0.0000 0.0000 0.0000
vt 1.0000 0.0000 0.0000
vt 1.0000 0.5000 0.0000
vt 0.4000 0.7000 0.0000
vt 0.6000 0.7000 0.0000
vt 0.6000 0.8000 0.0000
vt 0.4000 0.8000 0.0000
vt 0.0000 0.7000 0.0000
vt 1.0000 0.7000 0.0000
vt 1.0000 0.8000 0.0000
vt 0.0000 0.8000 0.0000
vt 0.4000 0.9000 0.0000
vt 0.6000 0.9000 0.0000
vt 0.6000 0.6000 0.0000
vt 0.4000 0.6000 0.0000
vt 0.0000 0.9000 0.0000
vt 1.0000 0.9000 0.0000
vt 1.0000 1.0000 0.0000
vt 0.0000 1.0000 0.0000
vt 1.0000 0.6000 0.0000
vt 0.0000 0.6000 0.0000
vt 0.2000 0.0000 0.0000
vt 0.2000 1.0000 0.0000
vt 0.8000 1.0000 0.0000
vt 0.8000 0.0000 0.0000
vt 0.3333 0.0000 0.0000
vt 0.3333 1.0000 0.0000
vt 0.2667 1.0000 0.0000
vt 0.2667 0.0000 0.0000
vt 0.8000 0.5000 0.0000
vt 0.2000 0.5000 0.0000
vt 0.2000 0.7000 0.0000
vt 0.2000 0.8000 0.0000
vt 0.2667 0.7000 0.0000
vt 0.3333 0.7000 0.0000
vt 0.3333 0.8000 0.0000
vt 0.2667 0.8000 0.0000
vt 0.8000 0.8000 0.0000
vt 0.8000 0.7000 0.0000
vt 0.7333 0.7000 0.0000
vt 0.7333 0.8000 0.0000
vt 0.6667 0.8000 0.0000
vt 0.6667 0.7000 0.0000
vt 0.2000 0.9000 0.0000
vt 0.2667 0.9000 0.0000
vt 0.3333 0.9000 0.0000
vt 0.8000 0.9000 0.0000
vt 0.8000 0.6000 0.0000
vt 0.2000 0.6000 0.0000
vt 0.7333 0.9000 0.0000
vt 0.7333 1.0000 0.0000
vt 0.6667 1.0000 0.0000
vt 0.6667 0.9000 0.0000
# 60 texture coords

g Box008
usemtl _Rectangle002墙e0
f 1/1/1 2/2/1 3/3/1 4/4/1 
f 5/3/2 6/4/2 7/1/2 8/2/2 
f 9/5/3 10/6/3 1/4/3 4/1/3 
f 11/7/4 12/8/5 13/9/5 14/10/4 
f 2/1/6 15/5/6 16/6/6 3/4/6 
f 17/7/7 18/8/7 19/9/7 20/10/7 
f 21/11/3 22/12/3 23/13/3 24/14/3 
f 25/15/4 26/16/4 27/17/4 28/18/4 
f 29/14/6 30/11/6 31/12/8 32/13/9 
f 33/15/7 34/16/7 35/17/7 36/18/7 
f 6/3/3 37/19/3 38/20/3 7/2/3 
f 24/14/3 23/13/3 38/20/3 37/19/3 
f 39/21/3 40/22/3 10/6/3 9/5/3 
f 39/21/3 22/12/3 21/11/3 40/22/3 
f 41/23/4 42/24/4 43/25/4 44/26/4 
f 28/18/4 27/17/4 42/24/4 41/23/4 
f 45/27/10 46/28/10 11/7/4 14/10/4 
f 26/16/4 25/15/4 46/28/10 45/27/10 
f 47/19/11 48/20/12 5/2/13 8/3/14 
f 47/19/11 29/14/6 32/13/9 48/20/12 
f 15/5/6 49/21/6 50/22/6 16/6/6 
f 31/12/8 30/11/6 50/22/6 49/21/6 
f 51/23/7 52/24/7 53/25/7 54/26/7 
f 36/18/7 35/17/7 52/24/7 51/23/7 
f 55/27/7 56/28/7 17/7/7 20/10/7 
f 34/16/7 33/15/7 56/28/7 55/27/7 
f 13/26/1 12/8/1 57/29/1 58/30/1 
f 59/31/1 60/32/1 19/9/1 18/25/1 
f 61/31/2 62/32/2 44/9/2 43/25/2 
f 8/2/2 7/1/2 62/32/2 61/31/2 
f 53/8/2 63/29/2 64/30/2 54/26/2 
f 65/33/2 66/34/2 67/35/2 68/36/2 
f 69/37/3 57/32/3 12/9/3 11/10/3 
f 60/29/3 70/38/3 20/7/3 19/8/3 
f 71/37/15 59/32/16 18/9/16 17/10/16 
f 58/29/17 72/38/18 14/7/19 13/8/17 
f 73/39/3 74/40/3 35/18/3 34/15/3 
f 75/41/3 76/42/3 77/43/3 78/44/3 
f 79/45/3 80/46/3 25/16/3 28/17/3 
f 22/12/3 80/46/3 79/45/3 23/13/3 
f 26/15/20 81/39/21 82/40/21 27/18/20 
f 30/11/6 29/14/6 82/40/21 81/39/21 
f 83/46/22 33/16/16 36/17/23 84/45/24 
f 85/47/25 86/48/6 87/49/26 88/50/27 
f 63/30/3 53/26/3 52/23/3 89/51/3 
f 65/34/3 68/35/3 90/52/3 91/53/3 
f 44/25/3 62/31/3 92/54/3 41/24/3 
f 38/20/3 92/54/3 62/31/3 7/2/3 
f 52/23/3 35/18/3 74/40/3 89/51/3 
f 77/43/3 91/53/3 90/52/3 78/44/3 
f 28/17/3 41/24/3 92/54/3 79/45/3 
f 93/55/3 69/37/3 11/10/3 46/27/3 
f 9/5/3 69/37/3 93/55/3 39/21/3 
f 94/56/3 55/28/3 20/7/3 70/38/3 
f 40/22/3 94/56/3 70/38/3 10/6/3 
f 93/55/3 46/27/3 25/16/3 80/46/3 
f 94/56/3 73/39/3 34/15/3 55/28/3 
f 43/26/28 42/23/20 95/51/29 61/30/30 
f 47/19/11 8/3/14 61/30/30 95/51/29 
f 51/24/31 54/25/6 64/31/32 96/54/33 
f 97/57/12 67/58/13 66/59/13 98/60/12 
f 27/18/20 82/40/21 95/51/29 42/23/20 
f 51/24/31 96/54/33 84/45/24 36/17/23 
f 98/60/12 87/49/26 86/48/6 97/57/12 
f 99/55/15 71/37/15 17/10/16 56/27/16 
f 49/21/6 15/5/6 71/37/15 99/55/15 
f 14/7/19 72/38/18 100/56/34 45/28/35 
f 16/6/6 50/22/6 100/56/34 72/38/18 
f 83/46/22 99/55/15 56/27/16 33/16/16 
f 26/15/20 45/28/35 100/56/34 81/39/21 
f 68/36/2 67/35/2 64/30/2 63/29/2 
f 66/34/2 65/33/2 6/4/2 5/3/2 
f 73/39/3 75/41/3 78/44/3 74/40/3 
f 76/42/3 21/11/3 24/14/3 77/43/3 
f 83/46/22 84/45/24 86/48/6 85/47/25 
f 32/13/9 31/12/8 88/50/27 87/49/26 
f 68/35/3 63/30/3 89/51/3 90/52/3 
f 6/3/3 65/34/3 91/53/3 37/19/3 
f 96/54/33 64/31/32 67/58/13 97/57/12 
f 5/2/13 48/20/12 98/60/12 66/59/13 
f 74/40/4 84/40/4 96/51/4 89/51/4 
f 90/52/7 97/52/7 86/44/7 78/44/7 
f 78/44/2 86/44/2 84/40/2 74/40/2 
f 89/51/1 96/51/1 97/52/1 90/52/1 
f 4/1/36 3/1/36 16/5/36 9/5/36 
f 2/4/7 1/4/7 10/6/7 15/6/7 
f 37/19/7 48/19/7 32/14/7 24/14/7 
f 47/20/4 38/20/4 23/13/4 29/13/4 
f 39/21/4 50/21/4 30/12/4 22/12/4 
f 49/22/7 40/22/7 21/11/7 31/11/7 
f 69/37/37 72/37/37 58/32/37 57/32/37 
f 60/29/4 59/29/4 71/38/4 70/38/4 
f 79/45/2 82/45/2 29/13/2 23/13/2 
f 22/12/1 30/12/1 81/46/1 80/46/1 
f 38/20/1 47/20/1 95/54/1 92/54/1 
f 77/43/4 87/43/4 98/53/4 91/53/4 
f 92/54/7 95/54/7 82/45/7 79/45/7 
f 93/55/2 100/55/2 50/21/2 39/21/2 
f 9/5/1 16/5/1 72/37/1 69/37/1 
f 70/38/1 71/38/1 15/6/1 10/6/1 
f 40/22/2 49/22/2 99/56/2 94/56/2 
f 80/46/7 81/46/7 100/55/7 93/55/7 
f 94/56/4 99/56/4 83/39/4 73/39/4 
f 73/39/1 83/39/1 85/41/1 75/41/1 
f 24/14/2 32/14/2 87/43/2 77/43/2 
f 91/53/1 98/53/1 48/19/1 37/19/1 
# 106 polygons

