# 3ds Max Wavefront OBJ Exporter v0.97b - (c)2007 guruware
# 创建的文件:23.05.2018 17:44:26

mtllib wq7.mtl

#
# object Box010
#

v  -98.2416 66.6952 -42.7805
v  -98.2416 66.6952 -21.6073
v  -96.2416 66.6951 -21.6073
v  -96.2415 66.6951 -42.7805
v  -96.2415 23.6578 36.3106
v  -98.2416 23.6578 36.3106
v  -98.2415 13.2126 36.3106
v  -96.2415 13.2126 36.3106
v  -98.2415 23.6578 -78.6894
v  -96.2415 23.6578 -78.6894
v  -96.2415 13.2126 -78.6894
v  -98.2415 13.2126 -78.6894
v  -98.2415 23.6578 -42.7805
v  -98.2415 23.6578 -51.8108
v  -98.2415 13.2126 -51.8108
v  -98.2415 13.2126 -42.7805
v  -98.2416 61.1021 36.3106
v  -98.2416 46.4990 36.3106
v  -96.2416 46.4990 36.3106
v  -96.2416 61.1021 36.3106
v  -96.2415 46.4990 -51.8108
v  -96.2415 61.1021 -51.8108
v  -96.2464 61.1334 -32.1093
v  -96.2464 46.5303 -32.1093
v  -96.2415 61.1021 -78.6894
v  -96.2415 46.4990 -78.6894
v  -98.2415 46.4990 -78.6894
v  -98.2415 61.1021 -78.6894
v  -96.2415 13.2126 -72.6107
v  -98.2415 13.2126 -72.6107
v  -96.2415 13.2126 -51.8108
v  -96.2415 13.2126 -42.7805
v  -98.2415 13.2126 -21.6073
v  -96.2415 13.2126 -21.6073
v  -98.2415 66.6952 -78.6894
v  -98.2416 66.6952 -72.6107
v  -96.2415 66.6951 -72.6107
v  -96.2415 66.6951 -78.6894
v  -98.2416 66.6952 -51.8108
v  -96.2415 66.6951 -51.8108
v  -96.2416 66.6951 36.3106
v  -98.2416 66.6952 36.3106
v  -96.2415 23.6578 -72.6107
v  -96.2415 23.6578 -51.8108
v  -96.2415 23.6578 -42.7805
v  -96.2415 23.6578 -21.6073
v  -98.2416 23.6578 -21.6073
v  -98.2415 23.6578 -72.6107
v  -96.2464 46.5303 -19.8396
v  -96.2464 61.1334 -19.8396
v  -96.2415 61.1021 -72.6107
v  -96.2415 46.4990 -72.6107
v  -98.2415 46.4990 -72.6107
v  -98.2415 61.1021 -72.6107
v  -98.2415 46.4990 -51.8108
v  -98.2416 61.1021 -51.8108
v  -98.2416 46.5303 -32.1093
v  -98.2416 61.1334 -32.1093
v  -98.2416 61.1334 -19.8396
v  -98.2416 46.5303 -19.8396
# 60 vertices

vn 0.0000 1.0000 -0.0000
vn 0.0000 0.0000 1.0000
vn 0.0000 0.0000 -1.0000
vn -1.0000 0.0000 -0.0000
vn 1.0000 0.0000 0.0001
vn 1.0000 -0.0005 0.0001
vn 1.0000 0.0001 0.0001
vn 0.0000 -1.0000 -0.0000
vn 1.0000 0.0000 -0.0000
vn 1.0000 0.0001 -0.0000
vn 1.0000 -0.0006 -0.0001
vn 1.0000 0.0000 -0.0001
vn 1.0000 -0.0009 -0.0000
vn 1.0000 -0.0001 0.0001
# 14 vertex normals

vt 0.0000 0.5000 0.0000
vt 0.0000 0.3333 0.0000
vt 1.0000 0.3333 0.0000
vt 1.0000 0.5000 0.0000
vt 0.0000 0.0000 0.0000
vt 1.0000 0.0000 0.0000
vt 0.5000 0.5000 0.0000
vt 0.3333 0.5000 0.0000
vt 0.3333 0.0000 0.0000
vt 0.5000 0.0000 0.0000
vt 0.0000 0.8333 0.0000
vt 0.0000 0.6667 0.0000
vt 1.0000 0.6667 0.0000
vt 1.0000 0.8333 0.0000
vt 0.6667 0.6667 0.0000
vt 0.6667 0.8333 0.0000
vt 0.5000 0.8333 0.0000
vt 0.5000 0.6667 0.0000
vt 0.0000 1.0000 0.0000
vt 1.0000 1.0000 0.0000
vt 0.8333 0.5000 0.0000
vt 0.8333 0.0000 0.0000
vt 0.6667 0.5000 0.0000
vt 0.6667 0.0000 0.0000
vt 0.1667 0.0000 0.0000
vt 0.1667 0.5000 0.0000
vt 0.3333 0.6667 0.0000
vt 0.3333 0.8333 0.0000
vt 0.8333 0.8333 0.0000
vt 0.8333 0.6667 0.0000
vt 0.1667 0.6667 0.0000
vt 0.1667 0.8333 0.0000
vt 0.5000 1.0000 0.0000
vt 0.6667 1.0000 0.0000
vt 0.3333 1.0000 0.0000
vt 0.8333 1.0000 0.0000
vt 0.1667 1.0000 0.0000
# 37 texture coords

g Box010
usemtl 墙e0
f 1/1/1 2/2/1 3/3/1 4/4/1 
f 5/4/2 6/1/2 7/5/2 8/6/2 
f 9/4/3 10/1/3 11/5/3 12/6/3 
f 13/7/4 14/8/4 15/9/4 16/10/4 
f 17/11/2 18/12/2 19/13/2 20/14/2 
f 21/15/5 22/16/5 23/17/6 24/18/7 
f 25/11/3 26/12/3 27/13/3 28/14/3 
f 11/19/8 29/11/8 30/14/8 12/20/8 
f 31/12/8 32/1/8 16/4/8 15/13/8 
f 7/6/8 33/3/8 34/2/8 8/5/8 
f 35/19/1 36/11/1 37/14/1 38/20/1 
f 36/11/1 39/12/1 40/13/1 37/14/1 
f 39/12/1 1/1/1 4/4/1 40/13/1 
f 41/6/1 3/3/1 2/2/1 42/5/1 
f 10/4/9 43/21/9 29/22/9 11/6/9 
f 44/23/9 45/7/10 32/10/9 31/24/9 
f 8/5/9 34/9/9 46/8/10 5/1/9 
f 6/4/4 47/23/4 33/24/4 7/6/4 
f 12/5/4 30/25/4 48/26/4 9/1/4 
f 49/27/10 50/28/11 20/11/9 19/12/12 
f 51/29/9 52/30/9 26/13/9 25/14/9 
f 22/16/5 21/15/5 52/30/9 51/29/9 
f 53/31/4 54/32/4 28/11/4 27/12/4 
f 55/27/4 56/28/4 54/32/4 53/31/4 
f 57/18/4 58/17/4 56/28/4 55/27/4 
f 59/16/4 60/15/4 18/13/4 17/14/4 
f 42/19/2 17/11/2 20/14/2 41/20/2 
f 5/4/2 19/13/2 18/12/2 6/1/2 
f 45/7/10 44/23/9 21/15/5 24/18/7 
f 4/33/13 23/17/6 22/16/5 40/34/14 
f 38/19/3 25/11/3 28/14/3 35/20/3 
f 9/4/3 27/13/3 26/12/3 10/1/3 
f 57/18/4 13/7/4 47/23/4 60/15/4 
f 2/34/4 1/33/4 58/17/4 59/16/4 
f 5/1/9 46/8/10 49/27/10 19/12/12 
f 41/19/9 20/11/9 50/28/11 3/35/13 
f 46/8/10 45/7/10 24/18/7 49/27/10 
f 3/35/13 50/28/11 23/17/6 4/33/13 
f 37/36/9 51/29/9 25/14/9 38/20/9 
f 10/4/9 26/13/9 52/30/9 43/21/9 
f 40/34/14 22/16/5 51/29/9 37/36/9 
f 43/21/9 52/30/9 21/15/5 44/23/9 
f 48/26/4 53/31/4 27/12/4 9/1/4 
f 35/19/4 28/11/4 54/32/4 36/37/4 
f 14/8/4 55/27/4 53/31/4 48/26/4 
f 36/37/4 54/32/4 56/28/4 39/35/4 
f 55/27/4 14/8/4 13/7/4 57/18/4 
f 1/33/4 39/35/4 56/28/4 58/17/4 
f 42/20/4 2/34/4 59/16/4 17/14/4 
f 6/4/4 18/13/4 60/15/4 47/23/4 
f 58/17/2 57/18/2 24/18/2 23/17/2 
f 60/15/3 59/16/3 50/16/3 49/15/3 
f 57/18/1 60/15/1 49/15/1 24/18/1 
f 59/16/8 58/17/8 23/17/8 50/16/8 
# 54 polygons

