# 3ds Max Wavefront OBJ Exporter v0.97b - (c)2007 guruware
# 创建的文件:23.05.2018 17:59:42

mtllib wqz16.mtl

#
# object Box009
#

v  -20.7214 80.6796 -88.6895
v  -35.9841 80.6786 -88.6895
v  -35.9841 80.6786 -86.6895
v  -20.7214 80.6796 -86.6895
v  -35.9841 57.5512 -86.7070
v  -35.9841 43.8242 -86.7070
v  -20.7214 43.8252 -86.7070
v  -20.7214 57.5522 -86.7070
v  -12.3894 57.5532 -86.6895
v  -12.3894 43.8262 -86.6895
v  -12.3894 43.8262 -88.6895
v  -12.3894 57.5532 -88.6895
v  -20.7214 57.5522 -88.6895
v  -20.7214 43.8252 -88.6895
v  -35.9841 43.8242 -88.6895
v  -35.9841 57.5512 -88.6895
v  -44.2390 57.5502 -88.6895
v  -44.2390 43.8232 -88.6895
v  -44.2390 43.8232 -86.6895
v  -44.2390 57.5502 -86.6895
v  -12.3894 8.5507 -86.6895
v  -21.7415 8.4857 -86.7070
v  -21.7415 8.4857 -88.6894
v  -12.3894 8.5507 -88.6895
v  -44.2390 8.5476 -88.6895
v  -34.7340 8.4857 -88.6894
v  -34.7340 8.4857 -86.7070
v  -44.2390 8.5476 -86.6895
v  -12.3894 80.6806 -88.6895
v  -12.3894 80.6806 -86.6895
v  -44.2390 80.6775 -86.6895
v  -44.2390 80.6775 -88.6895
v  -35.9841 73.7738 -86.7070
v  -20.7214 73.7748 -86.7070
v  -34.7340 18.2803 -86.7070
v  -21.7415 18.2803 -86.7070
v  -20.7214 27.4245 -86.7070
v  -35.9841 27.4235 -86.7070
v  -12.3894 73.7759 -86.6895
v  -12.3894 73.7759 -88.6895
v  -12.3894 18.3453 -88.6895
v  -12.3894 27.4255 -88.6895
v  -12.3894 27.4255 -86.6895
v  -12.3894 18.3453 -86.6895
v  -20.7214 73.7748 -88.6895
v  -35.9841 73.7738 -88.6895
v  -20.7214 27.4245 -88.6895
v  -21.7415 18.2803 -88.6894
v  -34.7340 18.2803 -88.6894
v  -35.9841 27.4235 -88.6895
v  -44.2390 73.7728 -88.6895
v  -44.2390 73.7728 -86.6895
v  -44.2390 18.3422 -86.6895
v  -44.2390 27.4224 -86.6895
v  -44.2390 27.4224 -88.6895
v  -44.2390 18.3422 -88.6895
# 56 vertices

vn -0.0001 1.0000 -0.0000
vn 0.0014 0.0000 1.0000
vn -0.0014 0.0000 1.0000
vn 1.0000 0.0000 -0.0000
vn 0.0000 0.0000 -1.0000
vn -1.0000 0.0000 -0.0000
vn 0.0069 -1.0000 -0.0000
vn -0.0065 -1.0000 -0.0000
vn -0.0021 0.0000 1.0000
vn 0.0021 0.0000 1.0000
vn 0.0006 -0.0020 1.0000
vn 0.0014 -0.0017 1.0000
vn -0.0010 -0.0013 1.0000
vn 0.0000 -0.0025 1.0000
vn 0.0012 0.0001 1.0000
vn -0.0012 0.0000 1.0000
vn -0.0015 0.0001 1.0000
vn -0.0012 -0.0011 1.0000
vn -0.0019 0.0000 1.0000
vn -0.0021 0.0001 1.0000
vn 0.0019 0.0001 1.0000
vn 0.0000 0.0000 1.0000
vn 0.0015 -0.0006 1.0000
vn 0.0018 0.0000 1.0000
vn 0.0001 -1.0000 -0.0000
vn 0.0000 -1.0000 -0.0000
# 26 vertex normals

vt 1.0133 0.5958 2.0762
vt -0.0186 0.5958 2.0762
vt -0.0186 0.4042 2.0762
vt 1.0133 0.4042 2.0762
vt -0.0186 1.0663 0.4059
vt -0.0186 0.4669 0.4059
vt 1.0133 0.4669 0.4059
vt 1.0133 1.0663 0.4059
vt 0.4042 1.0664 1.5767
vt 0.4042 0.4669 1.5767
vt 0.5958 0.4669 1.5767
vt 0.5958 1.0664 1.5767
vt -0.0133 1.0663 0.5958
vt -0.0133 0.4669 0.5958
vt 1.0186 0.4669 0.5958
vt 1.0186 1.0663 0.5958
vt 0.4042 1.0662 -0.5767
vt 0.4042 0.4668 -0.5767
vt 0.5958 0.4668 -0.5767
vt 0.5958 1.0662 -0.5767
vt -0.5767 0.4042 -1.0735
vt 0.0556 0.4059 -1.0763
vt 0.0556 0.5958 -1.0763
vt -0.5767 0.5958 -1.0735
vt 1.5767 0.5958 -1.0736
vt 0.9340 0.5958 -1.0763
vt 0.9340 0.4059 -1.0763
vt 1.5767 0.4042 -1.0736
vt 1.5767 0.5958 2.0763
vt 1.5767 0.4042 2.0763
vt -0.5767 0.4042 2.0762
vt -0.5767 0.5958 2.0762
vt 1.5767 0.4669 0.4042
vt 1.5767 1.0664 0.4042
vt -0.5767 1.0662 0.4042
vt -0.5767 0.4668 0.4042
vt 1.5767 0.4668 0.5958
vt 1.5767 1.0662 0.5958
vt -0.5767 1.0664 0.5958
vt -0.5767 0.4669 0.5958
vt -0.0186 2.0762 0.4042
vt -0.0186 1.7747 0.4059
vt 1.0133 1.7747 0.4059
vt 1.0133 2.0762 0.4042
vt 0.0660 -0.6486 0.4059
vt 0.9444 -0.6486 0.4059
vt 1.0133 -0.2493 0.4059
vt -0.0186 -0.2493 0.4059
vt 0.4042 2.0763 1.5767
vt 0.4042 1.7748 1.5767
vt 0.5958 1.7748 1.5767
vt 0.5958 2.0763 1.5767
vt 0.5958 -0.6457 1.5767
vt 0.5958 -0.2492 1.5767
vt 0.4042 -0.2492 1.5767
vt 0.4042 -0.6457 1.5767
vt -0.0133 2.0762 0.5958
vt -0.0133 1.7747 0.5958
vt 1.0186 1.7747 0.5958
vt 1.0186 2.0762 0.5958
vt -0.0133 -0.2493 0.5958
vt 0.0556 -0.6486 0.5958
vt 0.9340 -0.6486 0.5958
vt 1.0186 -0.2493 0.5958
vt 0.4042 2.0762 -0.5767
vt 0.4042 1.7746 -0.5767
vt 0.5958 1.7746 -0.5767
vt 0.5958 2.0762 -0.5767
vt 0.5958 -0.6459 -0.5767
vt 0.5958 -0.2494 -0.5767
vt 0.4042 -0.2494 -0.5767
vt 0.4042 -0.6459 -0.5767
vt 1.5767 1.7748 0.4042
vt 1.5767 2.0763 0.4042
vt 1.5767 -0.6457 0.4042
vt 1.5767 -0.2492 0.4042
vt -0.5767 -0.6459 0.4042
vt -0.5767 -0.2494 0.4042
vt -0.5767 2.0762 0.4042
vt -0.5767 1.7746 0.4042
vt 1.5767 2.0762 0.5958
vt 1.5767 1.7746 0.5958
vt 1.5767 -0.6459 0.5958
vt 1.5767 -0.2494 0.5958
vt -0.5767 -0.6457 0.5958
vt -0.5767 -0.2492 0.5958
vt -0.5767 2.0763 0.5958
vt -0.5767 1.7748 0.5958
vt 0.5958 -1.0735 1.5767
vt 0.4042 -1.0735 1.5767
vt 0.5958 -1.0736 -0.5767
vt 0.4042 -1.0736 -0.5767
vt 1.5767 -1.0735 0.4042
vt 0.9444 -1.0763 0.4059
vt -0.5767 -1.0736 0.4042
vt 0.0660 -1.0763 0.4059
vt 1.5767 -1.0736 0.5958
vt 0.9340 -1.0763 0.5958
vt -0.5767 -1.0735 0.5958
vt 0.0556 -1.0763 0.5958
vt 1.0133 0.5958 1.0663
vt -0.0186 0.5958 1.0663
vt -0.0186 0.4059 1.0663
vt 1.0133 0.4059 1.0663
vt 1.0186 0.5958 0.4669
vt -0.0133 0.5958 0.4669
vt -0.0133 0.4059 0.4669
vt 1.0186 0.4059 0.4669
vt 1.0186 0.5958 1.7747
vt -0.0133 0.5958 1.7747
vt -0.0133 0.4059 1.7747
vt 1.0186 0.4059 1.7747
vt 0.9340 0.5958 -0.6486
vt 0.0556 0.5958 -0.6486
vt 0.0556 0.4059 -0.6486
vt 0.9340 0.4059 -0.6486
vt 1.0133 0.5958 -0.2493
vt -0.0186 0.5958 -0.2493
vt -0.0186 0.4059 -0.2493
vt 1.0133 0.4059 -0.2493
vt 0.5958 1.0663 -0.0186
vt 0.5958 1.7747 -0.0186
vt 0.4059 1.7747 -0.0186
vt 0.4059 1.0663 -0.0186
vt 0.5958 -0.2493 -0.0186
vt 0.5958 0.4669 -0.0186
vt 0.4059 0.4669 -0.0186
vt 0.4059 -0.2493 -0.0186
vt 0.4042 0.4669 1.0133
vt 0.4042 -0.2493 1.0133
vt 0.5941 -0.2493 1.0133
vt 0.5941 0.4669 1.0133
vt 0.4042 1.7747 1.0133
vt 0.4042 1.0663 1.0133
vt 0.5941 1.0663 1.0133
vt 0.5941 1.7747 1.0133
vt 0.5958 -1.0763 0.0660
vt 0.5958 -0.6486 0.0660
vt 0.4059 -0.6486 0.0660
vt 0.4059 -1.0763 0.0660
vt 0.4042 -0.6486 0.9444
vt 0.4042 -1.0763 0.9444
vt 0.5941 -1.0763 0.9444
vt 0.5941 -0.6486 0.9444
# 144 texture coords

g Box009
usemtl Material__2100436821
f 1/1/1 2/2/1 3/3/1 4/4/1 
f 5/5/2 6/6/2 7/7/3 8/8/3 
f 9/9/4 10/10/4 11/11/4 12/12/4 
f 13/13/5 14/14/5 15/15/5 16/16/5 
f 17/17/6 18/18/6 19/19/6 20/20/6 
f 21/21/7 22/22/7 23/23/7 24/24/7 
f 25/25/8 26/26/8 27/27/8 28/28/8 
f 29/29/1 1/1/1 4/4/1 30/30/1 
f 31/31/1 3/3/1 2/2/1 32/32/1 
f 8/8/3 7/7/3 10/33/9 9/34/9 
f 6/6/2 5/5/2 20/35/10 19/36/10 
f 16/16/5 15/15/5 18/37/5 17/38/5 
f 14/14/5 13/13/5 12/39/5 11/40/5 
f 3/41/11 33/42/12 34/43/13 4/44/14 
f 35/45/15 36/46/16 37/47/17 38/48/2 
f 30/49/4 39/50/4 40/51/4 29/52/4 
f 39/50/4 9/9/4 12/12/4 40/51/4 
f 41/53/4 42/54/4 43/55/4 44/56/4 
f 42/54/4 11/11/4 10/10/4 43/55/4 
f 1/57/5 45/58/5 46/59/5 2/60/5 
f 47/61/5 48/62/5 49/63/5 50/64/5 
f 32/65/6 51/66/6 52/67/6 31/68/6 
f 51/66/6 17/17/6 20/20/6 52/67/6 
f 53/69/6 54/70/6 55/71/6 56/72/6 
f 54/70/6 19/19/6 18/18/6 55/71/6 
f 4/44/14 34/43/13 39/73/9 30/74/18 
f 34/43/13 8/8/3 9/34/9 39/73/9 
f 44/75/19 43/76/20 37/47/17 36/46/16 
f 43/76/20 10/33/9 7/7/3 37/47/17 
f 53/77/21 35/45/15 38/48/2 54/78/10 
f 38/48/2 6/6/2 19/36/10 54/78/10 
f 31/79/22 52/80/23 33/42/12 3/41/11 
f 52/80/23 20/35/10 5/5/2 33/42/12 
f 32/81/5 2/60/5 46/59/5 51/82/5 
f 46/59/5 16/16/5 17/38/5 51/82/5 
f 56/83/5 55/84/5 50/64/5 49/63/5 
f 18/37/5 15/15/5 50/64/5 55/84/5 
f 41/85/5 48/62/5 47/61/5 42/86/5 
f 47/61/5 14/14/5 11/40/5 42/86/5 
f 29/87/5 40/88/5 45/58/5 1/57/5 
f 12/39/5 13/13/5 45/58/5 40/88/5 
f 24/89/4 41/53/4 44/56/4 21/90/4 
f 28/91/6 53/69/6 56/72/6 25/92/6 
f 21/93/19 44/75/19 36/46/16 22/94/19 
f 28/95/24 27/96/24 35/45/15 53/77/21 
f 25/97/5 56/83/5 49/63/5 26/98/5 
f 24/99/5 23/100/5 48/62/5 41/85/5 
f 13/101/1 16/102/1 5/103/1 8/104/1 
f 15/105/25 14/106/25 7/107/25 6/108/25 
f 46/109/25 45/110/25 34/111/25 33/112/25 
f 49/113/26 48/114/26 36/115/26 35/116/26 
f 47/117/1 50/118/1 38/119/1 37/120/1 
f 16/121/4 46/122/4 33/123/4 5/124/4 
f 50/125/4 15/126/4 6/127/4 38/128/4 
f 14/129/6 47/130/6 37/131/6 7/132/6 
f 45/133/6 13/134/6 8/135/6 34/136/6 
f 26/137/4 49/138/4 35/139/4 27/140/4 
f 48/141/6 23/142/6 22/143/6 36/144/6 
# 58 polygons

