# 3ds Max Wavefront OBJ Exporter v0.97b - (c)2007 guruware
# ´´½¨µÄÎÄ¼þ:20.05.2018 08:15:06

mtllib waimen.mtl

#
# object Rectangle042
#

v  68.2477 23.2579 32.2629
v  59.6778 23.2579 32.2629
v  59.6778 23.2579 32.7629
v  68.2477 23.2579 32.7629
v  59.6778 4.5356 32.2629
v  59.6778 4.5356 32.7629
v  68.2477 4.5356 32.2629
v  68.2477 4.5356 32.7629
v  67.5596 5.1985 32.2629
v  60.4016 5.1985 32.2629
v  60.4016 5.1985 32.7629
v  67.5596 5.1985 32.7629
v  60.4016 22.7307 32.2629
v  60.4016 22.7307 32.7629
v  67.5596 22.7307 32.2629
v  67.5596 22.7307 32.7629
# 16 vertices

vn 0.0000 1.0000 0.0000
vn -1.0000 0.0000 -0.0000
vn 0.0000 -1.0000 -0.0000
vn 1.0000 0.0000 -0.0000
vn 0.0000 0.0000 -1.0000
vn 0.0000 -0.0000 1.0000
# 6 vertex normals

g Rectangle042
usemtl ´°¿ò_
f 1//1 2//1 3//1 4//1 
f 2//2 5//2 6//2 3//2 
f 5//3 7//3 8//3 6//3 
f 7//4 1//4 4//4 8//4 
f 9//1 10//1 11//1 12//1 
f 10//4 13//4 14//4 11//4 
f 13//3 15//3 16//3 14//3 
f 15//2 9//2 12//2 16//2 
f 15//5 2//5 1//5 9//5 
f 7//5 5//5 9//5 1//5 
f 13//5 10//5 2//5 15//5 
f 5//5 2//5 10//5 9//5 
f 16//6 12//6 8//6 4//6 
f 16//6 4//6 3//6 14//6 
f 6//6 8//6 12//6 11//6 
f 3//6 6//6 11//6 14//6 
# 16 polygons

#
# object Rectangle043
#

v  76.8891 23.2579 32.2629
v  68.2121 23.2579 32.2629
v  68.2121 23.2579 32.7629
v  76.8891 23.2579 32.7629
v  68.2121 4.5356 32.2629
v  68.2121 4.5356 32.7629
v  76.8891 4.5356 32.2629
v  76.8891 4.5356 32.7629
v  76.1653 5.1985 32.2629
v  69.0073 5.1985 32.2629
v  69.0073 5.1985 32.7629
v  76.1653 5.1985 32.7629
v  69.0073 22.7307 32.2629
v  69.0073 22.7307 32.7629
v  76.1653 22.7307 32.2629
v  76.1653 22.7307 32.7629
# 16 vertices

vn 0.0000 1.0000 0.0000
vn -1.0000 0.0000 -0.0000
vn 0.0000 -1.0000 -0.0000
vn 1.0000 0.0000 -0.0000
vn 0.0000 0.0000 -1.0000
vn 0.0000 -0.0000 1.0000
# 6 vertex normals

g Rectangle043
usemtl ´°¿ò_
f 17//7 18//7 19//7 20//7 
f 18//8 21//8 22//8 19//8 
f 21//9 23//9 24//9 22//9 
f 23//10 17//10 20//10 24//10 
f 25//7 26//7 27//7 28//7 
f 26//10 29//10 30//10 27//10 
f 29//9 31//9 32//9 30//9 
f 31//8 25//8 28//8 32//8 
f 31//11 18//11 17//11 25//11 
f 23//11 21//11 25//11 17//11 
f 29//11 26//11 18//11 31//11 
f 21//11 18//11 26//11 25//11 
f 32//12 28//12 24//12 20//12 
f 32//12 20//12 19//12 30//12 
f 22//12 24//12 28//12 27//12 
f 19//12 22//12 27//12 30//12 
# 16 polygons

#
# object Rectangle044
#

v  59.2810 4.5400 32.5129
v  77.2835 4.5400 32.5129
v  77.2835 27.9713 32.5129
v  59.2810 27.9713 32.5129
# 4 vertices

vn 0.0000 -0.0000 1.0000
# 1 vertex normals

g Rectangle044
usemtl ²£Á§
f 33//13 34//13 35//13 36//13 
# 1 polygons

#
# object Rectangle041
#

v  77.2835 4.5400 32.2629
v  77.2835 27.9713 32.2629
v  77.2835 27.9713 32.9629
v  77.2835 4.5400 32.9629
v  59.2810 27.9713 32.2629
v  59.2810 27.9713 32.9629
v  59.2810 4.5400 32.2629
v  59.2810 4.5400 32.9629
v  59.6778 4.5400 32.2629
v  59.6778 4.5400 32.9629
v  59.6778 27.7321 32.2629
v  59.6778 27.7321 32.9629
v  76.8891 27.7321 32.2629
v  76.8891 27.7321 32.9629
v  76.8891 4.5400 32.2629
v  76.8891 4.5400 32.9629
v  77.2835 23.6992 32.2629
v  59.2810 23.6992 32.2629
v  59.2810 23.6992 32.9629
v  77.2835 23.6992 32.9629
v  59.6778 23.2579 32.2629
v  76.8891 23.2579 32.2629
v  76.8891 23.2579 32.9629
v  59.6778 23.2579 32.9629
# 24 vertices

vn 1.0000 0.0000 -0.0000
vn 0.0000 1.0000 0.0000
vn -1.0000 0.0000 -0.0000
vn 0.0000 -1.0000 -0.0000
vn 1.0000 -0.0000 -0.0000
vn -0.0000 -1.0000 -0.0000
vn -1.0000 -0.0000 -0.0000
vn 0.0000 0.0000 -1.0000
vn 0.0000 -0.0000 1.0000
# 9 vertex normals

g Rectangle041
usemtl ´°¿ò_
f 37//14 38//14 39//14 40//14 
f 38//15 41//15 42//15 39//15 
f 41//16 43//16 44//16 42//16 
f 43//17 45//17 46//17 44//17 
f 45//18 47//18 48//18 46//18 
f 47//19 49//19 50//19 48//19 
f 49//20 51//20 52//20 50//20 
f 51//17 37//17 40//17 52//17 
f 43//21 41//21 47//21 45//21 
f 38//21 49//21 47//21 41//21 
f 37//21 51//21 49//21 38//21 
f 44//22 46//22 48//22 42//22 
f 39//22 42//22 48//22 50//22 
f 40//22 39//22 50//22 52//22 
f 53//15 54//15 55//15 56//15 
f 57//17 58//17 59//17 60//17 
f 53//21 58//21 57//21 54//21 
f 56//22 55//22 60//22 59//22 
# 18 polygons

#
# object Object4963
#

v  57.9476 28.9213 34.0650
v  57.9476 28.9213 31.3014
v  78.5674 28.9213 31.3014
v  78.5674 28.9213 34.0650
v  57.9476 4.5394 34.0650
v  57.9476 4.5394 31.3014
v  78.5674 4.5394 31.3014
v  78.5674 4.5394 34.0650
v  58.8393 28.4213 34.0650
v  58.8393 28.4212 31.3014
v  58.8393 4.5394 31.3014
v  58.8393 4.5394 34.0650
v  77.6756 28.4213 34.0650
v  77.6756 28.4213 31.3014
v  77.6756 4.5394 34.0650
v  77.6756 4.5394 31.3014
v  58.8393 28.4213 33.7116
v  77.6756 28.4213 33.7116
v  58.8393 4.5394 33.7116
v  77.6756 4.5394 33.7116
v  59.1366 28.1213 33.7116
v  59.1366 28.1212 31.3014
v  59.1366 4.5394 31.3014
v  59.1366 4.5394 33.7116
v  77.3784 28.1213 33.7116
v  77.3784 28.1213 31.3014
v  77.3784 4.5394 33.7116
v  77.3784 4.5394 31.3014
v  77.3784 28.1213 33.3581
v  77.3784 4.5394 33.3581
v  59.1366 28.1213 33.3582
v  59.1366 4.5394 33.3581
v  59.2852 27.9713 33.3581
v  59.2852 27.9713 31.3014
v  59.2852 4.5394 31.3014
v  59.2852 4.5394 33.3581
v  77.2298 27.9713 33.3581
v  77.2298 27.9713 31.3014
v  77.2298 4.5394 33.3581
v  77.2298 4.5394 31.3014
v  78.8646 29.2213 34.2088
v  78.8646 29.2213 31.3014
v  78.8646 4.5394 31.3014
v  78.8646 4.5394 34.2088
v  57.6503 29.2213 34.2089
v  57.6503 29.2213 31.3014
v  57.6503 4.5394 34.2088
v  57.6503 4.5394 31.3014
v  57.9476 28.9213 34.2089
v  57.9476 4.5394 34.2088
v  78.5674 28.9213 34.2088
v  78.5674 4.5394 34.2088
# 52 vertices

vn -0.0000 1.0000 -0.0000
vn -1.0000 0.0000 -0.0000
vn 1.0000 -0.0000 0.0000
vn 0.0000 -1.0000 0.0000
vn 0.0000 -0.0000 1.0000
vn -0.0000 -0.0000 1.0000
vn 0.0000 0.0000 1.0000
vn -1.0000 0.0000 0.0000
# 8 vertex normals

vt -5.0917 -0.6273 -2.6542
vt -4.8796 -0.6273 -2.6542
vt -4.8796 2.0414 -2.6542
vt -5.0917 2.0414 -2.6542
vt -5.0917 -4.4778 -0.6273
vt -4.8796 -4.4778 -0.6273
vt -4.8796 -2.6542 -0.6273
vt -5.0917 -2.6542 -0.6273
vt 6.0917 -2.6542 2.0414
vt 5.8796 -2.6542 2.0414
vt 5.8796 -4.4778 2.0414
vt 6.0917 -4.4778 2.0414
vt 6.0917 -2.7042 -0.5382
vt 5.8796 -2.7042 -0.5382
vt 5.8796 -4.4278 -0.5382
vt 6.0917 -4.4278 -0.5382
vt 6.0917 1.9522 -2.7042
vt 5.8796 1.9522 -2.7042
vt 5.8796 -0.5382 -2.7042
vt 6.0917 -0.5382 -2.7042
vt -5.0917 -4.4278 1.9522
vt -4.8796 -4.4278 1.9522
vt -4.8796 -2.7042 1.9522
vt -5.0917 -2.7042 1.9522
vt 1.5382 -2.7042 -5.0917
vt 1.5382 -4.4278 -5.0917
vt 1.6273 -4.4778 -5.0917
vt 1.6273 -2.6542 -5.0917
vt -0.9522 -2.7042 -5.0917
vt -1.0414 -2.6542 -5.0917
vt -1.0414 -4.4778 -5.0917
vt -0.9522 -4.4278 -5.0917
vt -5.0563 -0.5382 -2.7042
vt -4.8796 -0.5382 -2.7042
vt -4.8796 1.9522 -2.7042
vt -5.0563 1.9522 -2.7042
vt -5.0563 -4.4278 -0.5382
vt -4.8796 -4.4278 -0.5382
vt -4.8796 -2.7042 -0.5382
vt -5.0563 -2.7042 -0.5382
vt 6.0563 -2.7042 1.9522
vt 5.8796 -2.7042 1.9522
vt 5.8796 -4.4278 1.9522
vt 6.0563 -4.4278 1.9522
vt 6.0563 -2.7342 -0.5084
vt 5.8796 -2.7342 -0.5084
vt 5.8796 -4.3878 -0.5084
vt 6.0563 -4.3878 -0.5084
vt 6.0563 1.9225 -2.7342
vt 5.8796 1.9225 -2.7342
vt 5.8796 -0.5084 -2.7342
vt 6.0563 -0.5084 -2.7342
vt -5.0563 -4.3878 1.9225
vt -4.8796 -4.3878 1.9225
vt -4.8796 -2.7342 1.9225
vt -5.0563 -2.7342 1.9225
vt 1.5084 -2.7342 -5.0563
vt 1.5084 -4.3878 -5.0563
vt 1.5382 -4.4278 -5.0563
vt 1.5382 -2.7042 -5.0563
vt -0.9225 -2.7342 -5.0563
vt -0.9522 -2.7042 -5.0563
vt -0.9522 -4.4278 -5.0563
vt -0.9225 -4.3878 -5.0563
vt 6.0210 -2.7342 1.9225
vt 5.8796 -2.7342 1.9225
vt 5.8796 -4.3492 1.9225
vt 6.0210 -4.3492 1.9225
vt -5.0210 -0.5084 -2.7342
vt -4.8796 -0.5084 -2.7342
vt -4.8796 1.9225 -2.7342
vt -5.0210 1.9225 -2.7342
vt -5.0210 -4.3492 -0.5084
vt -4.8796 -4.3492 -0.5084
vt -4.8796 -2.7342 -0.5084
vt -5.0210 -2.7342 -0.5084
vt 6.0210 -2.7492 -0.4936
vt 5.8796 -2.7492 -0.4936
vt 5.8796 -4.3492 -0.4936
vt 6.0210 -4.3492 -0.4936
vt 6.0210 1.9076 -2.7492
vt 5.8796 1.9076 -2.7492
vt 5.8796 -0.4936 -2.7492
vt 6.0210 -0.4936 -2.7492
vt -5.0210 -4.3492 1.9076
vt -4.8796 -4.3492 1.9076
vt -4.8796 -2.7492 1.9076
vt -5.0210 -2.7492 1.9076
vt 1.4936 -2.7492 -5.0210
vt 1.4936 -4.3492 -5.0210
vt 1.5084 -4.3492 -5.0210
vt 1.5084 -2.7342 -5.0210
vt -0.9076 -2.7492 -5.0210
vt -0.9225 -2.7342 -5.0210
vt -0.9076 -4.3492 -5.0210
vt -0.9225 -4.3492 -5.0210
vt 6.1060 -2.6242 2.0711
vt 5.8796 -2.6242 2.0711
vt 5.8796 -4.4778 2.0711
vt 6.1060 -4.4778 2.0711
vt -5.1060 -0.6571 -2.6242
vt -4.8796 -0.6571 -2.6242
vt -4.8796 2.0711 -2.6242
vt -5.1060 2.0711 -2.6242
vt -5.1060 -4.4778 -0.6571
vt -4.8796 -4.4778 -0.6571
vt -4.8796 -2.6242 -0.6571
vt -5.1060 -2.6242 -0.6571
vt 6.1060 -2.6542 -0.6273
vt 5.8796 -2.6542 -0.6273
vt 5.8796 -4.4778 -0.6273
vt 6.1060 -4.4778 -0.6273
vt 6.1060 2.0414 -2.6542
vt 5.8796 2.0414 -2.6542
vt 5.8796 -0.6273 -2.6542
vt 6.1060 -0.6273 -2.6542
vt -5.1060 -4.4778 2.0414
vt -4.8796 -4.4778 2.0414
vt -4.8796 -2.6542 2.0414
vt -5.1060 -2.6542 2.0414
vt 1.6273 -2.6542 -5.1060
vt 1.6273 -4.4778 -5.1060
vt 1.6571 -4.4778 -5.1060
vt 1.6571 -2.6242 -5.1060
vt -1.0414 -2.6542 -5.1060
vt -1.0711 -2.6242 -5.1060
vt -1.0414 -4.4778 -5.1060
vt -1.0711 -4.4778 -5.1060
# 128 texture coords

g Object4963
usemtl ´°Ì×001
f 64/4/23 63/3/23 62/2/23 61/1/23 
f 61/8/24 62/7/24 66/6/24 65/5/24 
f 68/12/25 67/11/25 63/10/25 64/9/25 
f 72/16/25 71/15/25 70/14/25 69/13/25 
f 69/20/26 70/19/26 74/18/26 73/17/26 
f 73/24/24 74/23/24 76/22/24 75/21/24 
f 61/28/27 65/27/27 72/26/27 69/25/27 
f 64/30/27 61/28/27 69/25/27 73/29/27 
f 73/29/28 75/32/28 68/31/28 64/30/28 
f 78/36/23 74/35/23 70/34/23 77/33/23 
f 77/40/24 70/39/24 71/38/24 79/37/24 
f 80/44/25 76/43/25 74/42/25 78/41/25 
f 84/48/25 83/47/25 82/46/25 81/45/25 
f 81/52/26 82/51/26 86/50/26 85/49/26 
f 85/56/24 86/55/24 88/54/24 87/53/24 
f 77/60/27 79/59/27 84/58/27 81/57/27 
f 78/62/29 77/60/29 81/57/29 85/61/29 
f 85/61/27 87/64/27 80/63/27 78/62/27 
f 90/68/25 88/67/25 86/66/25 89/65/25 
f 89/72/23 86/71/23 82/70/23 91/69/23 
f 91/76/24 82/75/24 83/74/24 92/73/24 
f 96/80/25 95/79/25 94/78/25 93/77/25 
f 93/84/26 94/83/26 98/82/26 97/81/26 
f 97/88/30 98/87/30 100/86/30 99/85/30 
f 91/92/27 92/91/27 96/90/27 93/89/27 
f 89/94/27 91/92/27 93/89/27 97/93/27 
f 90/96/28 89/94/28 97/93/28 99/95/28 
f 104/100/25 103/99/25 102/98/25 101/97/25 
f 101/104/23 102/103/23 106/102/23 105/101/23 
f 105/108/24 106/107/24 108/106/24 107/105/24 
f 110/112/25 66/111/25 62/110/25 109/109/25 
f 109/116/26 62/115/26 63/114/26 111/113/26 
f 111/120/24 63/119/24 67/118/24 112/117/24 
f 105/124/27 107/123/27 110/122/27 109/121/27 
f 101/126/27 105/124/27 109/121/27 111/125/27 
f 104/128/28 101/126/28 111/125/28 112/127/28 
# 36 polygons

