# 3ds Max Wavefront OBJ Exporter v0.97b - (c)2007 guruware
# 创建的文件:20.05.2018 00:08:13

mtllib gd1.mtl

#
# object Shape004
#

v  -54.2416 0.0000 36.2618
v  -54.2416 0.0000 35.9750
v  -54.2416 37.0996 35.9750
v  -54.2416 37.0996 36.2618
v  -56.2416 0.0000 35.9750
v  -56.2416 37.0996 35.9750
v  -56.2416 0.0000 36.2618
v  -56.2416 37.0996 36.2618
v  -42.2416 0.0000 -76.7382
v  -42.2416 0.0000 -46.7382
v  -42.2416 37.0996 -46.7382
v  -42.2416 37.0996 -76.7382
v  -40.2416 0.0000 -46.7382
v  -40.2416 37.0996 -46.7382
v  -40.2416 0.0000 -76.7382
v  -40.2416 37.0996 -76.7382
v  -16.2416 0.0000 -71.7382
v  -16.2416 0.0000 -49.7382
v  -16.2416 37.0996 -49.7382
v  -16.2416 37.0996 -71.7382
v  -14.2416 0.0000 -49.7382
v  -14.2416 37.0996 -49.7382
v  -14.2416 0.0000 -71.7382
v  -14.2416 37.0996 -71.7382
v  -44.3791 0.0000 20.2575
v  -38.2741 0.0000 20.2575
v  -38.2741 37.0996 20.2575
v  -44.3791 37.0996 20.2575
v  -38.2741 0.0000 18.2575
v  -38.2741 37.0996 18.2575
v  -44.3791 0.0000 18.2575
v  -44.3791 37.0996 18.2575
v  -21.2416 0.0000 22.2618
v  -19.2416 0.0000 22.2618
v  -19.2416 37.0996 22.2618
v  -21.2416 37.0996 22.2618
v  -19.2416 0.0000 -16.7382
v  -19.2416 37.0996 -16.7382
v  -19.2416 0.0000 -35.7382
v  -19.2416 37.0996 -35.7382
v  -14.2416 0.0000 -35.7382
v  -14.2416 37.0996 -35.7382
v  -14.2416 0.0000 -37.7382
v  -14.2416 37.0996 -37.7382
v  -16.2416 0.0000 -37.7382
v  -16.2416 37.0996 -37.7382
v  -20.2416 0.0000 -37.7382
v  -20.2416 37.0996 -37.7382
v  -25.7416 0.0000 -37.7382
v  -25.7416 37.0996 -37.7382
v  -25.7416 0.0000 -35.7382
v  -25.7416 37.0996 -35.7382
v  -21.2416 0.0000 -35.7382
v  -21.2416 37.0996 -35.7382
v  -21.2416 0.0000 -17.7382
v  -21.2416 37.0996 -17.7382
v  -40.2416 0.0000 -17.7382
v  -40.2416 37.0996 -17.7382
v  -40.2416 0.0000 -35.7382
v  -40.2416 37.0996 -35.7382
v  -35.7416 0.0000 -35.7382
v  -35.7416 37.0996 -35.7382
v  -35.7416 0.0000 -37.7382
v  -35.7416 37.0996 -37.7382
v  -40.2416 0.0000 -37.7382
v  -40.2416 37.0996 -37.7382
v  -42.2416 0.0000 -37.7382
v  -42.2416 37.0996 -37.7382
v  -42.2416 0.0000 -36.7382
v  -42.2416 37.0996 -36.7382
v  -42.2416 0.0000 -17.7382
v  -42.2416 37.0996 -17.7382
v  -96.2416 0.0000 -17.7382
v  -96.2416 37.0996 -17.7382
v  -96.2416 0.0000 -15.7382
v  -96.2416 37.0996 -15.7382
v  -77.3366 0.0000 -15.7385
v  -77.3366 37.0996 -15.7385
v  -77.3366 0.0000 -3.7388
v  -77.3366 37.0996 -3.7388
v  -77.7041 0.0000 -3.7388
v  -77.7041 37.0996 -3.7388
v  -77.7041 0.0000 -1.7388
v  -77.7041 37.0996 -1.7388
v  -76.3366 0.0000 -1.7388
v  -76.3366 37.0996 -1.7388
v  -56.2416 0.0000 -1.7388
v  -56.2416 37.0996 -1.7388
v  -56.2416 0.0000 26.9750
v  -56.2416 37.0996 26.9750
v  -54.2416 0.0000 26.9750
v  -54.2416 37.0996 26.9750
v  -54.2416 0.0000 20.2575
v  -54.2416 37.0996 20.2575
v  -53.3791 0.0000 20.2575
v  -53.3791 37.0996 20.2575
v  -53.3791 0.0000 18.2575
v  -53.3791 37.0996 18.2575
v  -54.2416 0.0000 18.2575
v  -54.2416 37.0996 18.2575
v  -54.2416 0.0000 -6.8050
v  -54.2416 37.0996 -6.8050
v  -56.2416 0.0000 -6.8050
v  -56.2416 37.0996 -6.8050
v  -56.2416 0.0000 -3.7388
v  -56.2416 37.0996 -3.7388
v  -75.3366 0.0000 -3.7388
v  -75.3366 37.0996 -3.7388
v  -75.3366 0.0000 -15.7385
v  -75.3366 37.0996 -15.7385
v  -56.2416 0.0000 -15.7382
v  -56.2416 37.0996 -15.7382
v  -56.2416 0.0000 -14.8050
v  -56.2416 37.0996 -14.8050
v  -54.2416 0.0000 -14.8050
v  -54.2416 37.0996 -14.8050
v  -54.2416 0.0000 -15.7382
v  -54.2416 37.0996 -15.7382
v  -41.2416 0.0000 -15.7382
v  -41.2416 37.0996 -15.7382
v  -21.2416 0.0000 -15.7382
v  -21.2416 37.0996 -15.7382
v  -21.2416 0.0000 18.2575
v  -21.2416 37.0996 18.2575
v  -26.2741 0.0000 18.2575
v  -26.2741 37.0996 18.2575
v  -26.2741 0.0000 20.2575
v  -26.2741 37.0996 20.2575
v  -21.2416 0.0000 20.2575
v  -21.2416 37.0996 20.2575
v  55.7584 0.0000 31.2612
v  55.7584 0.0000 23.2612
v  55.7584 37.0996 23.2612
v  55.7584 37.0996 31.2612
v  59.2834 0.0000 23.2612
v  59.2834 37.0996 23.2612
v  59.2834 0.0000 21.2612
v  59.2834 37.0996 21.2612
v  53.7584 0.0000 21.2612
v  53.7584 37.0996 21.2612
v  53.7584 0.0000 31.2612
v  53.7584 37.0996 31.2612
v  97.7584 0.0000 1.2612
v  97.7584 0.0000 -6.8644
v  97.7584 37.0996 -6.8644
v  97.7584 37.0996 1.2612
v  95.7584 0.0000 -6.8644
v  95.7584 37.0996 -6.8644
v  95.7584 0.0000 1.2612
v  95.7584 37.0996 1.2612
v  126.7584 0.0000 -18.7425
v  95.7584 0.0000 -18.7425
v  95.7584 37.0996 -18.7425
v  126.7584 37.0996 -18.7425
v  95.7584 0.0000 -14.8644
v  95.7584 37.0996 -14.8644
v  97.7584 0.0000 -14.8644
v  97.7584 37.0996 -14.8644
v  97.7584 0.0000 -16.7425
v  97.7584 37.0996 -16.7425
v  126.7584 0.0000 -16.7425
v  126.7584 37.0996 -16.7425
v  -96.2416 0.0000 -1.7388
v  -85.7041 0.0000 -1.7388
v  -85.7041 37.0996 -1.7388
v  -96.2416 37.0996 -1.7388
v  -85.7041 0.0000 -3.7388
v  -85.7041 37.0996 -3.7388
v  -96.2416 0.0000 -3.7388
v  -96.2416 37.0996 -3.7388
v  126.7584 0.0000 -43.7369
v  94.7459 0.0000 -43.7369
v  94.7459 37.0996 -43.7369
v  126.7584 37.0996 -43.7369
v  94.7459 0.0000 -41.7369
v  94.7459 37.0996 -41.7369
v  126.7584 0.0000 -41.7369
v  126.7584 37.0996 -41.7369
v  83.7584 0.0000 -43.7369
v  83.7584 0.0000 -71.7382
v  83.7584 37.0996 -71.7382
v  83.7584 37.0996 -43.7369
v  81.7584 0.0000 -71.7382
v  81.7584 37.0996 -71.7382
v  81.7584 0.0000 -34.7388
v  81.7584 37.0996 -34.7388
v  83.7584 0.0000 -34.7388
v  83.7584 37.0996 -34.7388
v  83.7584 0.0000 -41.7369
v  83.7584 37.0996 -41.7369
v  85.7459 0.0000 -41.7369
v  85.7459 37.0996 -41.7369
v  85.7459 0.0000 -43.7369
v  85.7459 37.0996 -43.7369
v  126.7584 0.0000 1.2618
v  93.7584 0.0000 1.2618
v  93.7584 37.0996 1.2618
v  126.7584 37.0996 1.2618
v  93.7584 0.0000 3.2618
v  93.7584 37.0996 3.2618
v  126.7584 0.0000 3.2618
v  126.7584 37.0996 3.2618
v  83.7584 0.0000 3.2618
v  84.7584 0.0000 3.2618
v  84.7584 37.0996 3.2618
v  83.7584 37.0996 3.2618
v  84.7584 0.0000 1.2618
v  84.7584 37.0996 1.2618
v  83.7584 0.0000 1.2618
v  83.7584 37.0996 1.2618
v  83.7584 0.0000 -16.7388
v  83.7584 37.0996 -16.7388
v  81.7584 0.0000 -16.7388
v  81.7584 37.0996 -16.7388
v  81.7584 0.0000 21.2612
v  81.7584 37.0996 21.2612
v  77.2834 0.0000 21.2612
v  77.2834 37.0996 21.2612
v  77.2834 0.0000 23.2612
v  77.2834 37.0996 23.2612
v  81.7584 0.0000 23.2612
v  81.7584 37.0996 23.2612
v  81.7584 0.0000 31.2687
v  81.7584 37.0996 31.2687
v  83.7584 0.0000 31.2681
v  83.7584 37.0996 31.2681
v  57.7584 0.0000 -35.6760
v  57.7584 0.0000 -39.7388
v  57.7584 37.0996 -39.7388
v  57.7584 37.0996 -35.6760
v  53.7584 0.0000 -39.7388
v  53.7584 37.0996 -39.7388
v  53.7584 0.0000 -35.6760
v  53.7584 37.0996 -35.6760
v  -26.2741 13.5001 20.2575
v  -38.2741 13.5001 20.2575
v  -26.2741 13.5001 18.2575
v  -38.2741 13.5001 18.2575
v  -38.2741 29.5393 20.2575
v  -26.2741 29.5393 20.2575
v  -26.2741 29.5393 18.2575
v  -38.2741 29.5393 18.2575
# 242 vertices

vn 1.0000 0.0000 -0.0000
vn 0.0000 0.0000 -1.0000
vn -1.0000 0.0000 -0.0000
vn 0.0000 0.0000 1.0000
vn -0.0000 0.0000 1.0000
vn 0.0000 -0.0000 -1.0000
vn 0.0003 0.0000 1.0000
vn 0.0000 -1.0000 -0.0000
vn 0.0000 -1.0000 0.0000
vn -0.0000 -1.0000 0.0000
vn -0.0000 -1.0000 -0.0000
vn 0.0000 1.0000 -0.0000
# 12 vertex normals

g Shape004
usemtl 白墙
f 1//1 2//1 3//1 4//1 
f 2//2 5//2 6//2 3//2 
f 5//3 7//3 8//3 6//3 
f 7//4 1//4 4//4 8//4 
f 9//3 10//3 11//3 12//3 
f 10//4 13//4 14//4 11//4 
f 13//1 15//1 16//1 14//1 
f 15//2 9//2 12//2 16//2 
f 17//3 18//3 19//3 20//3 
f 18//4 21//4 22//4 19//4 
f 21//1 23//1 24//1 22//1 
f 23//2 17//2 20//2 24//2 
f 25//4 26//4 27//4 28//4 
f 26//1 29//1 30//1 27//1 
f 29//2 31//2 32//2 30//2 
f 31//3 25//3 28//3 32//3 
f 33//4 34//4 35//4 36//4 
f 34//1 37//1 38//1 35//1 
f 37//1 39//1 40//1 38//1 
f 39//4 41//4 42//4 40//4 
f 41//1 43//1 44//1 42//1 
f 43//2 45//2 46//2 44//2 
f 45//2 47//2 48//2 46//2 
f 47//2 49//2 50//2 48//2 
f 49//3 51//3 52//3 50//3 
f 51//4 53//4 54//4 52//4 
f 53//3 55//3 56//3 54//3 
f 55//2 57//2 58//2 56//2 
f 57//1 59//1 60//1 58//1 
f 59//4 61//4 62//4 60//4 
f 61//1 63//1 64//1 62//1 
f 63//2 65//2 66//2 64//2 
f 65//2 67//2 68//2 66//2 
f 67//3 69//3 70//3 68//3 
f 69//3 71//3 72//3 70//3 
f 71//2 73//2 74//2 72//2 
f 73//3 75//3 76//3 74//3 
f 75//4 77//4 78//4 76//4 
f 77//3 79//3 80//3 78//3 
f 79//2 81//2 82//2 80//2 
f 81//3 83//3 84//3 82//3 
f 83//4 85//4 86//4 84//4 
f 85//4 87//4 88//4 86//4 
f 87//3 89//3 90//3 88//3 
f 89//4 91//4 92//4 90//4 
f 91//1 93//1 94//1 92//1 
f 93//4 95//4 96//4 94//4 
f 95//1 97//1 98//1 96//1 
f 97//2 99//2 100//2 98//2 
f 99//1 101//1 102//1 100//1 
f 101//2 103//2 104//2 102//2 
f 103//3 105//3 106//3 104//3 
f 105//2 107//2 108//2 106//2 
f 107//1 109//1 110//1 108//1 
f 109//5 111//5 112//5 110//5 
f 111//3 113//3 114//3 112//3 
f 113//4 115//4 116//4 114//4 
f 115//1 117//1 118//1 116//1 
f 117//4 119//4 120//4 118//4 
f 119//4 121//4 122//4 120//4 
f 121//3 123//3 124//3 122//3 
f 123//2 125//2 126//2 124//2 
f 125//3 127//3 128//3 126//3 
f 127//4 129//4 130//4 128//4 
f 129//3 33//3 36//3 130//3 
f 131//1 132//1 133//1 134//1 
f 132//4 135//4 136//4 133//4 
f 135//1 137//1 138//1 136//1 
f 137//2 139//2 140//2 138//2 
f 139//3 141//3 142//3 140//3 
f 141//4 131//4 134//4 142//4 
f 143//1 144//1 145//1 146//1 
f 144//2 147//2 148//2 145//2 
f 147//3 149//3 150//3 148//3 
f 149//4 143//4 146//4 150//4 
f 151//2 152//2 153//2 154//2 
f 152//3 155//3 156//3 153//3 
f 155//4 157//4 158//4 156//4 
f 157//1 159//1 160//1 158//1 
f 159//4 161//4 162//4 160//4 
f 161//1 151//1 154//1 162//1 
f 163//4 164//4 165//4 166//4 
f 164//1 167//1 168//1 165//1 
f 167//2 169//2 170//2 168//2 
f 169//3 163//3 166//3 170//3 
f 171//2 172//2 173//2 174//2 
f 172//3 175//3 176//3 173//3 
f 175//4 177//4 178//4 176//4 
f 177//1 171//1 174//1 178//1 
f 179//1 180//1 181//1 182//1 
f 180//2 183//2 184//2 181//2 
f 183//3 185//3 186//3 184//3 
f 185//4 187//4 188//4 186//4 
f 187//1 189//1 190//1 188//1 
f 189//4 191//4 192//4 190//4 
f 191//1 193//1 194//1 192//1 
f 193//2 179//2 182//2 194//2 
f 195//2 196//2 197//2 198//2 
f 196//3 199//3 200//3 197//3 
f 199//4 201//4 202//4 200//4 
f 201//1 195//1 198//1 202//1 
f 203//4 204//4 205//4 206//4 
f 204//1 207//1 208//1 205//1 
f 207//2 209//2 210//2 208//2 
f 209//1 211//1 212//1 210//1 
f 211//6 213//6 214//6 212//6 
f 213//3 215//3 216//3 214//3 
f 215//2 217//2 218//2 216//2 
f 217//3 219//3 220//3 218//3 
f 219//4 221//4 222//4 220//4 
f 221//3 223//3 224//3 222//3 
f 223//7 225//7 226//7 224//7 
f 225//1 203//1 206//1 226//1 
f 5//8 2//8 1//8 7//8 
f 13//9 10//9 9//9 15//9 
f 21//8 18//8 17//8 23//8 
f 29//9 26//9 25//9 31//9 
f 73//8 71//8 77//8 75//8 
f 125//9 123//9 129//10 127//9 
f 113//8 111//8 117//8 115//8 
f 101//8 99//10 105//8 103//8 
f 95//9 93//9 99//10 97//9 
f 89//8 87//9 93//9 91//8 
f 87//9 105//8 99//10 93//9 
f 85//8 107//8 105//8 87//9 
f 81//8 79//8 85//8 83//8 
f 79//8 77//8 107//8 85//8 
f 77//8 71//8 109//8 107//8 
f 71//8 117//8 111//8 109//8 
f 71//8 57//8 119//8 117//8 
f 65//8 59//8 69//8 67//8 
f 61//8 59//8 65//8 63//8 
f 59//8 57//8 71//8 69//8 
f 57//8 55//8 121//9 119//8 
f 49//8 47//8 53//8 51//8 
f 41//8 39//8 45//8 43//8 
f 39//8 53//8 47//8 45//8 
f 37//9 55//8 53//8 39//8 
f 37//9 34//9 121//9 55//8 
f 34//9 129//10 123//9 121//9 
f 34//9 33//8 129//10 
f 139//11 132//11 131//11 141//8 
f 137//8 135//8 132//11 139//11 
f 147//8 144//8 143//8 149//8 
f 159//11 152//11 151//8 161//8 
f 159//11 157//8 155//11 152//11 
f 167//8 164//8 163//8 169//8 
f 175//9 172//9 171//9 177//9 
f 191//9 189//10 179//10 193//9 
f 185//9 183//10 189//10 187//8 
f 183//10 180//8 179//10 189//10 
f 199//8 196//8 195//8 201//8 
f 221//11 203//11 225//8 223//8 
f 217//8 215//11 221//11 219//8 
f 215//11 213//9 203//11 221//11 
f 209//8 203//11 213//9 211//9 
f 207//8 204//8 203//11 209//8 
f 6//12 8//12 4//12 3//12 
f 14//12 16//12 12//12 11//12 
f 22//12 24//12 20//12 19//12 
f 30//12 32//12 28//12 27//12 
f 74//12 76//12 78//12 72//12 
f 126//12 128//12 130//12 124//12 
f 114//12 116//12 118//12 112//12 
f 102//12 104//12 106//12 100//12 
f 96//12 98//12 100//12 94//12 
f 90//12 92//12 94//12 88//12 
f 88//12 94//12 100//12 106//12 
f 86//12 88//12 106//12 108//12 
f 82//12 84//12 86//12 80//12 
f 80//12 86//12 108//12 78//12 
f 78//12 108//12 110//12 72//12 
f 72//12 110//12 112//12 118//12 
f 72//12 118//12 120//12 58//12 
f 66//12 68//12 70//12 60//12 
f 62//12 64//12 66//12 60//12 
f 60//12 70//12 72//12 58//12 
f 58//12 120//12 122//12 56//12 
f 50//12 52//12 54//12 48//12 
f 42//12 44//12 46//12 40//12 
f 40//12 46//12 48//12 54//12 
f 38//12 40//12 54//12 56//12 
f 38//12 56//12 122//12 35//12 
f 35//12 122//12 124//12 130//12 
f 35//12 130//12 36//12 
f 140//12 142//12 134//12 133//12 
f 138//12 140//12 133//12 136//12 
f 148//12 150//12 146//12 145//12 
f 160//12 162//12 154//12 153//12 
f 160//12 153//12 156//12 158//12 
f 168//12 170//12 166//12 165//12 
f 176//12 178//12 174//12 173//12 
f 192//12 194//12 182//12 190//12 
f 186//12 188//12 190//12 184//12 
f 184//12 190//12 182//12 181//12 
f 200//12 202//12 198//12 197//12 
f 222//12 224//12 226//12 206//12 
f 218//12 220//12 222//12 216//12 
f 216//12 222//12 206//12 214//12 
f 210//12 212//12 214//12 206//12 
f 208//12 210//12 206//12 205//12 
f 227//1 228//1 229//1 230//1 
f 228//2 231//2 232//2 229//2 
f 231//3 233//3 234//3 232//3 
f 233//4 227//4 230//4 234//4 
f 231//8 228//8 227//8 233//8 
f 232//12 234//12 230//12 229//12 
f 26//4 127//4 235//4 236//4 
f 127//1 125//1 237//1 235//1 
f 125//2 29//2 238//2 237//2 
f 29//3 26//3 236//3 238//3 
f 125//9 127//9 26//9 29//9 
f 237//12 238//12 236//12 235//12 
f 239//4 240//4 128//4 27//4 
f 240//1 241//1 126//1 128//1 
f 241//2 242//2 30//2 126//2 
f 242//3 239//3 27//3 30//3 
f 241//8 240//8 239//8 242//8 
f 126//12 30//12 27//12 128//12 
# 217 polygons - 2 triangles

