# 3ds Max Wavefront OBJ Exporter v0.97b - (c)2007 guruware
# 创建的文件:20.05.2018 00:07:25

mtllib gd2.mtl

#
# object Line009
#

v  -21.2415 38.0996 31.2631
v  -19.2415 38.0996 31.2631
v  -19.2415 63.6774 31.2631
v  -21.2415 63.6774 31.2631
v  -19.2415 38.0996 -35.7382
v  -19.2415 63.6774 -35.7382
v  -14.2415 38.0996 -35.7382
v  -14.2415 63.6774 -35.7382
v  -14.2415 38.0996 -37.7382
v  -14.2415 63.6774 -37.7382
v  -25.7415 38.0996 -37.7382
v  -25.7415 63.6774 -37.7382
v  -25.7415 38.0996 -35.7382
v  -25.7415 63.6774 -35.7382
v  -21.2415 38.0996 -35.7382
v  -21.2415 63.6774 -35.7382
v  -21.2415 38.0996 -17.7382
v  -21.2415 63.6774 -17.7382
v  -40.2415 38.0996 -17.7382
v  -40.2415 63.6774 -17.7382
v  -40.2415 38.0996 -35.7382
v  -40.2415 63.6774 -35.7382
v  -35.7415 38.0996 -35.7382
v  -35.7415 63.6774 -35.7382
v  -35.7415 38.0996 -37.7382
v  -35.7415 63.6774 -37.7382
v  -42.2415 38.0996 -37.7382
v  -42.2415 63.6774 -37.7382
v  -42.2415 38.0996 -17.7382
v  -42.2415 63.6774 -17.7382
v  -44.3890 38.0996 -17.7382
v  -44.3890 63.6774 -17.7382
v  -44.3890 38.0996 -15.7382
v  -44.3890 63.6774 -15.7382
v  -42.2415 38.0996 -15.7382
v  -42.2415 63.6774 -15.7382
v  -42.2415 38.0996 -14.7069
v  -42.2415 63.6774 -14.7069
v  -40.2415 38.0996 -14.7069
v  -40.2415 63.6774 -14.7069
v  -40.2415 38.0996 -15.7382
v  -40.2415 63.6774 -15.7382
v  -21.2415 38.0996 -15.7382
v  -21.2415 63.6774 -15.7382
v  -21.2415 38.0996 -1.7382
v  -21.2415 63.6774 -1.7382
v  -40.2415 38.0996 -1.7382
v  -40.2415 63.6774 -1.7382
v  -40.2415 38.0996 -5.7069
v  -40.2415 63.6774 -5.7069
v  -42.2415 38.0996 -5.7069
v  -42.2415 63.6774 -5.7069
v  -42.2415 38.0996 0.2612
v  -42.2415 63.6774 0.2612
v  -21.2415 38.0996 0.2612
v  -21.2415 63.6774 0.2612
v  -67.2415 38.0996 -76.7388
v  -69.2415 38.0996 -76.7388
v  -69.2415 63.6774 -76.7388
v  -67.2415 63.6774 -76.7388
v  -69.2415 38.0996 -46.7241
v  -69.2415 63.6774 -46.7241
v  -67.2415 38.0996 -46.7241
v  -67.2415 63.6774 -46.7241
v  -57.3290 38.0996 -49.7382
v  -56.2415 38.0996 -49.7382
v  -56.2415 63.6774 -49.7382
v  -57.3290 63.6774 -49.7382
v  -56.2415 38.0996 -48.3607
v  -56.2415 63.6774 -48.3607
v  -54.2415 38.0996 -48.3607
v  -54.2415 63.6774 -48.3607
v  -54.2415 38.0996 -49.7382
v  -54.2415 63.6774 -49.7382
v  -42.2415 38.0996 -49.7382
v  -42.2415 63.6774 -49.7382
v  -42.2415 38.0996 -51.7382
v  -42.2415 63.6774 -51.7382
v  -57.3290 38.0996 -51.7382
v  -57.3290 63.6774 -51.7382
v  -96.2415 38.0996 -34.7382
v  -69.2415 38.0996 -34.7382
v  -69.2415 63.6774 -34.7382
v  -96.2415 63.6774 -34.7382
v  -69.2415 38.0996 -36.7382
v  -69.2415 63.6774 -36.7382
v  -96.2415 38.0996 -36.7382
v  -96.2415 63.6774 -36.7382
v  -96.2415 38.0996 -17.7388
v  -96.2415 38.0996 -15.7382
v  -96.2415 63.6774 -15.7382
v  -96.2415 63.6774 -17.7388
v  -66.1815 38.0996 -15.7382
v  -66.1815 63.6774 -15.7382
v  -66.1815 38.0996 -17.7382
v  -66.1815 63.6774 -17.7382
v  -67.2415 38.0996 -17.7382
v  -67.2415 63.6774 -17.7382
v  -67.2415 38.0996 -24.8078
v  -67.2415 63.6774 -24.8078
v  -69.2415 38.0996 -24.8078
v  -69.2415 63.6774 -24.8078
v  -69.2415 38.0996 -17.7382
v  -69.2415 63.6774 -17.7382
v  -56.2415 38.0996 36.2618
v  -54.2415 38.0996 36.2618
v  -54.2415 63.6774 36.2618
v  -56.2415 63.6774 36.2618
v  -54.2415 38.0996 -15.7382
v  -54.2415 63.6774 -15.7382
v  -53.3890 38.0996 -15.7382
v  -53.3890 63.6774 -15.7382
v  -53.3890 38.0996 -17.7382
v  -53.3890 63.6774 -17.7382
v  -54.2415 38.0996 -17.7382
v  -54.2415 63.6774 -17.7382
v  -54.2415 38.0996 -39.3607
v  -54.2415 63.6774 -39.3607
v  -56.2115 38.0996 -39.3607
v  -56.2115 63.6774 -39.3607
v  -56.2115 38.0996 -17.7382
v  -56.2115 63.6774 -17.7382
v  -57.1815 38.0996 -17.7382
v  -57.1815 63.6774 -17.7382
v  -57.1815 38.0996 -15.7382
v  -57.1815 63.6774 -15.7382
v  -56.2415 38.0996 -15.7382
v  -56.2415 63.6774 -15.7382
v  81.7585 38.0996 -71.7382
v  81.7585 38.0996 -25.2419
v  81.7585 63.6774 -25.2419
v  81.7585 63.6774 -71.7382
v  83.7585 38.0996 -25.2419
v  83.7585 63.6774 -25.2419
v  83.7585 38.0996 -36.7857
v  83.7585 63.6774 -36.7857
v  84.9185 38.0996 -36.7857
v  84.9185 63.6774 -36.7857
v  84.9185 38.0996 -38.7857
v  84.9185 63.6774 -38.7857
v  83.7585 38.0996 -38.7857
v  83.7585 63.6774 -38.7857
v  83.7585 38.0996 -71.7382
v  83.7585 63.6774 -71.7382
v  95.7585 38.0996 -36.7857
v  95.7585 38.0996 -33.9857
v  95.7585 63.6774 -33.9857
v  95.7585 63.6774 -36.7857
v  97.7585 38.0996 -33.9857
v  97.7585 63.6774 -33.9857
v  97.7585 38.0996 -36.7132
v  97.7585 63.6774 -36.7132
v  126.7585 38.0996 -36.7132
v  126.7585 63.6774 -36.7132
v  126.7585 38.0996 -38.7857
v  126.7585 63.6774 -38.7857
v  93.9185 38.0996 -38.7857
v  93.9185 63.6774 -38.7857
v  93.9185 38.0996 -36.7857
v  93.9185 63.6774 -36.7857
v  95.7585 38.0996 -24.9885
v  95.7585 38.0996 -11.4619
v  95.7585 63.6774 -11.4619
v  95.7585 63.6774 -24.9885
v  97.7585 38.0996 -11.4619
v  97.7585 63.6774 -11.4619
v  97.7585 38.0996 -16.7425
v  97.7585 63.6774 -16.7425
v  126.7585 38.0996 -16.7425
v  126.7585 63.6774 -16.7425
v  126.7585 38.0996 -18.7432
v  126.7585 63.6774 -18.7432
v  97.7585 38.0996 -18.7432
v  97.7585 63.6774 -18.7432
v  97.7585 38.0996 -24.9885
v  97.7585 63.6774 -24.9885
v  95.7585 38.0996 -2.4619
v  95.7585 38.0996 1.2618
v  95.7585 63.6774 1.2618
v  95.7585 63.6774 -2.4619
v  93.7585 38.0996 1.2618
v  93.7585 63.6774 1.2618
v  93.7585 38.0996 3.2618
v  93.7585 63.6774 3.2618
v  126.7585 38.0996 3.2618
v  126.7585 63.6774 3.2618
v  126.7585 38.0996 1.2618
v  126.7585 63.6774 1.2618
v  97.7585 38.0996 1.2618
v  97.7585 63.6774 1.2618
v  97.7585 38.0996 -2.4619
v  97.7585 63.6774 -2.4619
v  81.7585 38.0996 -16.2419
v  81.7585 38.0996 31.2618
v  81.7585 63.6774 31.2618
v  81.7585 63.6774 -16.2419
v  83.7585 38.0996 31.2618
v  83.7585 63.6774 31.2618
v  83.7585 38.0996 3.2618
v  83.7585 63.6774 3.2618
v  84.7585 38.0996 3.2618
v  84.7585 63.6774 3.2618
v  84.7585 38.0996 1.2618
v  84.7585 63.6774 1.2618
v  83.7585 38.0996 1.2618
v  83.7585 63.6774 1.2618
v  83.7585 38.0996 -16.2419
v  83.7585 63.6774 -16.2419
v  -69.2415 38.0996 -37.7269
v  -69.2415 38.0996 -33.8050
v  -69.2415 63.6774 -33.8050
v  -69.2415 63.6774 -37.7269
v  -67.2415 38.0996 -33.8050
v  -67.2415 63.6774 -33.8050
v  -67.2415 38.0996 -37.7269
v  -67.2415 63.6774 -37.7269
# 216 vertices

vn 0.0000 0.0000 1.0000
vn 1.0000 0.0000 -0.0000
vn 0.0000 0.0000 -1.0000
vn -1.0000 0.0000 -0.0000
vn 1.0000 0.0000 0.0000
vn 0.0000 -1.0000 -0.0000
vn 0.0000 1.0000 -0.0000
# 7 vertex normals

g Line009
usemtl 墙
f 1//1 2//1 3//1 4//1 
f 2//2 5//2 6//2 3//2 
f 5//1 7//1 8//1 6//1 
f 7//2 9//2 10//2 8//2 
f 9//3 11//3 12//3 10//3 
f 11//4 13//4 14//4 12//4 
f 13//1 15//1 16//1 14//1 
f 15//4 17//4 18//4 16//4 
f 17//3 19//3 20//3 18//3 
f 19//2 21//2 22//2 20//2 
f 21//1 23//1 24//1 22//1 
f 23//2 25//2 26//2 24//2 
f 25//3 27//3 28//3 26//3 
f 27//4 29//4 30//4 28//4 
f 29//3 31//3 32//3 30//3 
f 31//4 33//4 34//4 32//4 
f 33//1 35//1 36//1 34//1 
f 35//4 37//4 38//4 36//4 
f 37//1 39//1 40//1 38//1 
f 39//2 41//2 42//2 40//2 
f 41//1 43//1 44//1 42//1 
f 43//4 45//4 46//4 44//4 
f 45//3 47//3 48//3 46//3 
f 47//2 49//2 50//2 48//2 
f 49//3 51//3 52//3 50//3 
f 51//4 53//4 54//4 52//4 
f 53//1 55//1 56//1 54//1 
f 55//4 1//4 4//4 56//4 
f 57//3 58//3 59//3 60//3 
f 58//4 61//4 62//4 59//4 
f 61//1 63//1 64//1 62//1 
f 63//2 57//2 60//2 64//2 
f 65//1 66//1 67//1 68//1 
f 66//4 69//4 70//4 67//4 
f 69//1 71//1 72//1 70//1 
f 71//2 73//2 74//2 72//2 
f 73//1 75//1 76//1 74//1 
f 75//2 77//2 78//2 76//2 
f 77//3 79//3 80//3 78//3 
f 79//4 65//4 68//4 80//4 
f 81//1 82//1 83//1 84//1 
f 82//2 85//2 86//2 83//2 
f 85//3 87//3 88//3 86//3 
f 87//4 81//4 84//4 88//4 
f 89//4 90//4 91//4 92//4 
f 90//1 93//1 94//1 91//1 
f 93//2 95//2 96//2 94//2 
f 95//3 97//3 98//3 96//3 
f 97//2 99//2 100//2 98//2 
f 99//3 101//3 102//3 100//3 
f 101//4 103//4 104//4 102//4 
f 103//3 89//3 92//3 104//3 
f 105//1 106//1 107//1 108//1 
f 106//2 109//2 110//2 107//2 
f 109//1 111//1 112//1 110//1 
f 111//2 113//2 114//2 112//2 
f 113//3 115//3 116//3 114//3 
f 115//2 117//2 118//2 116//2 
f 117//3 119//3 120//3 118//3 
f 119//4 121//4 122//4 120//4 
f 121//3 123//3 124//3 122//3 
f 123//4 125//4 126//4 124//4 
f 125//1 127//1 128//1 126//1 
f 127//4 105//4 108//4 128//4 
f 129//4 130//4 131//4 132//4 
f 130//1 133//1 134//1 131//1 
f 133//2 135//2 136//2 134//2 
f 135//1 137//1 138//1 136//1 
f 137//2 139//2 140//2 138//2 
f 139//3 141//3 142//3 140//3 
f 141//2 143//2 144//2 142//2 
f 143//3 129//3 132//3 144//3 
f 145//4 146//4 147//4 148//4 
f 146//1 149//1 150//1 147//1 
f 149//2 151//2 152//2 150//2 
f 151//1 153//1 154//1 152//1 
f 153//2 155//2 156//2 154//2 
f 155//3 157//3 158//3 156//3 
f 157//4 159//4 160//4 158//4 
f 159//1 145//1 148//1 160//1 
f 161//4 162//4 163//4 164//4 
f 162//1 165//1 166//1 163//1 
f 165//2 167//2 168//2 166//2 
f 167//1 169//1 170//1 168//1 
f 169//2 171//2 172//2 170//2 
f 171//3 173//3 174//3 172//3 
f 173//2 175//2 176//2 174//2 
f 175//3 161//3 164//3 176//3 
f 177//4 178//4 179//4 180//4 
f 178//3 181//3 182//3 179//3 
f 181//4 183//4 184//4 182//4 
f 183//1 185//1 186//1 184//1 
f 185//2 187//2 188//2 186//2 
f 187//3 189//3 190//3 188//3 
f 189//2 191//2 192//2 190//2 
f 191//3 177//3 180//3 192//3 
f 193//4 194//4 195//4 196//4 
f 194//1 197//1 198//1 195//1 
f 197//2 199//2 200//2 198//2 
f 199//1 201//1 202//1 200//1 
f 201//2 203//2 204//2 202//2 
f 203//3 205//3 206//3 204//3 
f 205//2 207//2 208//2 206//2 
f 207//3 193//3 196//3 208//3 
f 209//4 210//4 211//4 212//4 
f 210//1 213//1 214//1 211//1 
f 213//5 215//5 216//5 214//5 
f 215//3 209//3 212//3 216//3 
f 49//6 47//6 53//6 51//6 
f 47//6 45//6 55//6 53//6 
f 37//6 35//6 41//6 39//6 
f 31//6 29//6 35//6 33//6 
f 29//6 19//6 41//6 35//6 
f 23//6 21//6 27//6 25//6 
f 21//6 19//6 29//6 27//6 
f 17//6 43//6 41//6 19//6 
f 11//6 9//6 15//6 13//6 
f 5//6 15//6 9//6 7//6 
f 2//6 17//6 15//6 5//6 
f 2//6 45//6 43//6 17//6 
f 2//6 1//6 55//6 45//6 
f 61//6 58//6 57//6 63//6 
f 77//6 66//6 65//6 79//6 
f 73//6 66//6 77//6 75//6 
f 71//6 69//6 66//6 73//6 
f 85//6 82//6 81//6 87//6 
f 103//6 93//6 90//6 89//6 
f 99//6 97//6 103//6 101//6 
f 97//6 95//6 93//6 103//6 
f 123//6 121//6 127//6 125//6 
f 117//6 115//6 121//6 119//6 
f 111//6 109//6 115//6 113//6 
f 109//6 127//6 121//6 115//6 
f 106//6 105//6 127//6 109//6 
f 141//6 130//6 129//6 143//6 
f 137//6 135//6 141//6 139//6 
f 135//6 133//6 130//6 141//6 
f 157//6 155//6 145//6 159//6 
f 153//6 151//6 145//6 155//6 
f 151//6 149//6 146//6 145//6 
f 173//6 162//6 161//6 175//6 
f 169//6 167//6 173//6 171//6 
f 167//6 165//6 162//6 173//6 
f 189//6 178//6 177//6 191//6 
f 185//6 183//6 189//6 187//6 
f 183//6 181//6 178//6 189//6 
f 205//6 194//6 193//6 207//6 
f 201//6 199//6 205//6 203//6 
f 199//6 197//6 194//6 205//6 
f 213//6 210//6 209//6 215//6 
f 50//7 52//7 54//7 48//7 
f 48//7 54//7 56//7 46//7 
f 38//7 40//7 42//7 36//7 
f 32//7 34//7 36//7 30//7 
f 30//7 36//7 42//7 20//7 
f 24//7 26//7 28//7 22//7 
f 22//7 28//7 30//7 20//7 
f 18//7 20//7 42//7 44//7 
f 12//7 14//7 16//7 10//7 
f 6//7 8//7 10//7 16//7 
f 3//7 6//7 16//7 18//7 
f 3//7 18//7 44//7 46//7 
f 3//7 46//7 56//7 4//7 
f 62//7 64//7 60//7 59//7 
f 78//7 80//7 68//7 67//7 
f 74//7 76//7 78//7 67//7 
f 72//7 74//7 67//7 70//7 
f 86//7 88//7 84//7 83//7 
f 104//7 92//7 91//7 94//7 
f 100//7 102//7 104//7 98//7 
f 98//7 104//7 94//7 96//7 
f 124//7 126//7 128//7 122//7 
f 118//7 120//7 122//7 116//7 
f 112//7 114//7 116//7 110//7 
f 110//7 116//7 122//7 128//7 
f 107//7 110//7 128//7 108//7 
f 142//7 144//7 132//7 131//7 
f 138//7 140//7 142//7 136//7 
f 136//7 142//7 131//7 134//7 
f 158//7 160//7 148//7 156//7 
f 154//7 156//7 148//7 152//7 
f 152//7 148//7 147//7 150//7 
f 174//7 176//7 164//7 163//7 
f 170//7 172//7 174//7 168//7 
f 168//7 174//7 163//7 166//7 
f 190//7 192//7 180//7 179//7 
f 186//7 188//7 190//7 184//7 
f 184//7 190//7 179//7 182//7 
f 206//7 208//7 196//7 195//7 
f 202//7 204//7 206//7 200//7 
f 200//7 206//7 195//7 198//7 
f 214//7 216//7 212//7 211//7 
# 192 polygons

