# 3ds Max Wavefront OBJ Exporter v0.97b - (c)2007 guruware
# 创建的文件:22.05.2018 14:15:55

mtllib wq0.mtl

#
# object a
#

v  -6616.9829 1306.5308 3831.0586
v  -8630.0029 1306.5308 3831.0586
v  -8630.0029 1306.5308 3631.0586
v  -6616.9829 1306.5308 3631.0586
v  -6616.9829 1662.7307 3631.0586
v  -8630.0029 1662.7307 3631.0586
v  -8630.0029 1662.7307 3831.0586
v  -6616.9829 1662.7307 3831.0586
v  -2124.1531 1306.5308 3631.0586
v  -2124.1531 1662.7307 3631.0586
v  -2124.1531 1662.7307 3831.0586
v  -2124.1531 1306.5308 3831.0586
v  -2717.3530 1662.7307 3631.0586
v  -2717.3530 1306.5308 3631.0586
v  -9824.1533 1306.5308 3831.0586
v  -9824.1533 1662.7307 3831.0586
v  -9824.1533 1662.7307 3631.0586
v  -9824.1533 1306.5308 3631.0586
v  -2717.3530 1306.5308 3831.0586
v  -2124.1531 9350.0010 3631.0586
v  -2717.3530 9350.0010 3631.0586
v  -2717.3530 9350.0010 3831.0586
v  -2124.1531 9350.0010 3831.0586
v  -2717.3530 1662.7307 3831.0586
v  -4732.2129 1662.7307 3631.0586
v  -4732.2129 1306.5308 3631.0586
v  -2124.1531 6215.8906 3831.0586
v  -2124.1531 4426.4307 3831.0586
v  -2124.1531 4426.4307 3631.0586
v  -2124.1531 6215.8906 3631.0586
v  -2717.3530 4426.4307 3631.0586
v  -2717.3530 6215.8906 3631.0586
v  -2717.3530 4426.4307 3831.0586
v  -2717.3530 6215.8906 3831.0586
v  -4732.2129 1306.5308 3831.0586
v  -4732.2129 1662.7307 3831.0586
v  -4732.2129 9349.3506 3631.0684
v  -6616.9829 9349.3506 3631.0684
v  -6616.9829 9349.3506 3831.0684
v  -4732.2129 9349.3506 3831.0684
v  -9257.1729 9349.3506 3831.0684
v  -8630.0029 9349.3506 3831.0684
v  -8630.0029 9349.3506 3631.0684
v  -9257.1729 9349.3506 3631.0684
v  -9824.1631 8632.1807 3831.0586
v  -9824.1631 8632.1807 3631.0586
v  -2124.1531 9016.2012 3831.0586
v  -2124.1531 7223.7109 3831.0586
v  -2124.1531 7223.7109 3631.0586
v  -2124.1531 9016.2012 3631.0586
v  -2124.1531 3451.2805 3631.0586
v  -2124.1531 3451.2805 3831.0586
v  -2717.3530 7223.7109 3631.0586
v  -2717.3530 9016.2012 3631.0586
v  -2717.3530 3451.2805 3631.0586
v  -2717.3530 7223.7109 3831.0586
v  -2717.3530 9016.2012 3831.0586
v  -4733.9326 7223.7109 3631.0486
v  -4733.9326 6215.8906 3631.0486
v  -4733.9326 6215.8906 3831.0486
v  -4733.9326 7223.7109 3831.0486
v  -2717.3530 3451.2805 3831.0586
v  -4733.9326 3451.2805 3831.0486
v  -4733.9326 4426.4307 3831.0486
v  -4733.9326 4426.4307 3631.0486
v  -4733.9326 3451.2805 3631.0486
v  -4733.9326 9350.0010 3631.0486
v  -4733.9326 9016.2109 3631.0486
v  -4733.9326 9016.2109 3831.0486
v  -4733.9326 9350.0010 3831.0486
v  -6614.7031 3451.2805 3631.0586
v  -8631.2822 3451.2805 3631.0486
v  -8631.2822 4426.4307 3631.0486
v  -6614.7031 4426.4307 3631.0586
v  -6614.7031 3451.2805 3831.0586
v  -8631.2822 3451.2805 3831.0486
v  -6614.7031 4426.4307 3831.0586
v  -8631.2822 4426.4307 3831.0486
v  -6614.7031 6215.8906 3631.0586
v  -8631.2822 6215.8906 3631.0486
v  -8631.2822 7223.7109 3631.0486
v  -6614.7031 7223.7109 3631.0586
v  -6614.7031 6215.8906 3831.0586
v  -8631.2822 6215.8906 3831.0486
v  -6614.7031 7223.7109 3831.0586
v  -8631.2822 7223.7109 3831.0486
v  -6614.7031 9350.0010 3631.0586
v  -8631.2822 9350.0010 3631.0486
v  -8631.2822 9350.0010 3831.0486
v  -6614.7031 9350.0010 3831.0586
v  -6614.7031 9016.2012 3631.0586
v  -8631.2822 9016.2109 3631.0486
v  -6614.7031 9016.2012 3831.0586
v  -8631.2822 9016.2109 3831.0486
# 94 vertices

vn 0.0000 -1.0000 -0.0000
vn 0.0000 1.0000 -0.0000
vn 0.0000 0.0000 1.0000
vn 1.0000 0.0000 -0.0000
vn 0.0000 0.0000 -1.0000
vn -1.0000 0.0000 -0.0000
vn -0.7845 0.6202 -0.0000
# 7 vertex normals

vt 0.7500 0.0000 0.0000
vt 0.8750 0.0000 0.0000
vt 0.8750 1.0000 0.0000
vt 0.7500 1.0000 0.0000
vt 0.2500 1.0000 0.0000
vt 0.1250 1.0000 0.0000
vt 0.1250 0.0000 0.0000
vt 0.2500 0.0000 0.0000
vt 1.0000 0.0000 0.0000
vt 1.0000 1.0000 0.0000
vt 0.0000 1.0000 0.0000
vt 0.0000 0.0000 0.0000
vt 0.5000 1.0000 0.0000
vt 0.5000 0.0000 0.0000
vt 0.6250 1.0000 0.0000
vt 0.6250 0.0000 0.0000
vt 0.3750 1.0000 0.0000
vt 0.3750 0.0000 0.0000
vt 0.0608 0.0000 0.0000
vt 0.0608 1.0000 0.0000
# 20 texture coords

g a
usemtl _Rectangle001墙e0
s 1
f 1/1/1 2/2/1 3/3/1 4/4/1 
f 5/5/2 6/6/2 7/7/2 8/8/2 
f 8/5/3 7/6/3 2/7/3 1/8/3 
f 9/9/4 10/10/4 11/11/4 12/12/4 
f 13/13/5 10/11/5 9/12/5 14/14/5 
f 15/9/6 16/10/6 17/11/6 18/12/6 
f 12/12/1 19/14/1 14/13/1 9/11/1 
f 20/10/2 21/13/2 22/14/2 23/9/2 
f 11/10/3 24/13/3 19/14/3 12/9/3 
f 5/4/5 25/15/5 26/16/5 4/1/5 
f 27/9/4 28/9/4 29/10/4 30/10/4 
f 30/10/5 29/10/5 31/13/5 32/13/5 
f 32/13/6 31/13/6 33/14/6 34/14/6 
f 34/14/3 33/14/3 28/9/3 27/9/3 
f 19/14/1 35/16/1 26/15/1 14/13/1 
f 35/16/1 1/1/1 4/4/1 26/15/1 
f 18/10/1 3/3/1 2/2/1 15/9/1 
f 13/13/2 25/17/2 36/18/2 24/14/2 
f 37/17/2 38/5/2 39/8/2 40/18/2 
f 41/19/2 42/7/2 43/6/2 44/20/2 
f 24/13/3 36/17/3 35/18/3 19/14/3 
f 36/17/3 8/5/3 1/8/3 35/18/3 
f 15/12/3 2/7/3 7/6/3 16/11/3 
f 17/10/5 6/3/5 3/2/5 18/9/5 
f 6/3/5 5/4/5 4/1/5 3/2/5 
f 14/14/5 26/16/5 25/15/5 13/13/5 
f 36/18/3 40/18/3 39/8/3 8/8/3 
f 25/17/4 37/17/4 40/18/4 36/18/4 
f 5/5/5 38/5/5 37/17/5 25/17/5 
f 8/8/6 39/8/6 38/5/6 5/5/6 
f 7/7/3 42/7/3 45/12/3 16/12/3 
f 42/7/3 41/19/3 45/12/3 
f 6/6/4 43/6/4 42/7/4 7/7/4 
f 46/11/5 44/20/5 6/6/5 17/11/5 
f 6/6/5 44/20/5 43/6/5 
f 16/12/6 45/12/6 46/11/6 17/11/6 
f 47/9/4 48/9/4 49/10/4 50/10/4 
f 48/9/4 27/9/4 30/10/4 49/10/4 
f 10/10/4 51/10/4 52/9/4 11/9/4 
f 51/10/4 29/10/4 28/9/4 52/9/4 
f 50/10/5 49/10/5 53/13/5 54/13/5 
f 49/10/5 30/10/5 32/13/5 53/13/5 
f 13/13/5 55/13/5 51/10/5 10/10/5 
f 55/13/5 31/13/5 29/10/5 51/10/5 
f 54/13/6 53/13/6 56/14/6 57/14/6 
f 58/13/6 59/13/6 60/14/6 61/14/6 
f 24/14/6 62/14/6 55/13/6 13/13/6 
f 63/14/6 64/14/6 65/13/6 66/13/6 
f 57/14/3 56/14/3 48/9/3 47/9/3 
f 48/9/3 56/14/3 34/14/3 27/9/3 
f 11/9/3 52/9/3 62/14/3 24/14/3 
f 52/9/3 28/9/3 33/14/3 62/14/3 
f 55/13/5 66/13/5 65/13/5 31/13/5 
f 62/14/1 63/14/1 66/13/1 55/13/1 
f 33/14/3 64/14/3 63/14/3 62/14/3 
f 31/13/2 65/13/2 64/14/2 33/14/2 
f 32/13/5 59/13/5 58/13/5 53/13/5 
f 34/14/1 60/14/1 59/13/1 32/13/1 
f 56/14/3 61/14/3 60/14/3 34/14/3 
f 53/13/2 58/13/2 61/14/2 56/14/2 
f 23/9/4 47/9/4 50/10/4 20/10/4 
f 20/10/5 50/10/5 54/13/5 21/13/5 
f 67/13/6 68/13/6 69/14/6 70/14/6 
f 22/14/3 57/14/3 47/9/3 23/9/3 
f 21/13/2 67/13/2 70/14/2 22/14/2 
f 54/13/5 68/13/5 67/13/5 21/13/5 
f 57/14/1 69/14/1 68/13/1 54/13/1 
f 22/14/3 70/14/3 69/14/3 57/14/3 
f 71/13/5 72/13/5 73/13/5 74/13/5 
f 75/14/1 76/14/1 72/13/1 71/13/1 
f 77/14/3 78/14/3 76/14/3 75/14/3 
f 74/13/2 73/13/2 78/14/2 77/14/2 
f 79/13/5 80/13/5 81/13/5 82/13/5 
f 83/14/1 84/14/1 80/13/1 79/13/1 
f 85/14/3 86/14/3 84/14/3 83/14/3 
f 82/13/2 81/13/2 86/14/2 85/14/2 
f 87/13/2 88/13/2 89/14/2 90/14/2 
f 91/13/5 92/13/5 88/13/5 87/13/5 
f 93/14/1 94/14/1 92/13/1 91/13/1 
f 90/14/3 89/14/3 94/14/3 93/14/3 
f 46/11/7 45/12/7 41/19/7 44/20/7 
# 79 polygons - 2 triangles

