# 3ds Max Wavefront OBJ Exporter v0.97b - (c)2007 guruware
# 创建的文件:19.05.2018 21:48:33

mtllib wq10.mtl

#
# object Rectangle222
#

v  81.7584 93.4999 -28.2462
v  128.7584 93.4999 -28.2462
v  128.7584 93.4999 -30.2462
v  81.7584 93.4999 -30.2462
v  128.7584 63.6773 -28.2462
v  128.7584 63.6773 -30.2462
v  81.7584 63.6773 -28.2462
v  81.7584 63.6773 -30.2462
v  97.6445 76.1953 -28.2462
v  112.8724 76.1953 -28.2462
v  112.8724 76.1953 -30.2462
v  97.6445 76.1953 -30.2462
v  112.8723 91.0606 -28.2462
v  112.8723 91.0606 -30.2462
v  97.6446 91.0606 -28.2462
v  97.6446 91.0606 -30.2462
# 16 vertices

vn 0.0000 1.0000 -0.0000
vn 1.0000 0.0000 0.0000
vn -0.0000 -1.0000 0.0000
vn -1.0000 0.0000 -0.0000
vn -0.0000 1.0000 -0.0000
vn -1.0000 -0.0000 -0.0000
vn 0.0000 -1.0000 0.0000
vn 1.0000 -0.0000 0.0000
vn -0.0000 0.0000 1.0000
vn -0.0000 -0.0000 1.0000
vn 0.0000 -0.0000 -1.0000
vn 0.0000 0.0000 -1.0000
# 12 vertex normals

g Rectangle222
usemtl 墙e0
f 1//1 2//1 3//1 4//1 
f 2//2 5//2 6//2 3//2 
f 5//3 7//3 8//3 6//3 
f 7//4 1//4 4//4 8//4 
f 9//5 10//5 11//5 12//5 
f 10//6 13//6 14//6 11//6 
f 13//7 15//7 16//7 14//7 
f 15//8 9//8 12//8 16//8 
f 7//9 5//10 9//9 1//10 
f 5//10 2//9 10//10 9//9 
f 15//10 2//9 1//10 9//9 
f 13//9 10//10 2//9 15//10 
f 8//11 4//12 16//12 12//11 
f 6//12 8//11 12//11 11//12 
f 16//12 4//12 3//11 14//11 
f 3//11 6//12 11//12 14//11 
# 16 polygons

