# 3ds Max Wavefront OBJ Exporter v0.97b - (c)2007 guruware
# 创建的文件:19.05.2018 21:58:04

mtllib wq11.mtl

#
# object Rectangle226
#

v  -36.3867 96.2141 -31.0919
v  -89.5443 96.2141 -31.0919
v  -89.5443 96.2141 -29.0919
v  -36.3867 96.2141 -29.0919
v  -98.2415 85.2782 -31.0919
v  -98.2415 85.2782 -29.0919
v  -98.2415 66.6952 -31.0919
v  -98.2415 66.6952 -29.0919
v  -36.3867 66.6952 -31.0919
v  -36.3867 66.6952 -29.0919
v  -59.9422 91.0606 -31.0919
v  -59.9422 76.1953 -31.0919
v  -59.9422 76.1953 -29.0919
v  -59.9422 91.0606 -29.0919
v  -75.1700 76.1953 -31.0919
v  -75.1700 76.1953 -29.0919
v  -75.1700 91.0606 -31.0919
v  -75.1700 91.0606 -29.0919
# 18 vertices

vn 0.0000 1.0000 0.0000
vn -0.7827 0.6224 0.0000
vn -1.0000 0.0000 -0.0000
vn 0.0000 -1.0000 -0.0000
vn 1.0000 0.0000 -0.0000
vn 1.0000 0.0000 0.0000
vn -0.0000 -0.0000 -1.0000
vn 0.0000 0.0000 -1.0000
vn -0.0000 0.0000 -1.0000
vn 0.0000 0.0000 1.0000
vn 0.0000 -0.0000 1.0000
vn -0.0000 -0.0000 1.0000
# 12 vertex normals

g Rectangle226
usemtl 墙e0
f 1//1 2//1 3//1 4//1 
f 2//2 5//2 6//2 3//2 
f 5//3 7//3 8//3 6//3 
f 7//4 9//4 10//4 8//4 
f 9//5 1//5 4//5 10//5 
f 11//3 12//3 13//3 14//3 
f 12//1 15//1 16//1 13//1 
f 15//6 17//6 18//6 16//6 
f 17//4 11//4 14//4 18//4 
f 11//7 17//8 2//8 1//9 
f 9//9 12//9 11//7 1//9 
f 7//8 15//8 12//9 9//9 
f 5//8 17//8 15//8 7//8 
f 5//8 2//8 17//8 
f 14//10 10//11 4//11 3//12 
f 18//12 14//10 3//12 6//12 
f 10//11 14//10 13//11 8//12 
f 8//12 13//11 16//12 6//12 
f 6//12 16//12 18//12 
# 17 polygons - 2 triangles

