# 3ds Max Wavefront OBJ Exporter v0.97b - (c)2007 guruware
# 创建的文件:23.05.2018 17:47:14

mtllib wq11.mtl

#
# object Box005
#

v  -59.9318 66.6952 -29.0919
v  -75.1655 66.6952 -29.0919
v  -75.1655 66.6952 -31.0919
v  -59.9318 66.6952 -31.0919
v  -59.9207 96.2141 -31.0919
v  -75.1433 96.2141 -31.0919
v  -75.1433 96.2141 -29.0919
v  -59.9207 96.2141 -29.0919
v  -59.9291 76.2135 -29.1423
v  -75.1599 76.2135 -29.1423
v  -36.3867 76.2135 -31.0919
v  -36.3867 76.2135 -29.0919
v  -36.3867 66.6952 -29.0919
v  -36.3867 66.6952 -31.0919
v  -75.1599 76.2135 -31.0919
v  -59.9291 76.2135 -31.0919
v  -98.2415 75.9567 -29.0919
v  -98.2415 75.9567 -31.0919
v  -98.2415 66.6952 -31.0919
v  -98.2415 66.6952 -29.0919
v  -93.5820 91.1731 -29.0919
v  -89.5443 96.2141 -29.0919
v  -89.5443 96.2141 -31.0919
v  -93.5820 91.1731 -31.0919
v  -36.3867 96.2141 -31.0919
v  -36.3867 96.2141 -29.0919
v  -75.1544 91.0947 -29.1423
v  -36.3867 91.0947 -31.0919
v  -59.9263 91.0947 -31.0919
v  -59.9263 91.0947 -29.1423
v  -36.3867 91.0947 -29.0919
v  -75.1544 91.0947 -31.0919
v  -98.2415 85.2782 -29.0919
v  -98.2415 85.2782 -31.0919
# 34 vertices

vn 0.0000 -1.0000 -0.0000
vn 0.0000 1.0000 -0.0000
vn -0.0009 0.0031 1.0000
vn 0.0014 0.0035 1.0000
vn 0.0008 0.0047 1.0000
vn 0.0000 0.0053 1.0000
vn 1.0000 0.0000 -0.0000
vn 0.0000 0.0000 -1.0000
vn -1.0000 0.0000 -0.0000
vn -0.7825 0.6226 -0.0000
vn -0.7805 0.6251 -0.0000
vn -0.0021 0.0000 1.0000
vn -0.0016 0.0013 1.0000
vn 0.0010 -0.0061 1.0000
vn 0.0000 -0.0098 1.0000
vn 0.0023 -0.0034 1.0000
vn 0.0027 -0.0022 1.0000
vn -0.0008 -0.0061 1.0000
vn -0.7845 0.6201 -0.0000
vn -0.0018 -0.0013 1.0000
vn 0.0023 -0.0006 1.0000
vn 0.0013 0.0007 1.0000
vn 0.0000 0.0000 1.0000
vn -1.0000 0.0002 -0.0000
vn 1.0000 -0.0004 -0.0000
# 25 vertex normals

vt 0.3333 0.0000 0.0000
vt 0.6667 0.0000 0.0000
vt 0.6667 1.0000 0.0000
vt 0.3333 1.0000 0.0000
vt 0.7298 1.0000 0.0000
vt 0.4596 1.0000 0.0000
vt 0.4596 0.0000 0.0000
vt 0.7298 0.0000 0.0000
vt 0.6825 0.2500 0.0000
vt 0.3649 0.2500 0.0000
vt 1.0000 0.2500 0.0000
vt 0.0000 0.2500 0.0000
vt 0.0000 0.0000 0.0000
vt 1.0000 0.0000 0.0000
vt 0.6351 0.2500 0.0000
vt 0.3175 0.2500 0.0000
vt 1.0000 0.3015 0.0000
vt 0.0000 0.3015 0.0000
vt 1.0000 3.9524 0.0000
vt 1.0000 7.3017 0.0000
vt -0.0000 7.3017 0.0000
vt -0.0000 3.9524 0.0000
vt 0.0000 1.0000 0.0000
vt 1.0000 1.0000 0.0000
vt 0.1894 0.0000 0.0000
vt 0.1894 1.0000 0.0000
vt 0.3965 0.5000 0.0000
vt 0.0947 0.8015 0.0000
vt 0.0000 0.5000 0.0000
vt 0.3018 0.5000 0.0000
vt 0.2702 1.0000 0.0000
vt 0.6982 0.5000 0.0000
vt 1.0000 0.5000 0.0000
vt 0.6035 0.5000 0.0000
vt 0.5404 1.0000 0.0000
vt 1.0000 0.6031 0.0000
vt 0.0000 0.6031 0.0000
vt 0.8106 1.0000 0.0000
vt 0.9053 0.8015 0.0000
# 39 texture coords

g Box005
usemtl 墙e0
f 1/1/1 2/2/1 3/3/1 4/4/1 
f 5/5/2 6/6/2 7/7/2 8/8/2 
f 9/9/3 10/10/4 2/1/5 1/2/6 
f 11/11/7 12/12/7 13/13/7 14/14/7 
f 15/15/8 16/16/8 4/1/8 3/2/8 
f 17/17/9 18/18/9 19/13/9 20/14/9 
f 21/19/10 22/20/11 23/21/11 24/22/10 
f 13/13/1 1/1/1 4/4/1 14/23/1 
f 19/24/1 3/3/1 2/2/1 20/14/1 
f 25/24/2 5/5/2 8/8/2 26/14/2 
f 22/25/2 7/7/2 6/6/2 23/26/2 
f 12/11/12 9/9/3 1/2/6 13/14/13 
f 27/27/14 7/6/15 22/26/16 21/28/17 
f 19/14/8 18/17/8 15/15/8 3/2/8 
f 28/29/8 29/30/8 5/31/8 25/23/8 
f 7/6/15 27/27/14 30/32/18 8/5/15 
f 26/23/7 31/29/7 28/33/7 25/24/7 
f 5/31/8 29/30/8 32/34/8 6/35/8 
f 33/36/19 21/19/10 24/22/10 34/37/19 
f 8/5/15 30/32/18 31/33/12 26/24/20 
f 33/37/21 17/18/22 10/10/4 27/27/14 
f 21/28/17 33/37/21 27/27/14 
f 23/38/8 6/35/8 32/34/8 24/39/8 
f 16/16/8 29/30/8 28/29/8 11/12/8 
f 31/29/7 12/12/7 11/11/7 28/33/7 
f 34/37/9 18/18/9 17/17/9 33/36/9 
f 30/32/18 9/9/3 12/11/12 31/33/12 
f 32/34/8 15/15/8 34/36/8 24/39/8 
f 18/17/8 34/36/8 15/15/8 
f 20/13/23 2/1/5 10/10/4 17/18/22 
f 4/1/8 16/16/8 11/12/8 14/13/8 
f 16/16/2 15/15/2 10/15/2 9/16/2 
f 32/34/1 29/30/1 30/30/1 27/34/1 
f 29/30/24 16/16/24 9/16/24 30/30/24 
f 15/15/25 32/34/25 27/34/25 10/15/25 
# 33 polygons - 2 triangles

