# 3ds Max Wavefront OBJ Exporter v0.97b - (c)2007 guruware
# 创建的文件:19.05.2018 22:02:05

mtllib wq14.mtl

#
# object Line1789790245
#

v  -11.9727 63.6774 -71.5404
v  -8.6632 87.6531 -71.5404
v  -11.9727 87.6531 -71.5404
v  85.0679 63.6774 -71.5404
v  81.7585 87.6531 -71.5404
v  85.0679 87.6531 -71.5404
v  -8.6632 87.6531 -73.5401
v  81.7585 87.6531 -73.5401
v  -11.0036 64.6464 -73.5401
v  -11.0036 87.6531 -73.5401
v  84.0989 64.6464 -73.5401
v  84.0989 87.6531 -73.5401
v  -11.0036 64.6464 -73.3367
v  -11.0036 87.6531 -73.3367
v  84.0989 64.6464 -73.3367
v  84.0989 87.6531 -73.3367
v  -11.5560 64.0940 -72.8379
v  -11.5560 87.6531 -72.8379
v  84.6512 64.0940 -72.8379
v  84.6512 87.6531 -72.8379
v  -11.5560 64.0940 -72.6345
v  -11.5560 87.6531 -72.6345
v  84.6512 64.0940 -72.6345
v  84.6512 87.6531 -72.6345
v  -11.7574 63.8926 -72.6345
v  -11.7574 87.6531 -72.6345
v  84.8526 63.8926 -72.6345
v  84.8526 87.6531 -72.6345
v  -11.7574 63.8926 -72.3859
v  -11.7574 87.6531 -72.3859
v  84.8526 63.8926 -72.3859
v  84.8526 87.6531 -72.3859
v  -11.9727 63.6774 -72.3859
v  -11.9727 87.6531 -72.3859
v  85.0679 63.6774 -72.3859
v  85.0679 87.6531 -72.3859
# 36 vertices

vn 0.0000 -0.0000 1.0000
vn -0.0000 -0.0000 1.0000
vn -1.0000 0.0000 0.0000
vn 0.0000 1.0000 -0.0000
vn -0.0000 0.0000 -1.0000
vn 0.0000 0.0000 -1.0000
vn -1.0000 -0.0000 0.0000
vn -0.0000 -1.0000 0.0000
vn 1.0000 -0.0000 -0.0000
vn -0.6702 0.0000 -0.7422
vn 0.0000 -0.6702 -0.7422
vn 0.6702 0.0000 -0.7422
vn -0.0000 -0.0000 -1.0000
# 13 vertex normals

g Line1789790245
usemtl 窗套001
f 1//1 2//1 2//1 3//1 
f 4//1 5//1 2//1 1//1 
f 6//2 5//2 5//2 4//2 
f 2//3 7//3 7//3 2//3 
f 5//4 8//4 7//4 2//4 
f 5//3 8//3 8//3 5//3 
f 7//5 9//5 10//5 7//5 
f 8//6 11//6 9//6 7//6 
f 8//5 12//5 11//5 8//5 
f 9//7 13//7 14//7 10//7 
f 11//8 15//8 13//8 9//8 
f 12//9 16//9 15//9 11//9 
f 13//10 17//10 18//10 14//10 
f 15//11 19//11 17//11 13//11 
f 16//12 20//12 19//12 15//12 
f 17//7 21//7 22//7 18//7 
f 19//8 23//8 21//8 17//8 
f 20//9 24//9 23//9 19//9 
f 21//5 25//5 26//5 22//5 
f 23//13 27//13 25//13 21//13 
f 24//6 28//6 27//6 23//6 
f 25//7 29//7 30//7 26//7 
f 27//8 31//8 29//8 25//8 
f 28//9 32//9 31//9 27//9 
f 29//6 33//6 34//6 30//6 
f 31//5 35//5 33//5 29//5 
f 32//6 36//6 35//6 31//6 
f 33//7 1//7 3//7 34//7 
f 35//8 4//8 1//8 33//8 
f 36//9 6//9 4//9 35//9 
# 30 polygons

