# 3ds Max Wavefront OBJ Exporter v0.97b - (c)2007 guruware
# 创建的文件:23.05.2018 17:48:45

mtllib wq15.mtl

#
# object Box006
#

v  83.7585 63.6774 -45.0382
v  83.7585 63.6774 -34.9313
v  81.7585 63.6774 -34.9313
v  81.7585 63.6774 -45.0382
v  81.7585 102.0423 -45.0382
v  81.7585 102.0423 -34.9313
v  83.7585 102.0423 -34.9313
v  83.7585 102.0423 -45.0382
v  81.7585 88.1079 -30.2462
v  81.7585 64.6566 -30.2462
v  83.7585 64.6566 -30.2462
v  83.7585 88.1079 -30.2462
v  83.7585 87.6531 -72.8379
v  83.7585 64.6566 -72.8379
v  81.7585 64.6566 -72.8379
v  81.7585 87.6531 -72.8379
v  81.7585 102.0423 -30.2462
v  83.7585 102.0423 -30.2462
v  83.7585 63.6774 -30.2462
v  81.7585 63.6774 -30.2462
v  83.7585 88.1079 -34.9313
v  83.7585 88.1079 -45.0382
v  83.7585 64.6566 -45.0382
v  83.7585 64.6566 -34.9313
v  81.7585 63.6774 -72.8379
v  83.7585 63.6774 -72.8379
v  81.7999 88.1079 -45.0382
v  81.7999 88.1079 -34.9313
v  81.7999 64.6566 -34.9313
v  81.7999 64.6566 -45.0382
v  81.7585 102.0423 -53.5164
v  83.7585 102.0423 -53.5164
v  81.7585 86.4210 -71.3692
v  83.7585 86.4210 -71.3692
v  83.7585 100.2225 -52.9132
v  81.7585 100.2225 -52.9132
# 36 vertices

vn 0.0000 -1.0000 -0.0000
vn 0.0000 1.0000 -0.0000
vn 0.0000 0.0000 1.0000
vn 0.0000 0.4487 -0.8937
vn 0.0000 0.0000 -1.0000
vn 1.0000 0.0000 -0.0000
vn -1.0000 -0.0020 0.0010
vn -1.0000 -0.0020 -0.0059
vn -1.0000 -0.0018 -0.0009
vn -1.0000 -0.0025 0.0005
vn -0.9996 0.0264 -0.0033
vn -0.9996 0.0282 0.0010
vn -0.9991 0.0418 0.0007
vn -0.9991 0.0423 -0.0000
vn -1.0000 -0.0006 0.0014
vn -1.0000 0.0005 0.0008
vn -1.0000 -0.0012 -0.0079
vn -1.0000 0.0000 -0.0089
vn -1.0000 0.0000 -0.0000
vn -1.0000 0.0056 -0.0077
vn 0.0000 0.8020 -0.5973
vn 0.0000 0.7661 0.6427
vn 0.0000 -0.3146 -0.9492
vn -0.7071 0.5671 -0.4223
vn 0.0000 -0.7661 -0.6427
vn 0.0000 0.3146 0.9492
# 26 vertex normals

vt 0.0000 0.4433 0.0000
vt 0.0000 0.1100 0.0000
vt 1.0000 0.1100 0.0000
vt 1.0000 0.4433 0.0000
vt 0.0000 0.6667 0.0000
vt 0.0000 0.3333 0.0000
vt 1.0000 0.3333 0.0000
vt 1.0000 0.6667 0.0000
vt 0.0000 1.0000 0.0000
vt 1.0000 1.0000 0.0000
vt 1.0000 0.0000 0.0000
vt 0.0000 0.0000 0.0000
vt 0.1100 0.6667 0.0000
vt 0.4433 0.6667 0.0000
vt 0.4433 1.0000 0.0000
vt 0.1100 1.0000 0.0000
vt 0.4433 0.3333 0.0000
vt 0.1100 0.3333 0.0000
vt 0.1100 0.0000 0.0000
vt 0.4433 0.0000 0.0000
vt 0.5567 0.6667 0.0000
vt 0.8900 0.6667 0.0000
vt 0.8900 1.0000 0.0000
vt 0.5567 1.0000 0.0000
vt 0.8900 0.3333 0.0000
vt 0.5567 0.3333 0.0000
vt 0.5567 0.0000 0.0000
vt 0.8900 0.0000 0.0000
vt 0.0000 0.6131 0.0000
vt 1.0000 0.6131 0.0000
vt 0.6131 1.0000 0.0000
vt 0.3869 1.0000 0.0000
vt 1.0000 11.5748 0.0000
vt -0.0000 11.5748 0.0000
# 34 texture coords

g Box006
usemtl 墙e0
f 1/1/1 2/2/1 3/3/1 4/4/1 
f 5/1/2 6/2/2 7/3/2 8/4/2 
f 9/5/3 10/6/3 11/7/3 12/8/3 
f 13/5/4 14/6/5 15/7/5 16/8/5 
f 17/9/3 9/5/3 12/8/3 18/10/3 
f 19/11/3 11/7/3 10/6/3 20/12/3 
f 21/13/6 22/14/6 8/15/6 7/16/6 
f 23/17/6 24/18/6 2/19/6 1/20/6 
f 25/11/5 15/7/5 14/6/5 26/12/5 
f 27/21/7 28/22/8 6/23/9 5/24/10 
f 29/25/11 30/26/12 4/27/13 3/28/14 
f 26/9/1 1/1/1 4/4/1 25/10/1 
f 20/11/1 3/3/1 2/2/1 19/12/1 
f 31/29/2 5/1/2 8/4/2 32/30/2 
f 18/11/2 7/3/2 6/2/2 17/12/2 
f 11/6/6 24/18/6 21/13/6 12/5/6 
f 23/17/6 14/7/6 13/8/6 22/14/6 
f 16/5/15 15/6/16 30/26/12 27/21/7 
f 9/8/17 28/22/8 29/25/11 10/7/18 
f 18/9/6 12/5/6 21/13/6 7/16/6 
f 32/31/6 8/15/6 22/14/6 13/8/6 
f 26/11/6 14/7/6 23/17/6 1/20/6 
f 19/12/6 2/19/6 24/18/6 11/6/6 
f 31/32/19 16/5/15 5/24/10 
f 5/24/10 31/32/6 31/32/19 
f 31/32/19 16/5/6 16/5/15 
f 5/24/10 16/5/15 27/21/7 
f 17/10/19 6/23/9 28/22/8 9/8/17 
f 10/7/18 29/25/11 3/28/14 20/11/20 
f 25/12/19 4/27/13 30/26/12 15/6/16 
f 16/8/21 31/33/21 32/34/21 13/5/4 
f 22/14/1 21/13/1 28/13/1 27/14/1 
f 24/18/2 23/17/2 30/17/2 29/18/2 
f 13/5/22 16/8/22 33/8/22 34/5/22 
f 31/29/23 32/30/23 35/30/23 36/29/23 
f 21/13/5 24/18/5 29/18/5 28/13/5 
f 23/17/3 22/14/3 27/14/3 30/17/3 
f 31/32/19 36/32/19 31/32/19 
f 16/5/24 33/5/24 16/5/24 
f 16/8/25 13/5/25 34/5/25 33/8/25 
f 36/33/26 35/34/26 32/34/26 31/33/26 
# 35 polygons - 6 triangles

