# 3ds Max Wavefront OBJ Exporter v0.97b - (c)2007 guruware
# 创建的文件:19.05.2018 22:03:12

mtllib wq15.mtl

#
# object Rectangle294573255
#

v  83.7584 102.0423 -30.2462
v  83.7585 102.0423 -53.4671
v  81.7585 102.0423 -53.4671
v  81.7584 102.0423 -30.2462
v  83.7584 63.6774 -30.2462
v  81.7585 63.6774 -30.2462
v  83.7585 63.6774 -53.4671
v  81.7585 63.6774 -53.4671
v  83.7585 87.6531 -72.8379
v  83.7585 63.6774 -72.8379
v  81.7585 63.6774 -72.8379
v  81.7585 87.6531 -72.8379
v  83.7585 88.1894 -45.0845
v  83.7585 64.6774 -45.0845
v  83.7585 64.6774 -34.9483
v  83.7585 88.1894 -34.9483
v  81.7585 64.6774 -34.9483
v  81.7585 64.6774 -45.0845
v  81.7585 88.1894 -45.0845
v  81.7585 88.1894 -34.9483
# 20 vertices

vn -0.0000 1.0000 -0.0000
vn 0.0000 1.0000 -0.0000
vn 0.0000 0.0000 1.0000
vn -0.0000 -1.0000 0.0000
vn -0.0000 0.0000 -1.0000
vn -0.0000 0.8028 -0.5963
vn -1.0000 -0.0000 -0.0000
vn 1.0000 0.0000 0.0000
vn -0.0000 -0.0000 1.0000
vn 0.0000 -0.0000 1.0000
vn 0.0000 0.0000 -1.0000
# 11 vertex normals

g Rectangle294573255
usemtl 墙e0
f 1//1 2//1 3//1 4//2 
f 5//3 1//3 4//3 6//3 
f 7//4 5//4 6//4 8//4 
f 9//5 10//5 11//5 12//5 
f 9//6 12//6 3//6 2//6 
f 11//4 10//4 7//4 8//4 
f 12//7 11//7 8//7 3//7 
f 10//8 9//8 2//8 7//8 
f 13//8 14//8 15//8 7//8 
f 13//8 7//8 2//8 1//8 
f 16//8 13//8 1//8 5//8 
f 15//8 16//8 5//8 7//8 
f 17//7 18//7 19//7 8//7 
f 17//7 8//7 6//7 20//7 
f 20//7 6//7 4//7 19//7 
f 19//7 4//7 3//7 8//7 
f 17//2 15//2 14//2 18//2 
f 18//9 14//9 13//10 19//10 
f 20//4 19//4 13//4 16//4 
f 17//11 20//5 16//5 15//11 
# 20 polygons

