# 3ds Max Wavefront OBJ Exporter v0.97b - (c)2007 guruware
# 创建的文件:19.05.2018 22:18:55

mtllib wq21.mtl

#
# object Rectangle004
#

v  -19.2415 13.0653 33.3106
v  -21.2415 13.0653 33.3106
v  -21.2415 93.5000 33.3106
v  -19.2415 93.5000 33.3106
v  -21.2415 13.0653 38.3106
v  -21.2415 93.5000 38.3106
v  -19.2415 13.0653 38.3106
v  -19.2415 93.5000 38.3106
# 8 vertices

vn 0.0000 0.0000 -1.0000
vn -1.0000 0.0000 -0.0000
vn 0.0000 0.0000 1.0000
vn 1.0000 0.0000 -0.0000
vn 0.0000 -1.0000 -0.0000
vn 0.0000 1.0000 -0.0000
# 6 vertex normals

g Rectangle004
usemtl 墙e0
f 1//1 2//1 3//1 4//1 
f 2//2 5//2 6//2 3//2 
f 5//3 7//3 8//3 6//3 
f 7//4 1//4 4//4 8//4 
f 5//5 2//5 1//5 7//5 
f 6//6 8//6 4//6 3//6 
# 6 polygons

