# 3ds Max Wavefront OBJ Exporter v0.97b - (c)2007 guruware
# 创建的文件:20.05.2018 00:01:44

mtllib wq22.mtl

#
# object Line096
#

v  -44.7625 76.9612 -88.6894
v  -41.4531 80.3017 -88.6894
v  -44.7625 80.3017 -88.6894
v  -11.9727 76.9612 -88.6894
v  -15.2821 80.3017 -88.6894
v  -11.9727 80.3018 -88.6894
v  -15.2821 80.3018 -88.6894
v  -41.4531 80.3017 -90.6891
v  -15.2821 80.3017 -90.6891
v  -15.2821 80.3018 -90.6891
v  -43.7935 77.9302 -90.6891
v  -43.7935 80.3017 -90.6891
v  -12.9417 77.9302 -90.6891
v  -12.9417 80.3018 -90.6891
v  -43.7935 77.9302 -90.4857
v  -43.7935 80.3017 -90.4857
v  -12.9417 77.9302 -90.4857
v  -12.9417 80.3018 -90.4857
v  -44.3459 77.3779 -89.9870
v  -44.3459 80.3017 -89.9870
v  -12.3894 77.3779 -89.9870
v  -12.3894 80.3018 -89.9870
v  -44.3459 77.3779 -89.7835
v  -44.3459 80.3017 -89.7835
v  -12.3894 77.3779 -89.7835
v  -12.3894 80.3018 -89.7835
v  -44.5472 77.1765 -89.7835
v  -44.5472 80.3017 -89.7835
v  -12.1880 77.1765 -89.7835
v  -12.1880 80.3018 -89.7835
v  -44.5472 77.1765 -89.5349
v  -44.5472 80.3017 -89.5349
v  -12.1880 77.1765 -89.5349
v  -12.1880 80.3018 -89.5349
v  -44.7625 76.9612 -89.5349
v  -44.7625 80.3017 -89.5349
v  -11.9727 76.9612 -89.5349
v  -11.9727 80.3018 -89.5349
# 38 vertices

vn 0.0000 0.0000 1.0000
vn -0.0000 0.0000 1.0000
vn -1.0000 -0.0000 0.0000
vn 0.0000 1.0000 -0.0000
vn 0.0000 -0.0000 -1.0000
vn -0.0000 -0.0000 -1.0000
vn -0.0000 -1.0000 0.0000
vn 1.0000 0.0000 -0.0000
vn -0.6702 -0.0000 -0.7422
vn -0.0000 -0.6702 -0.7422
vn 0.6702 -0.0000 -0.7422
# 11 vertex normals

g Line096
usemtl 窗套001
f 1//1 2//1 2//1 3//1 
f 4//1 5//1 2//1 1//1 
f 6//2 7//2 5//2 4//2 
f 2//3 8//3 8//3 2//3 
f 5//4 9//4 8//4 2//4 
f 7//3 10//3 9//3 5//3 
f 8//5 11//5 12//5 8//5 
f 9//5 13//5 11//5 8//5 
f 10//6 14//6 13//6 9//6 
f 11//3 15//3 16//3 12//3 
f 13//7 17//7 15//7 11//7 
f 14//8 18//8 17//8 13//8 
f 15//9 19//9 20//9 16//9 
f 17//10 21//10 19//10 15//10 
f 18//11 22//11 21//11 17//11 
f 19//3 23//3 24//3 20//3 
f 21//7 25//7 23//7 19//7 
f 22//8 26//8 25//8 21//8 
f 23//6 27//6 28//6 24//6 
f 25//6 29//6 27//6 23//6 
f 26//6 30//6 29//6 25//6 
f 27//3 31//3 32//3 28//3 
f 29//7 33//7 31//7 27//7 
f 30//8 34//8 33//8 29//8 
f 31//6 35//6 36//6 32//6 
f 33//6 37//6 35//6 31//6 
f 34//6 38//6 37//6 33//6 
f 35//3 1//3 3//3 36//3 
f 37//7 4//7 1//7 35//7 
f 38//8 6//8 4//8 37//8 
# 30 polygons

