# 3ds Max Wavefront OBJ Exporter v0.97b - (c)2007 guruware
# 创建的文件:23.05.2018 17:11:40

mtllib wq3.mtl

#
# object Box003
#

v  83.7585 13.0684 73.0073
v  81.7585 13.0684 73.0073
v  81.7585 13.0684 63.9708
v  83.7585 13.0684 63.9708
v  81.7584 93.5863 73.0073
v  83.7584 93.5863 73.0073
v  83.7585 93.5863 63.9708
v  81.7585 93.5863 63.9708
v  81.7585 16.6116 81.3106
v  83.7585 16.6116 81.3106
v  83.7585 28.5604 81.3106
v  81.7585 28.5604 81.3106
v  83.7585 16.6116 31.3106
v  81.7585 16.6116 31.3106
v  81.7585 28.5604 31.3106
v  83.7585 28.5604 31.3106
v  83.7584 93.5863 81.3106
v  81.7584 93.5863 81.3106
v  81.7585 13.0684 81.3106
v  83.7585 13.0684 81.3106
v  83.7585 28.5604 63.9708
v  83.7584 28.6116 73.0073
v  83.7585 16.6116 73.0073
v  83.7585 16.6116 63.9708
v  81.7585 93.5863 31.3106
v  83.7585 93.5863 31.3106
v  83.7585 13.0684 31.3106
v  81.7585 13.0684 31.3106
v  81.7585 28.5914 72.9731
v  81.7585 28.5402 63.9366
v  81.7585 16.5914 72.9731
v  81.7585 16.5914 63.9366
# 32 vertices

vn 0.0000 -1.0000 -0.0000
vn 0.0000 1.0000 -0.0000
vn 0.0000 0.0000 1.0000
vn 0.0000 0.0000 -1.0000
vn 1.0000 0.0000 -0.0000
vn -1.0000 0.0000 -0.0000
vn 0.0100 -0.9999 0.0057
vn -0.0101 0.9999 -0.0000
vn 0.0171 0.0000 -0.9999
vn -0.0171 0.0000 0.9999
vn 0.8209 -0.4049 -0.4026
vn 0.8148 -0.4088 0.4111
vn 0.5668 0.5826 0.5825
vn 0.8175 0.4073 -0.4073
# 14 vertex normals

vt 0.0000 0.1661 0.0000
vt 1.0000 0.1661 0.0000
vt 1.0000 0.2812 0.0000
vt 0.0000 0.2812 0.0000
vt 0.0000 0.0440 0.0000
vt 1.0000 0.0440 0.0000
vt 1.0000 0.1592 0.0000
vt 0.0000 0.1592 0.0000
vt 1.0000 1.0000 0.0000
vt 0.0000 1.0000 0.0000
vt 0.0000 0.0000 0.0000
vt 1.0000 0.0000 0.0000
vt 0.2812 0.1592 0.0000
vt 0.2812 1.0000 0.0000
vt 0.1661 1.0000 0.0000
vt 0.1661 0.1592 0.0000
vt 0.1661 0.0440 0.0000
vt 0.1661 0.0000 0.0000
vt 0.2812 0.0000 0.0000
vt 0.2812 0.0440 0.0000
vt 0.8339 0.1592 0.0000
vt 0.8339 1.0000 0.0000
vt 0.7188 1.0000 0.0000
vt 0.7188 0.1592 0.0000
vt 0.8339 0.0440 0.0000
vt 0.7188 0.0440 0.0000
vt 0.7188 0.0000 0.0000
vt 0.8339 0.0000 0.0000
# 28 texture coords

g Box003
usemtl _Rectangle052墙e0
f 1/1/1 2/2/1 3/3/1 4/4/1 
f 5/1/2 6/2/2 7/3/2 8/4/2 
f 9/5/3 10/6/3 11/7/3 12/8/3 
f 13/5/4 14/6/4 15/7/4 16/8/4 
f 12/8/3 11/7/3 17/9/3 18/10/3 
f 10/6/3 9/5/3 19/11/3 20/12/3 
f 21/13/5 7/14/5 6/15/5 22/16/5 
f 23/17/5 1/18/5 4/19/5 24/20/5 
f 16/8/4 15/7/4 25/9/4 26/10/4 
f 14/6/4 13/5/4 27/11/4 28/12/4 
f 29/21/6 5/22/6 8/23/6 30/24/6 
f 31/25/6 32/26/6 3/27/6 2/28/6 
f 4/4/1 3/3/1 28/9/1 27/10/1 
f 2/2/1 1/1/1 20/11/1 19/12/1 
f 8/4/2 7/3/2 26/9/2 25/10/2 
f 6/2/2 5/1/2 18/11/2 17/12/2 
f 23/17/5 22/16/5 11/8/5 10/5/5 
f 21/13/5 24/20/5 13/6/5 16/7/5 
f 32/26/6 30/24/6 15/8/6 14/5/6 
f 29/21/6 31/25/6 9/6/6 12/7/6 
f 11/8/5 22/16/5 6/15/5 17/10/5 
f 11/8/5 22/16/5 22/16/5 
f 7/14/5 21/13/5 16/7/5 26/9/5 
f 21/13/5 7/14/5 21/13/5 
f 4/19/5 27/12/5 24/20/5 
f 1/18/5 23/17/5 10/5/5 20/11/5 
f 23/17/5 1/18/5 23/17/5 
f 30/24/6 8/23/6 25/10/6 15/8/6 
f 5/22/6 29/21/6 12/7/6 18/9/6 
f 31/25/6 2/28/6 19/12/6 9/6/6 
f 3/27/6 32/26/6 14/5/6 28/11/6 
f 21/13/7 22/16/7 29/16/7 30/13/7 
f 31/17/8 23/17/8 24/20/8 32/20/8 
f 23/17/9 31/17/9 29/16/9 22/16/9 
f 21/13/10 30/13/10 32/20/10 24/20/10 
f 22/16/11 29/16/11 22/16/11 
f 21/13/12 30/13/12 21/13/12 
f 24/20/13 32/20/13 24/20/13 
f 23/17/14 31/17/14 23/17/14 
# 31 polygons - 8 triangles

