# 3ds Max Wavefront OBJ Exporter v0.97b - (c)2007 guruware
# 创建的文件:23.05.2018 17:41:23

mtllib wq5.mtl

#
# object Box001
#

v  56.2267 13.0684 -71.5799
v  41.3811 13.0684 -71.5799
v  41.3811 13.0684 -73.5799
v  56.2267 13.0684 -73.5799
v  56.2267 64.5000 -73.5799
v  41.3811 64.5000 -73.5799
v  41.3811 64.5000 -71.5799
v  56.2267 64.5000 -71.5799
v  56.2267 34.0995 -71.5799
v  56.2267 42.4675 -71.5799
v  41.3811 42.4675 -71.5799
v  41.3811 34.0995 -71.5799
v  128.7585 42.4675 -71.5799
v  128.7585 34.0995 -71.5799
v  128.7585 34.0995 -73.5799
v  128.7585 42.4675 -73.5799
v  56.2267 34.0995 -73.5739
v  41.3811 34.0995 -73.5739
v  41.3811 42.4675 -73.5739
v  56.2267 42.4675 -73.5739
v  -14.2416 42.4675 -73.5799
v  -14.2416 34.0995 -73.5799
v  -14.2416 34.0995 -71.5799
v  -14.2416 42.4675 -71.5799
v  41.3811 58.7175 -71.5799
v  56.2267 58.7175 -71.5799
v  56.2267 17.6596 -71.5799
v  41.3811 17.6596 -71.5799
v  128.7585 64.5000 -71.5799
v  128.7585 58.7175 -71.5799
v  128.7585 58.7175 -73.5799
v  128.7585 64.5000 -73.5799
v  128.7585 13.0684 -73.5799
v  128.7585 17.6596 -73.5799
v  128.7585 17.6596 -71.5799
v  128.7585 13.0684 -71.5799
v  56.2267 58.7175 -73.5739
v  41.3811 58.7175 -73.5739
v  41.3811 17.6596 -73.5739
v  56.2267 17.6596 -73.5739
v  -14.2416 64.5000 -73.5799
v  -14.2416 58.7175 -73.5799
v  -14.2416 58.7175 -71.5799
v  -14.2416 64.5000 -71.5799
v  -14.2416 13.0684 -71.5799
v  -14.2416 17.6596 -71.5799
v  -14.2416 17.6596 -73.5799
v  -14.2416 13.0684 -73.5799
v  112.7405 13.0684 -71.5799
v  112.7405 13.0684 -73.5799
v  97.7916 13.0684 -71.5799
v  97.7916 13.0684 -73.5799
v  71.3551 13.0684 -71.5799
v  71.3551 13.0684 -73.5799
v  -3.7970 13.0684 -73.5799
v  -3.7970 13.0684 -71.5799
v  11.2444 13.0684 -73.5799
v  11.2444 13.0684 -71.5799
v  26.2143 13.0684 -73.5799
v  26.2143 13.0684 -71.5799
v  112.7405 64.5000 -73.5799
v  112.7405 64.5000 -71.5799
v  97.7916 64.5000 -73.5799
v  97.7916 64.5000 -71.5799
v  71.3551 64.5000 -73.5799
v  71.3551 64.5000 -71.5799
v  -3.7970 64.5000 -71.5799
v  -3.7970 64.5000 -73.5799
v  11.2444 64.5000 -71.5799
v  11.2444 64.5000 -73.5799
v  26.2143 64.5000 -71.5799
v  26.2143 64.5000 -73.5799
v  -3.8837 34.0995 -71.5799
v  -3.7970 42.4675 -71.5799
v  11.1576 34.0995 -71.5799
v  11.2444 42.4675 -71.5799
v  26.2143 34.0995 -71.5799
v  26.2143 42.4675 -71.5799
v  112.7405 42.4675 -71.5799
v  112.7405 34.0995 -71.5799
v  97.7916 42.4675 -71.5799
v  97.7916 34.0995 -71.5799
v  71.3551 42.4675 -71.5799
v  71.3551 34.0995 -71.5799
v  112.7405 34.0995 -73.5739
v  112.7405 42.4675 -73.5739
v  97.7916 34.0995 -73.5739
v  97.7916 42.4675 -73.5739
v  71.3551 34.0995 -73.5739
v  71.3551 42.4675 -73.5739
v  -3.7970 42.4675 -73.5739
v  -3.8404 34.0995 -73.5739
v  11.2444 42.4675 -73.5739
v  11.2010 34.0995 -73.5739
v  26.2143 42.4675 -73.5739
v  26.2143 34.0995 -73.5739
v  -3.7970 58.7175 -71.5799
v  11.2444 58.7175 -71.5799
v  26.2143 58.7175 -71.5799
v  112.7405 58.7175 -71.5799
v  97.7916 58.7175 -71.5799
v  71.3551 58.7175 -71.5799
v  112.7405 17.6596 -71.5799
v  97.7916 17.6596 -71.5799
v  71.3551 17.6596 -71.5799
v  -3.7970 17.6596 -71.5799
v  11.2444 17.6596 -71.5799
v  26.2143 17.6596 -71.5799
v  112.7405 58.7175 -73.5739
v  97.7916 58.7175 -73.5739
v  71.3551 58.7175 -73.5739
v  -3.7970 58.7175 -73.5739
v  11.2444 58.7175 -73.5739
v  26.2143 58.7175 -73.5739
v  -3.7970 17.6596 -73.5739
v  11.2444 17.6596 -73.5739
v  26.2143 17.6596 -73.5739
v  112.7405 17.6596 -73.5739
v  97.7916 17.6596 -73.5739
v  71.3551 17.6596 -73.5739
# 120 vertices

vn 0.0000 -1.0000 -0.0000
vn 0.0000 1.0000 -0.0000
vn 0.0000 0.0000 1.0000
vn 1.0000 0.0000 -0.0000
vn 0.0000 0.0000 -1.0000
vn -1.0000 0.0000 -0.0000
vn 0.0000 -0.0007 -1.0000
vn 0.0000 -0.0010 -1.0000
vn 0.0000 0.0009 -1.0000
vn 0.0000 0.0013 -1.0000
vn -0.0004 0.0000 -1.0000
vn -0.0003 0.0000 -1.0000
vn 0.0006 0.0000 -1.0000
vn 0.0004 0.0000 -1.0000
vn -0.0002 -0.0006 -1.0000
vn -0.0003 -0.0002 -1.0000
vn 0.0002 -0.0009 -1.0000
vn 0.0004 -0.0007 -1.0000
vn 0.0004 -0.0002 -1.0000
vn 0.0002 0.0008 -1.0000
vn 0.0004 0.0003 -1.0000
vn -0.0002 0.0012 -1.0000
vn -0.0003 0.0009 -1.0000
vn -0.0002 0.0001 -1.0000
vn 0.9999 0.0040 0.0109
vn -0.9999 -0.0040 -0.0109
# 26 vertex normals

vt 0.4444 0.0000 0.0000
vt 0.5556 0.0000 0.0000
vt 0.5556 1.0000 0.0000
vt 0.4444 1.0000 0.0000
vt 0.5556 0.4000 0.0000
vt 0.5556 0.6000 0.0000
vt 0.4444 0.6000 0.0000
vt 0.4444 0.4000 0.0000
vt 0.0000 0.6000 0.0000
vt 0.0000 0.4000 0.0000
vt 1.0000 0.4000 0.0000
vt 1.0000 0.6000 0.0000
vt 0.4444 0.8000 0.0000
vt 0.5556 0.8000 0.0000
vt 0.5556 0.2000 0.0000
vt 0.4444 0.2000 0.0000
vt 0.0000 1.0000 0.0000
vt 0.0000 0.8000 0.0000
vt 1.0000 0.8000 0.0000
vt 1.0000 1.0000 0.0000
vt 1.0000 0.0000 0.0000
vt 1.0000 0.2000 0.0000
vt 0.0000 0.2000 0.0000
vt 0.0000 0.0000 0.0000
vt 0.1111 0.0000 0.0000
vt 0.1111 1.0000 0.0000
vt 0.2222 0.0000 0.0000
vt 0.2222 1.0000 0.0000
vt 0.3333 0.0000 0.0000
vt 0.3333 1.0000 0.0000
vt 0.8889 1.0000 0.0000
vt 0.8889 0.0000 0.0000
vt 0.7778 1.0000 0.0000
vt 0.7778 0.0000 0.0000
vt 0.6667 1.0000 0.0000
vt 0.6667 0.0000 0.0000
vt 0.1111 0.4000 0.0000
vt 0.1111 0.6000 0.0000
vt 0.2222 0.4000 0.0000
vt 0.2222 0.6000 0.0000
vt 0.3333 0.4000 0.0000
vt 0.3333 0.6000 0.0000
vt 0.8889 0.6000 0.0000
vt 0.8889 0.4000 0.0000
vt 0.7778 0.6000 0.0000
vt 0.7778 0.4000 0.0000
vt 0.6667 0.6000 0.0000
vt 0.6667 0.4000 0.0000
vt 0.1111 0.8000 0.0000
vt 0.2222 0.8000 0.0000
vt 0.3333 0.8000 0.0000
vt 0.8889 0.8000 0.0000
vt 0.7778 0.8000 0.0000
vt 0.6667 0.8000 0.0000
vt 0.8889 0.2000 0.0000
vt 0.7778 0.2000 0.0000
vt 0.6667 0.2000 0.0000
vt 0.1111 0.2000 0.0000
vt 0.2222 0.2000 0.0000
vt 0.3333 0.2000 0.0000
# 60 texture coords

g Box001
usemtl 墙e0
f 1/1/1 2/2/1 3/3/1 4/4/1 
f 5/3/2 6/4/2 7/1/2 8/2/2 
f 9/5/3 10/6/3 11/7/3 12/8/3 
f 13/9/4 14/10/4 15/11/4 16/12/4 
f 17/8/5 18/5/5 19/6/5 20/7/5 
f 21/9/6 22/10/6 23/11/6 24/12/6 
f 25/13/3 26/14/3 8/3/3 7/4/3 
f 11/7/3 10/6/3 26/14/3 25/13/3 
f 27/15/3 28/16/3 2/1/3 1/2/3 
f 9/5/3 12/8/3 28/16/3 27/15/3 
f 29/17/4 30/18/4 31/19/4 32/20/4 
f 30/18/4 13/9/4 16/12/4 31/19/4 
f 33/21/4 34/22/4 35/23/4 36/24/4 
f 34/22/4 15/11/4 14/10/4 35/23/4 
f 37/13/7 38/14/7 6/3/8 5/4/8 
f 20/7/5 19/6/5 38/14/7 37/13/7 
f 39/15/9 40/16/9 4/1/10 3/2/10 
f 18/5/5 17/8/5 40/16/9 39/15/9 
f 41/17/6 42/18/6 43/19/6 44/20/6 
f 42/18/6 21/9/6 24/12/6 43/19/6 
f 45/21/6 46/22/6 47/23/6 48/24/6 
f 46/22/6 23/11/6 22/10/6 47/23/6 
f 36/24/1 49/25/1 50/26/1 33/17/1 
f 49/25/1 51/27/1 52/28/1 50/26/1 
f 51/27/1 53/29/1 54/30/1 52/28/1 
f 53/29/1 1/1/1 4/4/1 54/30/1 
f 48/20/1 55/31/1 56/32/1 45/21/1 
f 55/31/1 57/33/1 58/34/1 56/32/1 
f 58/34/1 57/33/1 59/35/1 60/36/1 
f 59/35/1 3/3/1 2/2/1 60/36/1 
f 32/20/2 61/31/2 62/32/2 29/21/2 
f 61/31/2 63/33/2 64/34/2 62/32/2 
f 63/33/2 65/35/2 66/36/2 64/34/2 
f 65/35/2 5/3/2 8/2/2 66/36/2 
f 44/24/2 67/25/2 68/26/2 41/17/2 
f 67/25/2 69/27/2 70/28/2 68/26/2 
f 69/27/2 71/29/2 72/30/2 70/28/2 
f 71/29/2 7/1/2 6/4/2 72/30/2 
f 73/37/3 74/38/3 24/9/3 23/10/3 
f 74/38/3 73/37/3 75/39/3 76/40/3 
f 77/41/3 78/42/3 76/40/3 75/39/3 
f 12/8/3 11/7/3 78/42/3 77/41/3 
f 79/43/3 80/44/3 14/11/3 13/12/3 
f 81/45/3 82/46/3 80/44/3 79/43/3 
f 83/47/3 84/48/3 82/46/3 81/45/3 
f 10/6/3 9/5/3 84/48/3 83/47/3 
f 15/10/11 85/37/12 86/38/12 16/9/11 
f 85/37/12 87/39/5 88/40/5 86/38/12 
f 87/39/5 89/41/5 90/42/5 88/40/5 
f 89/41/5 17/8/5 20/7/5 90/42/5 
f 21/12/13 91/43/14 92/44/14 22/11/13 
f 91/43/14 93/45/5 94/46/5 92/44/14 
f 93/45/5 95/47/5 96/48/5 94/46/5 
f 95/47/5 19/6/5 18/5/5 96/48/5 
f 44/17/3 43/18/3 97/49/3 67/26/3 
f 97/49/3 98/50/3 69/28/3 67/26/3 
f 98/50/3 99/51/3 71/30/3 69/28/3 
f 99/51/3 25/13/3 7/4/3 71/30/3 
f 29/20/3 62/31/3 100/52/3 30/19/3 
f 64/33/3 101/53/3 100/52/3 62/31/3 
f 64/33/3 66/35/3 102/54/3 101/53/3 
f 8/3/3 26/14/3 102/54/3 66/35/3 
f 24/9/3 74/38/3 97/49/3 43/18/3 
f 76/40/3 78/42/3 99/51/3 98/50/3 
f 30/19/3 100/52/3 79/43/3 13/12/3 
f 101/53/3 102/54/3 83/47/3 81/45/3 
f 36/21/3 35/22/3 103/55/3 49/32/3 
f 103/55/3 104/56/3 51/34/3 49/32/3 
f 104/56/3 105/57/3 53/36/3 51/34/3 
f 105/57/3 27/15/3 1/2/3 53/36/3 
f 45/24/3 56/25/3 106/58/3 46/23/3 
f 58/27/3 107/59/3 106/58/3 56/25/3 
f 60/29/3 108/60/3 107/59/3 58/27/3 
f 2/1/3 28/16/3 108/60/3 60/29/3 
f 14/11/3 80/44/3 103/55/3 35/22/3 
f 82/46/3 84/48/3 105/57/3 104/56/3 
f 46/23/3 106/58/3 73/37/3 23/10/3 
f 107/59/3 108/60/3 77/41/3 75/39/3 
f 31/18/11 109/49/15 61/26/8 32/17/16 
f 109/49/15 110/50/7 63/28/8 61/26/8 
f 110/50/7 111/51/7 65/30/8 63/28/8 
f 111/51/7 37/13/7 5/4/8 65/30/8 
f 41/20/5 68/31/17 112/52/18 42/19/19 
f 68/31/17 70/33/8 113/53/7 112/52/18 
f 70/33/8 72/35/8 114/54/7 113/53/7 
f 72/35/8 6/3/8 38/14/7 114/54/7 
f 16/9/11 86/38/12 109/49/15 31/18/11 
f 88/40/5 90/42/5 111/51/7 110/50/7 
f 42/19/19 112/52/18 91/43/14 21/12/13 
f 113/53/7 114/54/7 95/47/5 93/45/5 
f 47/22/13 115/55/20 55/32/10 48/21/21 
f 115/55/20 116/56/9 57/34/10 55/32/10 
f 116/56/9 117/57/9 59/36/10 57/34/10 
f 117/57/9 39/15/9 3/2/10 59/36/10 
f 33/24/5 50/25/22 118/58/23 34/23/24 
f 50/25/22 52/27/10 119/59/9 118/58/23 
f 52/27/10 54/29/10 120/60/9 119/59/9 
f 54/29/10 4/1/10 40/16/9 120/60/9 
f 22/11/13 92/44/14 115/55/20 47/22/13 
f 94/46/5 96/48/5 117/57/9 116/56/9 
f 34/23/24 118/58/23 85/37/12 15/10/11 
f 119/59/9 120/60/9 89/41/5 87/39/5 
f 11/7/6 25/13/6 38/13/6 19/7/6 
f 20/6/4 37/14/4 26/14/4 10/6/4 
f 9/5/4 27/15/4 40/15/4 17/5/4 
f 28/16/6 12/8/6 18/8/6 39/16/6 
f 75/39/1 73/37/1 92/37/1 94/39/1 
f 74/38/2 76/40/2 93/40/2 91/38/2 
f 12/8/1 77/41/1 96/41/1 18/8/1 
f 78/42/2 11/7/2 19/7/2 95/42/2 
f 81/45/2 79/43/2 86/43/2 88/45/2 
f 80/44/1 82/46/1 87/46/1 85/44/1 
f 10/6/2 83/47/2 90/47/2 20/6/2 
f 84/48/1 9/5/1 17/5/1 89/48/1 
f 98/50/1 97/49/1 112/49/1 113/50/1 
f 25/13/1 99/51/1 114/51/1 38/13/1 
f 100/52/1 101/53/1 110/53/1 109/52/1 
f 102/54/1 26/14/1 37/14/1 111/54/1 
f 97/49/4 74/38/4 91/38/4 112/49/4 
f 76/40/6 98/50/6 113/50/6 93/40/6 
f 95/42/4 114/51/4 99/51/4 78/42/4 
f 79/43/6 100/52/6 109/52/6 86/43/6 
f 101/53/4 81/45/4 88/45/4 110/53/4 
f 111/54/6 90/47/6 83/47/6 102/54/6 
f 104/56/2 103/55/2 118/55/2 119/56/2 
f 27/15/2 105/57/2 120/57/2 40/15/2 
f 106/58/2 107/59/2 116/59/2 115/58/2 
f 108/60/2 28/16/2 39/16/2 117/60/2 
f 103/55/6 80/44/6 85/44/6 118/55/6 
f 82/46/4 104/56/4 119/56/4 87/46/4 
f 89/48/6 120/57/6 105/57/6 84/48/6 
f 73/37/25 106/58/25 115/58/25 92/37/25 
f 107/59/26 75/39/26 94/39/26 116/59/26 
f 117/60/4 96/41/4 77/41/4 108/60/4 
# 134 polygons

