# 3ds Max Wavefront OBJ Exporter v0.97b - (c)2007 guruware
# 创建的文件:19.05.2018 21:41:45

mtllib wq6.mtl

#
# object Rectangle112
#

v  -96.2415 66.9312 -76.6895
v  -42.2415 66.9312 -76.6895
v  -42.2415 66.9312 -78.6895
v  -96.2415 66.9312 -78.6895
v  -42.2415 13.0684 -76.6894
v  -42.2415 13.0684 -78.6894
v  -96.2415 13.0684 -76.6895
v  -96.2415 13.0684 -78.6895
v  -77.1724 46.4577 -76.6895
v  -64.2685 46.4577 -76.6895
v  -64.2685 46.4577 -78.6895
v  -77.1724 46.4577 -78.6895
v  -64.2685 61.5604 -76.6895
v  -64.2685 61.5604 -78.6895
v  -77.1724 61.5604 -76.6895
v  -77.1724 61.5604 -78.6895
# 16 vertices

vn 0.0000 1.0000 -0.0000
vn 1.0000 0.0000 0.0000
vn -0.0000 -1.0000 0.0000
vn -1.0000 0.0000 -0.0000
vn -0.0000 0.0000 1.0000
vn 0.0000 0.0000 1.0000
vn 0.0000 -0.0000 -1.0000
vn -0.0000 -0.0000 -1.0000
# 8 vertex normals

g Rectangle112
usemtl 墙e0
f 1//1 2//1 3//1 4//1 
f 2//2 5//2 6//2 3//2 
f 5//3 7//3 8//3 6//3 
f 7//4 1//4 4//4 8//4 
f 9//1 10//1 11//1 12//1 
f 10//4 13//4 14//4 11//4 
f 13//3 15//3 16//3 14//3 
f 15//2 9//2 12//2 16//2 
f 15//5 2//6 1//5 9//5 
f 13//5 10//6 2//6 15//5 
f 7//5 5//6 9//5 1//5 
f 5//6 2//6 10//6 9//5 
f 16//7 12//7 8//7 4//7 
f 16//7 4//7 3//8 14//7 
f 6//8 8//7 12//7 11//8 
f 3//8 6//8 11//8 14//7 
# 16 polygons

