# 3ds Max Wavefront OBJ Exporter v0.97b - (c)2007 guruware
# 创建的文件:23.05.2018 17:43:30

mtllib wq6.mtl

#
# object Box002
#

v  -64.0947 13.0684 -76.6894
v  -77.1702 13.0684 -76.6894
v  -77.1702 13.0684 -78.6895
v  -64.0947 13.0684 -78.6895
v  -64.0947 66.9312 -78.6895
v  -77.1702 66.9312 -78.6895
v  -77.1702 66.9312 -76.6894
v  -64.0947 66.9312 -76.6894
v  -42.2415 61.6080 -76.6894
v  -42.2415 46.3823 -76.6894
v  -42.2415 46.3823 -78.6894
v  -42.2415 61.6080 -78.6894
v  -96.2415 61.6080 -78.6895
v  -96.2415 46.3823 -78.6895
v  -96.2415 46.3823 -76.6895
v  -96.2415 61.6080 -76.6895
v  -77.1702 61.6080 -76.7289
v  -64.0947 61.6080 -76.7289
v  -64.0947 46.3823 -76.7289
v  -77.1702 46.3823 -76.7289
v  -42.2415 66.9312 -76.6894
v  -42.2415 66.9312 -78.6894
v  -42.2415 13.0684 -78.6894
v  -42.2415 13.0684 -76.6894
v  -64.0947 61.6080 -78.6895
v  -77.1702 61.6080 -78.6895
v  -77.1702 46.3823 -78.6895
v  -64.0947 46.3823 -78.6895
v  -96.2415 66.9312 -78.6895
v  -96.2415 66.9312 -76.6895
v  -96.2415 13.0684 -76.6895
v  -96.2415 13.0684 -78.6895
# 32 vertices

vn 0.0000 -1.0000 -0.0000
vn 0.0000 1.0000 -0.0000
vn 1.0000 0.0000 -0.0000
vn -1.0000 0.0000 -0.0000
vn 0.0008 -0.0045 1.0000
vn -0.0012 -0.0049 1.0000
vn -0.0008 -0.0069 1.0000
vn 0.0000 -0.0074 1.0000
vn -0.0010 0.0005 1.0000
vn 0.0014 0.0008 1.0000
vn 0.0003 0.0008 1.0000
vn 0.0000 0.0012 1.0000
vn 0.0000 0.0000 -1.0000
vn 0.0017 0.0004 1.0000
vn 0.0021 0.0000 1.0000
vn -0.0010 -0.0006 1.0000
vn -0.0018 0.0000 1.0000
vn 0.0017 -0.0013 1.0000
vn 0.0000 0.0000 1.0000
vn -0.0007 0.0007 1.0000
# 20 vertex normals

vt 0.4047 0.0000 0.0000
vt 0.6623 0.0000 0.0000
vt 0.6623 1.0000 0.0000
vt 0.4047 1.0000 0.0000
vt 0.5953 1.0000 0.0000
vt 0.3377 1.0000 0.0000
vt 0.3377 0.0000 0.0000
vt 0.5953 0.0000 0.0000
vt 0.0000 0.8761 0.0000
vt 0.0000 0.6185 0.0000
vt 1.0000 0.6185 0.0000
vt 1.0000 0.8761 0.0000
vt 0.3377 0.8761 0.0000
vt 0.5953 0.8761 0.0000
vt 0.5953 0.6185 0.0000
vt 0.3377 0.6185 0.0000
vt 0.0000 1.0000 0.0000
vt 1.0000 1.0000 0.0000
vt 1.0000 0.0000 0.0000
vt 0.0000 0.0000 0.0000
vt 0.4047 0.8761 0.0000
vt 0.6623 0.8761 0.0000
vt 0.6623 0.6185 0.0000
vt 0.4047 0.6185 0.0000
# 24 texture coords

g Box002
usemtl 墙e0
f 1/1/1 2/2/1 3/3/1 4/4/1 
f 5/5/2 6/6/2 7/7/2 8/8/2 
f 9/9/3 10/10/3 11/11/3 12/12/3 
f 13/9/4 14/10/4 15/11/4 16/12/4 
f 17/13/5 18/14/6 8/5/7 7/6/8 
f 19/15/9 20/16/10 2/7/11 1/8/12 
f 21/17/3 9/9/3 12/12/3 22/18/3 
f 23/19/3 11/11/3 10/10/3 24/20/3 
f 25/21/13 26/22/13 6/3/13 5/4/13 
f 27/23/13 28/24/13 4/1/13 3/2/13 
f 29/17/4 13/9/4 16/12/4 30/18/4 
f 31/19/4 15/11/4 14/10/4 32/20/4 
f 24/20/1 1/1/1 4/4/1 23/17/1 
f 32/18/1 3/3/1 2/2/1 31/19/1 
f 22/18/2 5/5/2 8/8/2 21/19/2 
f 30/20/2 7/7/2 6/6/2 29/17/2 
f 15/10/14 20/16/10 17/13/5 16/9/15 
f 9/12/16 18/14/6 19/15/9 10/11/17 
f 11/10/13 28/24/13 25/21/13 12/9/13 
f 13/12/13 26/22/13 27/23/13 14/11/13 
f 16/9/15 17/13/5 7/6/8 30/17/18 
f 21/18/19 8/5/7 18/14/6 9/12/16 
f 10/11/17 19/15/9 1/8/12 24/19/20 
f 31/20/19 2/7/11 20/16/10 15/10/14 
f 22/17/13 12/9/13 25/21/13 5/4/13 
f 29/18/13 6/3/13 26/22/13 13/12/13 
f 32/19/13 14/11/13 27/23/13 3/2/13 
f 23/20/13 4/1/13 28/24/13 11/10/13 
f 26/22/1 25/21/1 18/21/1 17/22/1 
f 28/24/2 27/23/2 20/23/2 19/24/2 
f 25/21/4 28/24/4 19/24/4 18/21/4 
f 27/23/3 26/22/3 17/22/3 20/23/3 
# 32 polygons

