# 3ds Max Wavefront OBJ Exporter v0.97b - (c)2007 guruware
# 创建的文件:19.05.2018 21:46:15

mtllib wq8.mtl

#
# object Rectangle227
#

v  -98.2415 86.3218 -29.0919
v  -98.2415 86.3218 36.3106
v  -96.2415 88.8394 36.3106
v  -96.2415 88.8394 -29.0919
v  -98.2415 66.6952 36.3106
v  -96.2415 66.6952 36.3106
v  -98.2415 66.6952 -29.0919
v  -96.2415 66.6952 -29.0919
# 8 vertices

vn -0.7830 0.6220 0.0000
vn 0.0000 0.0000 1.0000
vn -0.0000 -1.0000 0.0000
vn -0.0000 0.0000 -1.0000
vn -1.0000 0.0000 0.0000
vn 1.0000 -0.0000 -0.0000
# 6 vertex normals

g Rectangle227
usemtl 墙e0
f 1//1 2//1 3//1 4//1 
f 2//2 5//2 6//2 3//2 
f 5//3 7//3 8//3 6//3 
f 7//4 1//4 4//4 8//4 
f 5//5 2//5 1//5 7//5 
f 6//6 8//6 4//6 3//6 
# 6 polygons

