# 3ds Max Wavefront OBJ Exporter v0.97b - (c)2007 guruware
# 创建的文件:19.05.2018 21:47:08

mtllib wq9.mtl

#
# object Line1789790240
#

v  124.7584 96.2141 -29.9818
v  124.7585 96.2141 79.3106
v  124.7585 102.0423 79.3106
v  124.7584 102.0423 -29.9818
v  85.7585 96.2141 79.3106
v  85.7585 102.0423 79.3106
v  85.7585 96.2141 29.3106
v  85.7585 102.0423 29.3106
v  -23.2413 96.2141 29.3106
v  -23.2413 102.0423 29.3106
v  -23.2417 96.2141 34.3106
v  -23.2417 102.0423 34.3106
v  -84.7170 96.2141 34.3106
v  -84.7170 102.0423 34.3106
v  -84.7170 96.2141 -29.9818
v  -84.7170 102.0423 -29.9818
v  -10.3894 96.2141 -29.9818
v  -10.3894 102.0423 -29.9818
v  -10.3894 96.2141 -31.9818
v  -10.3894 102.0423 -31.9818
v  -89.6595 96.2141 -31.9818
v  -84.8867 102.0423 -31.9818
v  -89.6595 96.2141 36.3106
v  -84.8867 102.0423 36.3106
v  -21.2415 96.2141 36.3106
v  -21.2415 102.0423 36.3106
v  -21.2415 96.2141 31.3106
v  -21.2415 102.0423 31.3106
v  83.7585 96.2141 31.3106
v  83.7585 102.0423 31.3106
v  83.7585 96.2141 81.3106
v  83.7585 102.0423 81.3106
v  126.7584 96.2141 81.3106
v  126.7584 102.0423 81.3106
v  126.7584 96.2141 -31.9818
v  126.7584 102.0423 -31.9818
v  81.7584 96.2141 -31.9818
v  81.7584 102.0423 -31.9818
v  81.7584 96.2141 -29.9818
v  81.7584 102.0423 -29.9818
# 40 vertices

vn -1.0000 0.0000 0.0000
vn 0.0000 0.0000 -1.0000
vn 1.0000 0.0000 -0.0000
vn -0.0000 0.0000 -1.0000
vn -1.0000 0.0000 -0.0001
vn 1.0000 0.0000 0.0000
vn -0.0000 0.0000 1.0000
vn -0.7737 0.6336 -0.0000
vn 0.0000 0.0000 1.0000
vn -1.0000 0.0000 -0.0000
vn -0.0000 -1.0000 0.0000
vn 0.0000 -1.0000 -0.0000
vn 0.0000 1.0000 -0.0000
# 13 vertex normals

g Line1789790240
usemtl 墙e0
f 1//1 2//1 3//1 4//1 
f 2//2 5//2 6//2 3//2 
f 5//3 7//3 8//3 6//3 
f 7//4 9//4 10//4 8//4 
f 9//5 11//5 12//5 10//5 
f 11//2 13//2 14//2 12//2 
f 13//6 15//6 16//6 14//6 
f 15//7 17//7 18//7 16//7 
f 17//3 19//3 20//3 18//3 
f 19//2 21//2 22//2 20//2 
f 21//8 23//8 24//8 22//8 
f 23//9 25//9 26//9 24//9 
f 25//3 27//3 28//3 26//3 
f 27//9 29//9 30//9 28//9 
f 29//10 31//10 32//10 30//10 
f 31//9 33//9 34//9 32//9 
f 33//3 35//3 36//3 34//3 
f 35//2 37//2 38//2 36//2 
f 37//10 39//10 40//10 38//10 
f 39//9 1//9 4//9 40//9 
f 15//11 21//11 19//12 17//12 
f 15//11 13//11 23//11 21//11 
f 13//11 11//12 25//11 23//11 
f 11//12 9//12 27//12 25//11 
f 7//12 29//12 27//12 9//12 
f 5//12 31//12 29//12 7//12 
f 5//12 2//12 33//12 31//12 
f 2//12 1//12 35//12 33//12 
f 1//12 39//12 37//12 35//12 
f 16//13 18//13 20//13 22//13 
f 16//13 22//13 24//13 14//13 
f 14//13 24//13 26//13 12//13 
f 12//13 26//13 28//13 10//13 
f 8//13 10//13 28//13 30//13 
f 6//13 8//13 30//13 32//13 
f 6//13 32//13 34//13 3//13 
f 3//13 34//13 36//13 4//13 
f 4//13 36//13 38//13 40//13 
# 38 polygons

