# 3ds Max Wavefront OBJ Exporter v0.97b - (c)2007 guruware
# 创建的文件:19.05.2018 22:05:09

mtllib wqz16.mtl

#
# object Line048
#

v  -34.7340 8.5476 -88.6895
v  -34.7340 18.2803 -88.6895
v  -34.7340 18.2803 -86.6895
v  -34.7340 8.5476 -86.6895
v  -21.7415 18.2803 -88.6895
v  -21.7415 18.2803 -86.6895
v  -21.7415 8.5507 -88.6895
v  -21.7415 8.5507 -86.6895
v  -12.3894 8.5507 -88.6895
v  -12.3894 8.5507 -86.6895
v  -12.3894 80.6775 -88.6894
v  -12.3894 80.6775 -86.6894
v  -44.2390 80.6775 -88.6894
v  -44.2390 80.6775 -86.6894
v  -44.2390 8.5476 -88.6895
v  -44.2390 8.5476 -86.6895
v  -20.6067 57.4807 -88.6894
v  -35.8886 57.4807 -88.6895
v  -35.8886 57.4807 -86.6895
v  -20.6067 57.4807 -86.6894
v  -35.8886 73.8834 -88.6894
v  -35.8886 73.8834 -86.6894
v  -20.6067 73.8834 -88.6894
v  -20.6067 73.8834 -86.6894
v  -20.6067 27.3474 -88.6895
v  -35.8886 27.3474 -88.6895
v  -35.8886 27.3474 -86.6895
v  -20.6067 27.3474 -86.6895
v  -35.8886 43.7501 -88.6895
v  -35.8886 43.7501 -86.6895
v  -20.6067 43.7501 -88.6895
v  -20.6067 43.7501 -86.6895
# 32 vertices

vn 1.0000 0.0000 -0.0000
vn 0.0000 -1.0000 -0.0000
vn -1.0000 0.0000 -0.0000
vn 0.0000 1.0000 0.0000
vn -0.0000 0.0000 -1.0000
vn 0.0000 0.0000 -1.0000
vn 0.0000 -0.0000 1.0000
vn -0.0000 -0.0000 1.0000
# 8 vertex normals

vt 4.7488 -1.6454 -1.9899
vt 4.7488 -1.1588 -1.9899
vt 4.6488 -1.1588 -1.9899
vt 4.6488 -1.6454 -1.9899
vt 2.9899 4.7488 -1.1588
vt 2.3403 4.7488 -1.1588
vt 2.3403 4.6488 -1.1588
vt 2.9899 4.6488 -1.1588
vt -3.7488 -1.1588 -1.3403
vt -3.7488 -1.6453 -1.3403
vt -3.6488 -1.6453 -1.3403
vt -3.6488 -1.1588 -1.3403
vt 2.3403 4.7488 -1.6453
vt 1.8727 4.7488 -1.6453
vt 1.8727 4.6488 -1.6453
vt 2.3403 4.6488 -1.6453
vt 4.7488 -1.6453 -0.8727
vt 4.7488 1.9611 -0.8727
vt 4.6488 1.9611 -0.8727
vt 4.6488 -1.6453 -0.8727
vt -0.8727 4.7488 1.9611
vt -2.4652 4.7488 1.9611
vt -2.4652 4.6488 1.9611
vt -0.8727 4.6488 1.9611
vt -3.7488 1.9611 -2.4652
vt -3.7488 -1.6454 -2.4652
vt -3.6488 -1.6454 -2.4652
vt -3.6488 1.9611 -2.4652
vt 3.4652 4.7488 -1.6454
vt 2.9899 4.7488 -1.6454
vt 2.9899 4.6488 -1.6454
vt 3.4652 4.6488 -1.6454
vt -1.2835 4.7488 0.8012
vt -2.0476 4.7488 0.8012
vt -2.0476 4.6488 0.8012
vt -1.2835 4.6488 0.8012
vt 4.7488 0.8012 -2.0476
vt 4.7488 1.6214 -2.0476
vt 4.6488 1.6214 -2.0476
vt 4.6488 0.8012 -2.0476
vt 3.0476 4.7488 1.6214
vt 2.2835 4.7488 1.6214
vt 2.2835 4.6488 1.6214
vt 3.0476 4.6488 1.6214
vt -3.7488 1.6214 -1.2835
vt -3.7488 0.8012 -1.2835
vt -3.6488 0.8012 -1.2835
vt -3.6488 1.6214 -1.2835
vt -1.2835 4.7488 -0.7054
vt -2.0476 4.7488 -0.7054
vt -2.0476 4.6488 -0.7054
vt -1.2835 4.6488 -0.7054
vt 4.7488 -0.7054 -2.0476
vt 4.7488 0.1147 -2.0476
vt 4.6488 0.1147 -2.0476
vt 4.6488 -0.7054 -2.0476
vt 3.0476 4.7488 0.1147
vt 2.2835 4.7488 0.1147
vt 2.2835 4.6488 0.1147
vt 3.0476 4.6488 0.1147
vt -3.7488 0.1147 -1.2835
vt -3.7488 -0.7054 -1.2835
vt -3.6488 -0.7054 -1.2835
vt -3.6488 0.1147 -1.2835
vt 3.0476 -0.7054 4.7488
vt 2.2835 -0.7054 4.7488
vt 2.9899 -1.1588 4.7488
vt 2.9899 -1.6454 4.7488
vt 2.2835 0.8012 4.7488
vt 2.2835 1.6214 4.7488
vt 1.8727 1.9611 4.7488
vt 1.8727 -1.6453 4.7488
vt 3.0476 1.6214 4.7488
vt 3.4652 1.9611 4.7488
vt 3.0476 0.8012 4.7488
vt 3.4652 -1.6454 4.7488
vt 2.3403 -1.1588 4.7488
vt 3.0476 0.1147 4.7488
vt 2.3403 -1.6453 4.7488
vt 2.2835 0.1147 4.7488
vt -2.0476 -0.7054 4.6488
vt -2.4652 -1.6454 4.6488
vt -1.9899 -1.6454 4.6488
vt -1.9899 -1.1588 4.6488
vt -1.2835 0.8012 4.6488
vt -1.2835 0.1147 4.6488
vt -0.8727 -1.6453 4.6488
vt -0.8727 1.9611 4.6488
vt -1.2835 1.6214 4.6488
vt -2.4652 1.9611 4.6488
vt -2.0476 1.6214 4.6488
vt -2.0476 0.8012 4.6488
vt -2.0476 0.1147 4.6488
vt -1.2835 -0.7054 4.6488
vt -1.3403 -1.1588 4.6488
vt -1.3403 -1.6453 4.6488
# 96 texture coords

g Line048
usemtl Material__2100436821
f 1/1/1 2/2/1 3/3/1 4/4/1 
f 2/5/2 5/6/2 6/7/2 3/8/2 
f 5/9/3 7/10/3 8/11/3 6/12/3 
f 7/13/2 9/14/2 10/15/2 8/16/2 
f 9/17/1 11/18/1 12/19/1 10/20/1 
f 11/21/4 13/22/4 14/23/4 12/24/4 
f 13/25/3 15/26/3 16/27/3 14/28/3 
f 15/29/2 1/30/2 4/31/2 16/32/2 
f 17/33/4 18/34/4 19/35/4 20/36/4 
f 18/37/1 21/38/1 22/39/1 19/40/1 
f 21/41/2 23/42/2 24/43/2 22/44/2 
f 23/45/3 17/46/3 20/47/3 24/48/3 
f 25/49/4 26/50/4 27/51/4 28/52/4 
f 26/53/1 29/54/1 30/55/1 27/56/1 
f 29/57/2 31/58/2 32/59/2 30/60/2 
f 31/61/3 25/62/3 28/63/3 32/64/3 
f 26/65/5 25/66/5 2/67/6 1/68/6 
f 17/69/6 23/70/6 11/71/6 9/72/6 
f 23/70/6 21/73/5 13/74/5 11/71/6 
f 21/73/5 18/75/5 15/76/5 13/74/5 
f 25/66/5 9/72/6 5/77/6 2/67/6 
f 15/76/5 29/78/5 26/65/5 1/68/6 
f 5/77/6 9/72/6 7/79/5 
f 18/75/5 17/69/6 29/78/5 15/76/5 
f 17/69/6 9/72/6 31/80/5 29/78/5 
f 25/66/5 31/80/5 9/72/6 
f 27/81/7 16/82/7 4/83/8 3/84/8 
f 20/85/8 32/86/7 10/87/8 12/88/8 
f 24/89/8 20/85/8 12/88/8 14/90/7 
f 22/91/7 24/89/8 14/90/7 16/82/7 
f 19/92/7 22/91/7 16/82/7 30/93/7 
f 28/94/7 27/81/7 3/84/8 6/95/8 
f 6/95/8 8/96/7 10/87/8 28/94/7 
f 16/82/7 27/81/7 30/93/7 
f 20/85/8 19/92/7 30/93/7 32/86/7 
f 28/94/7 10/87/8 32/86/7 
# 32 polygons - 4 triangles

