# 3ds Max Wavefront OBJ Exporter v0.97b - (c)2007 guruware
# 创建的文件:19.05.2018 23:51:19

mtllib zgd2.mtl

#
# object Line1789790253
#

v  -98.2416 39.1537 36.0400
v  -98.2416 39.1537 30.5686
v  -103.7129 39.1537 30.5686
v  -98.2415 39.1537 36.0400
v  -103.7129 39.1537 50.3119
v  -98.2415 39.1537 38.3106
v  -13.7702 39.1537 50.3119
v  -19.2416 39.1537 38.3106
v  -13.7702 39.1537 47.5019
v  -19.2416 39.1537 33.3106
v  48.3471 39.1537 47.5019
v  53.8185 39.1537 33.3106
v  48.3471 39.1537 66.9525
v  76.2871 39.1537 66.9525
v  81.7585 39.1537 33.3106
v  76.2871 39.1537 95.3084
v  81.7585 39.1537 83.3106
v  134.2298 39.1537 95.3084
v  128.7584 39.1537 83.3106
v  134.2298 39.1537 75.7905
v  128.7584 39.1537 81.2618
v  128.7584 39.1537 75.7905
v  -98.2416 38.5863 30.5686
v  -103.7129 38.5863 30.5686
v  -103.7129 38.5863 50.3119
v  -13.7702 38.5863 50.3119
v  -13.7702 38.5863 47.5019
v  48.3471 38.5863 47.5019
v  48.3471 38.5863 66.9525
v  76.2871 38.5863 66.9525
v  76.2871 38.5863 95.3084
v  134.2298 38.5863 95.3084
v  134.2298 38.5863 75.7905
v  128.7584 38.5863 75.7905
v  -98.2416 38.5863 31.0332
v  -103.2483 38.5863 31.0332
v  -103.2483 38.5863 49.8474
v  -14.2348 38.5863 49.8474
v  -14.2348 38.5863 47.0374
v  48.8117 38.5863 47.0374
v  48.8117 38.5863 66.4879
v  76.7517 38.5863 66.4879
v  76.7517 38.5863 94.8438
v  133.7652 38.5863 94.8438
v  133.7652 38.5863 76.2551
v  128.7584 38.5863 76.2551
v  -98.2416 38.3384 31.0332
v  -103.2483 38.3384 31.0332
v  -103.2483 38.3384 49.8474
v  -14.2348 38.3384 49.8474
v  -14.2348 38.3384 47.0374
v  48.8117 38.3384 47.0374
v  48.8117 38.3384 66.4879
v  76.7517 38.3384 66.4879
v  76.7517 38.3384 94.8438
v  133.7652 38.3384 94.8438
v  133.7652 38.3384 76.2551
v  128.7584 38.3384 76.2551
v  -98.2416 38.3384 31.4446
v  -102.8369 38.3384 31.4446
v  -102.8369 38.3384 49.4360
v  -14.6462 38.3384 49.4360
v  -14.6462 38.3384 46.6260
v  49.2231 38.3384 46.6260
v  49.2231 38.3384 66.0765
v  77.1631 38.3384 66.0765
v  77.1631 38.3384 94.4324
v  133.3538 38.3384 94.4324
v  133.3538 38.3384 76.6664
v  128.7584 38.3384 76.6664
v  -98.2416 38.0897 31.4446
v  -102.8369 38.0897 31.4446
v  -102.8369 38.0897 49.4360
v  -14.6462 38.0897 49.4360
v  -14.6462 38.0897 46.6260
v  49.2231 38.0897 46.6260
v  49.2231 38.0897 66.0765
v  77.1631 38.0897 66.0765
v  77.1631 38.0897 94.4324
v  133.3538 38.0897 94.4324
v  133.3538 38.0897 76.6664
v  128.7584 38.0897 76.6664
v  -98.2416 38.0897 31.6233
v  -102.6581 38.0897 31.6233
v  -102.6581 38.0897 49.2572
v  -14.8250 38.0897 49.2572
v  -14.8250 38.0897 46.4472
v  49.4018 38.0897 46.4472
v  49.4018 38.0897 65.8977
v  77.3419 38.0897 65.8977
v  77.3419 38.0897 94.2536
v  133.1750 38.0897 94.2536
v  133.1750 38.0897 76.8452
v  128.7584 38.0897 76.8452
v  -98.2416 37.5653 31.6233
v  -102.6581 37.5653 31.6233
v  -102.6581 37.5653 49.2572
v  -14.8250 37.5653 49.2572
v  -14.8250 37.5653 46.4472
v  49.4018 37.5653 46.4472
v  49.4018 37.5653 65.8977
v  77.3419 37.5653 65.8977
v  77.3419 37.5653 94.2536
v  133.1750 37.5653 94.2536
v  133.1750 37.5653 76.8452
v  128.7584 37.5653 76.8452
v  -98.2416 37.5653 31.8228
v  -102.4587 37.5653 31.8228
v  -102.4587 37.5653 49.0577
v  -15.0244 37.5653 49.0577
v  -15.0244 37.5653 46.2477
v  49.6013 37.5653 46.2477
v  49.6013 37.5653 65.6983
v  77.5413 37.5653 65.6983
v  77.5413 37.5653 94.0542
v  132.9756 37.5653 94.0542
v  132.9756 37.5653 77.0447
v  128.7584 37.5653 77.0447
v  -98.2416 37.2933 31.8228
v  -102.4587 37.2933 31.8228
v  -102.4587 37.2933 49.0577
v  -15.0244 37.2933 49.0577
v  -15.0244 37.2933 46.2477
v  49.6013 37.2933 46.2477
v  49.6013 37.2933 65.6983
v  77.5413 37.2933 65.6983
v  77.5413 37.2933 94.0542
v  132.9756 37.2933 94.0542
v  132.9756 37.2933 77.0447
v  128.7584 37.2933 77.0447
v  -98.2416 37.2933 36.0400
v  -98.2415 37.2933 36.0400
v  -98.2415 37.2933 38.3106
v  -19.2416 37.2933 38.3106
v  -19.2416 37.2933 33.3106
v  53.8185 37.2933 33.3106
v  81.7585 37.2933 33.3106
v  81.7585 37.2933 83.3106
v  128.7584 37.2933 83.3106
v  128.7584 37.2933 81.2618
# 140 vertices

vn 0.0000 -1.0000 -0.0000
vn 0.0000 1.0000 -0.0000
vn -0.7071 0.7071 -0.0000
vn 1.0000 0.0000 -0.0000
vn 0.0000 0.7071 0.7071
vn 0.0000 0.0000 -1.0000
vn -1.0000 0.0000 -0.0000
vn 0.0000 0.0000 1.0000
vn 0.0000 -0.9487 0.3162
vn 0.7071 -0.7071 -0.0000
vn 0.8944 0.4472 -0.0000
# 11 vertex normals

g Line1789790253
usemtl 现浇
f 1//1 2//2 3//3 4//2 
f 4//2 3//3 5//2 6//2 
f 6//2 5//2 7//2 8//2 
f 8//2 7//2 9//2 10//2 
f 10//2 9//2 11//2 12//2 
f 12//4 11//2 13//5 12//2 
f 12//2 13//5 14//2 15//2 
f 15//2 14//2 16//2 17//2 
f 17//2 16//2 18//2 19//2 
f 19//2 18//2 20//2 21//2 
f 21//1 20//2 22//2 21//1 
f 2//6 23//6 24//6 3//6 
f 3//3 24//7 25//7 5//7 
f 5//8 25//8 26//8 7//8 
f 7//4 26//4 27//4 9//4 
f 9//8 27//8 28//8 11//8 
f 11//7 28//7 29//7 13//7 
f 13//5 29//8 30//8 14//8 
f 14//7 30//7 31//7 16//7 
f 16//8 31//8 32//8 18//8 
f 18//4 32//4 33//4 20//4 
f 20//6 33//6 34//6 22//6 
f 23//1 35//1 36//1 24//1 
f 24//1 36//1 37//1 25//1 
f 25//1 37//1 38//1 26//1 
f 26//1 38//1 39//1 27//1 
f 27//1 39//1 40//1 28//1 
f 28//1 40//1 41//1 29//1 
f 29//1 41//1 42//1 30//1 
f 30//1 42//1 43//1 31//1 
f 31//1 43//1 44//1 32//1 
f 32//1 44//1 45//1 33//1 
f 33//1 45//1 46//1 34//1 
f 35//6 47//6 48//6 36//6 
f 36//7 48//7 49//7 37//7 
f 37//8 49//8 50//8 38//8 
f 38//4 50//4 51//4 39//4 
f 39//8 51//8 52//8 40//8 
f 40//7 52//7 53//7 41//7 
f 41//8 53//8 54//8 42//8 
f 42//7 54//7 55//7 43//7 
f 43//8 55//8 56//8 44//8 
f 44//4 56//4 57//4 45//4 
f 45//6 57//6 58//6 46//6 
f 47//1 59//1 60//1 48//1 
f 48//1 60//1 61//1 49//1 
f 49//1 61//1 62//1 50//1 
f 50//1 62//1 63//1 51//1 
f 51//1 63//1 64//1 52//1 
f 52//1 64//1 65//1 53//1 
f 53//1 65//1 66//1 54//1 
f 54//1 66//1 67//1 55//1 
f 55//1 67//1 68//1 56//1 
f 56//1 68//1 69//1 57//1 
f 57//1 69//1 70//1 58//1 
f 59//6 71//6 72//6 60//6 
f 60//7 72//7 73//7 61//7 
f 61//8 73//8 74//8 62//8 
f 62//4 74//4 75//4 63//4 
f 63//8 75//8 76//8 64//8 
f 64//7 76//7 77//7 65//7 
f 65//8 77//8 78//8 66//8 
f 66//7 78//7 79//7 67//7 
f 67//8 79//8 80//8 68//8 
f 68//4 80//4 81//4 69//4 
f 69//6 81//6 82//6 70//6 
f 71//1 83//1 84//1 72//1 
f 72//1 84//1 85//1 73//1 
f 73//1 85//1 86//1 74//1 
f 74//1 86//1 87//1 75//1 
f 75//1 87//1 88//1 76//1 
f 76//1 88//1 89//1 77//1 
f 77//1 89//1 90//1 78//1 
f 78//1 90//1 91//1 79//1 
f 79//1 91//1 92//1 80//1 
f 80//1 92//1 93//1 81//1 
f 81//1 93//1 94//1 82//1 
f 83//6 95//6 96//6 84//6 
f 84//7 96//7 97//7 85//7 
f 85//8 97//8 98//8 86//8 
f 86//4 98//4 99//4 87//4 
f 87//8 99//8 100//8 88//8 
f 88//7 100//7 101//7 89//7 
f 89//8 101//8 102//8 90//8 
f 90//7 102//7 103//7 91//7 
f 91//8 103//8 104//8 92//8 
f 92//4 104//4 105//4 93//4 
f 93//6 105//6 106//6 94//6 
f 95//1 107//1 108//1 96//1 
f 96//1 108//1 109//1 97//1 
f 97//1 109//1 110//1 98//1 
f 98//1 110//1 111//1 99//1 
f 99//1 111//1 112//1 100//1 
f 100//1 112//1 113//1 101//1 
f 101//1 113//1 114//1 102//1 
f 102//1 114//1 115//1 103//1 
f 103//1 115//1 116//1 104//1 
f 104//1 116//1 117//1 105//1 
f 105//1 117//1 118//1 106//1 
f 107//6 119//6 120//6 108//6 
f 108//7 120//7 121//7 109//7 
f 109//8 121//8 122//8 110//8 
f 110//4 122//4 123//4 111//4 
f 111//8 123//8 124//9 112//8 
f 112//7 124//7 125//7 113//7 
f 113//8 125//8 126//8 114//8 
f 114//7 126//7 127//7 115//7 
f 115//8 127//8 128//8 116//8 
f 116//4 128//4 129//10 117//4 
f 117//6 129//6 130//6 118//6 
f 119//1 131//2 132//11 120//1 
f 120//1 132//1 133//1 121//1 
f 121//1 133//1 134//1 122//1 
f 122//1 134//1 135//1 123//1 
f 123//1 135//1 136//1 124//9 
f 124//9 136//1 136//4 125//1 
f 125//1 136//1 137//1 126//1 
f 126//1 137//1 138//1 127//1 
f 127//1 138//1 139//1 128//1 
f 128//1 139//1 140//1 129//10 
f 129//10 140//1 140//2 130//1 
f 131//6 1//6 4//6 132//6 
f 132//11 4//4 6//4 133//4 
f 133//6 6//6 8//6 134//6 
f 134//7 8//7 10//7 135//7 
f 135//6 10//6 12//6 136//6 
f 136//1 12//4 12//2 136//4 
f 136//6 12//6 15//6 137//6 
f 137//4 15//4 17//4 138//4 
f 138//6 17//6 19//6 139//6 
f 139//7 19//7 21//7 140//7 
f 140//6 21//6 21//6 140//6 
# 132 polygons

