# 3ds Max Wavefront OBJ Exporter v0.97b - (c)2007 guruware
# 创建的文件:20.05.2018 07:56:27

mtllib zgd3hou.mtl

#
# object Line038
#

v  120.5555 68.6927 -69.7606
v  131.5237 68.6927 -80.7276
v  -14.2390 68.6927 -80.7276
v  -14.2390 68.6927 -69.7606
v  131.5237 67.4432 -80.7276
v  -14.2390 67.4432 -80.7276
v  130.8666 67.4432 -80.0706
v  -14.2390 67.4432 -80.0706
v  130.8666 66.0570 -80.0706
v  -14.2390 66.0570 -80.0706
v  130.2848 66.0570 -79.4888
v  -14.2390 66.0570 -79.4888
v  130.2848 65.5326 -79.4888
v  -14.2390 65.5326 -79.4888
v  130.0319 65.5326 -79.2360
v  -14.2390 65.5326 -79.2360
v  130.0319 65.0081 -79.2360
v  -14.2390 65.0081 -79.2360
v  129.7498 65.0081 -78.9539
v  -14.2390 65.0081 -78.9539
v  129.7498 64.4836 -78.9539
v  -14.2390 64.4836 -78.9539
v  120.5555 64.4836 -69.7606
v  -14.2390 64.4836 -69.7606
v  120.5555 68.6927 -30.2462
v  131.5225 68.6927 -30.2462
v  131.5225 68.6927 -80.7288
v  131.5225 67.4432 -30.2462
v  131.5225 67.4432 -80.7288
v  130.8655 67.4432 -30.2462
v  130.8655 67.4432 -80.0717
v  130.8655 66.0570 -30.2462
v  130.8655 66.0570 -80.0717
v  130.2837 66.0570 -30.2462
v  130.2837 66.0570 -79.4898
v  130.2837 65.5326 -30.2462
v  130.2837 65.5326 -79.4898
v  130.0308 65.5326 -30.2462
v  130.0309 65.5326 -79.2370
v  130.0308 65.0081 -30.2462
v  130.0309 65.0081 -79.2370
v  129.7488 65.0081 -30.2462
v  129.7488 65.0081 -78.9549
v  129.7488 64.4836 -30.2462
v  129.7488 64.4836 -78.9549
v  120.5555 64.4836 -30.2462
# 46 vertices

vn 0.0000 1.0000 -0.0000
vn 0.0000 0.0000 -1.0000
vn 0.0000 -1.0000 -0.0000
vn -0.0000 0.0000 -1.0000
vn 0.0000 -1.0000 0.0000
vn -0.7071 0.0000 0.7071
vn 0.0000 0.0000 1.0000
vn -1.0000 0.0000 -0.0000
vn 1.0000 0.0000 0.0000
vn -0.0000 -1.0000 -0.0000
vn -1.0000 -0.0000 -0.0000
# 11 vertex normals

g Line038
usemtl 现浇
f 1//1 2//1 3//1 4//1 
f 2//2 5//2 6//2 3//2 
f 5//3 7//3 8//3 6//3 
f 7//4 9//4 10//4 8//4 
f 9//5 11//5 12//5 10//3 
f 11//4 13//4 14//4 12//4 
f 13//3 15//3 16//3 14//3 
f 15//4 17//4 18//4 16//4 
f 17//3 19//3 20//3 18//3 
f 19//4 21//4 22//4 20//4 
f 22//3 21//3 23//3 24//3 
f 23//6 1//6 4//7 24//7 
f 3//8 6//8 8//8 24//8 
f 8//8 10//8 12//8 16//8 
f 12//8 14//8 16//8 
f 16//8 18//8 20//8 24//8 
f 20//8 22//8 24//8 
f 8//8 16//8 24//8 
f 3//8 24//8 4//8 
f 1//1 25//1 26//1 27//1 
f 27//9 26//9 28//9 29//9 
f 29//10 28//3 30//10 31//10 
f 31//9 30//9 32//9 33//9 
f 33//10 32//3 34//10 35//10 
f 35//9 34//9 36//9 37//9 
f 37//10 36//3 38//10 39//10 
f 39//9 38//9 40//9 41//9 
f 41//10 40//3 42//10 43//10 
f 43//9 42//9 44//9 45//9 
f 44//3 46//3 23//3 45//3 
f 23//6 46//8 25//11 1//6 
f 26//7 25//7 46//7 30//7 
f 46//7 44//7 42//7 38//7 
f 42//7 40//7 38//7 
f 38//7 36//7 34//7 30//7 
f 34//7 32//7 30//7 
f 46//7 38//7 30//7 
f 26//7 30//7 28//7 
# 30 polygons - 8 triangles

