# 3ds Max Wavefront OBJ Exporter v0.97b - (c)2007 guruware
# 创建的文件:20.05.2018 00:20:05

mtllib juanlianmen.mtl

#
# object Rectangle160
#

v  -96.2414 1.5000 -16.6895
v  -96.2414 1.5000 -77.8120
v  -98.2415 1.5000 -74.8876
v  -98.2415 1.5000 -19.6138
v  -96.2414 0.1000 -77.8120
v  -108.2415 0.1000 -77.8120
v  -96.2414 0.1000 -16.6895
v  -108.2415 0.1000 -16.6895
# 8 vertices

vn -0.0000 1.0000 0.0000
vn -0.0000 1.0000 -0.0000
vn -0.0621 0.5324 -0.8442
vn 0.0000 0.0000 -1.0000
vn -0.1040 0.8915 -0.4409
vn -0.1155 0.9902 -0.0790
vn 0.0000 -1.0000 0.0000
vn -0.5640 0.5253 0.6372
vn -0.8254 -0.0000 0.5645
vn -0.1604 0.8431 0.5133
vn -0.0000 0.9020 0.4318
vn 1.0000 0.0000 0.0000
vn -0.1386 0.9903 0.0000
vn -0.1386 0.9903 -0.0000
# 14 vertex normals

g Rectangle160
usemtl 台阶
f 1//1 2//2 3//2 4//1 
f 2//3 5//4 6//5 3//6 
f 5//7 7//7 8//7 6//7 
f 7//8 1//9 4//10 8//11 
f 5//12 2//12 1//12 7//12 
f 6//13 8//14 4//14 3//13 
# 6 polygons

#
# object Line003
#

v  -96.2415 0.0394 -41.6875
v  -96.2415 22.5394 -41.6875
v  -98.7415 22.5394 -41.6875
v  -98.7415 0.0394 -41.6875
v  -96.2415 22.5394 -22.6869
v  -98.7415 22.5394 -22.6869
v  -96.2415 0.0394 -22.6869
v  -98.7415 0.0394 -22.6869
v  -96.2415 0.0394 -21.6869
v  -98.7415 0.0394 -21.6869
v  -96.2415 23.5394 -21.6869
v  -98.7415 23.5394 -21.6869
v  -96.2415 23.5394 -42.6875
v  -98.7415 23.5394 -42.6875
v  -96.2415 0.0394 -42.6875
v  -98.7415 0.0394 -42.6875
# 16 vertices

vn -0.0000 0.0000 1.0000
vn 0.0000 -1.0000 0.0000
vn 0.0000 0.0000 -1.0000
vn -0.0000 1.0000 -0.0000
vn 1.0000 0.0000 0.0000
vn -1.0000 -0.0000 -0.0000
# 6 vertex normals

g Line003
usemtl 窗套001
f 9//15 10//15 11//15 12//15 
f 10//16 13//16 14//16 11//16 
f 13//17 15//17 16//17 14//17 
f 15//16 17//16 18//16 16//16 
f 17//15 19//15 20//15 18//15 
f 19//18 21//18 22//18 20//18 
f 21//17 23//17 24//17 22//17 
f 23//16 9//16 12//16 24//16 
f 21//19 10//19 9//19 23//19 
f 19//19 13//19 10//19 21//19 
f 17//19 15//19 13//19 19//19 
f 22//20 24//20 12//20 11//20 
f 20//20 22//20 11//20 14//20 
f 18//20 20//20 14//20 16//20 
# 14 polygons

#
# object Rectangle161
#

v  -96.8915 0.0394 -21.6900
v  -96.8915 0.0394 -72.6919
v  -96.8915 23.5394 -72.6919
v  -96.8915 23.5394 -21.6900
# 4 vertices

vn -1.0000 -0.0000 0.0000
# 1 vertex normals

vt 0.9250 -0.0752 0.5000
vt 0.0750 -0.0753 0.5000
vt 0.0750 0.9352 0.5000
vt 0.9250 0.9353 0.5000
# 4 texture coords

g Rectangle161
usemtl Material__2100436822
f 28/4/21 27/3/21 26/2/21 25/1/21 
# 1 polygons

#
# object Line037
#

v  -96.2415 0.0394 -71.6894
v  -96.2415 22.5394 -71.6894
v  -98.7415 22.5394 -71.6894
v  -98.7415 0.0394 -71.6894
v  -96.2415 22.5394 -52.6888
v  -98.7415 22.5394 -52.6888
v  -96.2415 0.0394 -52.6888
v  -98.7415 0.0394 -52.6888
v  -96.2415 0.0394 -51.6888
v  -98.7415 0.0394 -51.6888
v  -96.2415 23.5394 -51.6888
v  -98.7415 23.5394 -51.6888
v  -96.2415 23.5394 -72.6894
v  -98.7415 23.5394 -72.6894
v  -96.2415 0.0394 -72.6894
v  -98.7415 0.0394 -72.6894
# 16 vertices

vn -0.0000 0.0000 1.0000
vn 0.0000 -1.0000 0.0000
vn 0.0000 0.0000 -1.0000
vn -0.0000 1.0000 -0.0000
vn 1.0000 0.0000 0.0000
vn -1.0000 -0.0000 -0.0000
# 6 vertex normals

g Line037
usemtl 窗套001
f 29//22 30//22 31//22 32//22 
f 30//23 33//23 34//23 31//23 
f 33//24 35//24 36//24 34//24 
f 35//23 37//23 38//23 36//23 
f 37//22 39//22 40//22 38//22 
f 39//25 41//25 42//25 40//25 
f 41//24 43//24 44//24 42//24 
f 43//23 29//23 32//23 44//23 
f 41//26 30//26 29//26 43//26 
f 39//26 33//26 30//26 41//26 
f 37//26 35//26 33//26 39//26 
f 42//27 44//27 32//27 31//27 
f 40//27 42//27 31//27 34//27 
f 38//27 40//27 34//27 36//27 
# 14 polygons

