# 3ds Max Wavefront OBJ Exporter v0.97b - (c)2007 guruware
# ´´½¨µÄÎÄ¼þ:20.05.2018 07:55:01

mtllib menshang.mtl

#
# object Shape005
#

v  93.7584 25.5394 1.2618
v  84.7584 25.5394 1.2618
v  84.7584 37.0996 1.2618
v  93.7584 37.0996 1.2618
v  84.7584 25.5394 3.2618
v  84.7584 37.0996 3.2618
v  93.7584 25.5394 3.2618
v  93.7584 37.0996 3.2618
# 8 vertices

vn 0.0000 0.0000 -1.0000
vn -1.0000 0.0000 -0.0000
vn 0.0000 0.0000 1.0000
vn 1.0000 0.0000 -0.0000
vn 0.0000 -1.0000 -0.0000
vn 0.0000 1.0000 -0.0000
# 6 vertex normals

g Shape005
usemtl °×Ç½
f 1//1 2//1 3//1 4//1 
f 2//2 5//2 6//2 3//2 
f 5//3 7//3 8//3 6//3 
f 7//4 1//4 4//4 8//4 
f 5//5 2//5 1//5 7//5 
f 6//6 8//6 4//6 3//6 
# 6 polygons

#
# object Shape006
#

v  95.7598 25.5394 -14.8644
v  95.7598 25.5394 -6.8644
v  95.7598 37.0996 -6.8644
v  95.7598 37.0996 -14.8644
v  97.7598 25.5394 -6.8644
v  97.7598 37.0996 -6.8644
v  97.7598 25.5394 -14.8644
v  97.7598 37.0996 -14.8644
# 8 vertices

vn -1.0000 0.0000 0.0000
vn 0.0000 0.0000 1.0000
vn 1.0000 0.0000 -0.0000
vn -0.0000 0.0000 -1.0000
vn 0.0000 -1.0000 -0.0000
vn 0.0000 1.0000 -0.0000
# 6 vertex normals

g Shape006
usemtl °×Ç½
f 9//7 10//7 11//7 12//7 
f 10//8 13//8 14//8 11//8 
f 13//9 15//9 16//9 14//9 
f 15//10 9//10 12//10 16//10 
f 13//11 10//11 9//11 15//11 
f 14//12 16//12 12//12 11//12 
# 6 polygons

#
# object Shape007
#

v  81.7597 25.5394 -25.7388
v  81.7597 25.5394 -16.7388
v  81.7597 37.0996 -16.7388
v  81.7597 37.0996 -25.7388
v  83.7597 25.5394 -16.7388
v  83.7597 37.0996 -16.7388
v  83.7597 25.5394 -25.7388
v  83.7597 37.0996 -25.7388
# 8 vertices

vn -1.0000 0.0000 0.0000
vn 0.0000 0.0000 1.0000
vn 1.0000 0.0000 -0.0000
vn -0.0000 0.0000 -1.0000
vn 0.0000 -1.0000 -0.0000
vn 0.0000 1.0000 -0.0000
# 6 vertex normals

g Shape007
usemtl °×Ç½
f 17//13 18//13 19//13 20//13 
f 18//14 21//14 22//14 19//14 
f 21//15 23//15 24//15 22//15 
f 23//16 17//16 20//16 24//16 
f 21//17 18//17 17//17 23//17 
f 22//18 24//18 20//18 19//18 
# 6 polygons

#
# object Shape008
#

v  81.7597 25.5393 -25.7388
v  81.7597 25.5393 -34.9838
v  81.7597 37.0995 -34.9838
v  81.7597 37.0995 -25.7388
v  83.7597 25.5394 -34.9838
v  83.7596 37.0995 -34.9838
v  83.7597 25.5394 -25.7388
v  83.7596 37.0995 -25.7388
# 8 vertices

vn -1.0000 -0.0000 0.0000
vn -0.0000 0.0000 -1.0000
vn 1.0000 0.0000 -0.0000
vn 0.0000 0.0000 1.0000
vn 0.0000 -1.0000 -0.0000
vn -0.0000 1.0000 0.0000
# 6 vertex normals

g Shape008
usemtl °×Ç½
f 28//19 27//19 26//19 25//19 
f 27//20 30//20 29//20 26//20 
f 30//21 32//21 31//21 29//21 
f 32//22 28//22 25//22 31//22 
f 31//23 25//23 26//23 29//23 
f 27//24 28//24 32//24 30//24 
# 6 polygons

#
# object Rectangle294573184
#

v  -25.7416 24.4119 -36.7168
v  -35.7416 24.4119 -36.7168
v  -35.7416 24.4119 -36.6168
v  -25.7416 24.4119 -36.6168
v  -35.7416 4.5394 -36.7168
v  -35.7416 4.5394 -36.6168
v  -25.7416 4.5394 -36.7168
v  -25.7416 4.5394 -36.6168
# 8 vertices

vn 0.0000 1.0000 0.0000
vn -1.0000 0.0000 -0.0000
vn 0.0000 -1.0000 -0.0000
vn 1.0000 0.0000 -0.0000
vn 0.0000 0.0000 -1.0000
vn 0.0000 -0.0000 1.0000
# 6 vertex normals

vt 0.0000 0.0000 0.0000
vt 0.1674 0.0000 0.0000
vt 0.1674 1.0000 0.0000
vt 0.0000 1.0000 0.0000
vt 0.5000 0.0000 0.0000
vt 0.5000 1.0000 0.0000
vt 0.6674 0.0000 0.0000
vt 0.6674 1.0000 0.0000
vt 1.0000 0.0000 0.0000
vt 1.0000 1.0000 0.0000
# 10 texture coords

g Rectangle294573184
usemtl Material__2121234253
f 33/1/25 34/2/25 35/3/25 36/4/25 
f 34/2/26 37/5/26 38/6/26 35/3/26 
f 37/5/27 39/7/27 40/8/27 38/6/27 
f 39/7/28 33/9/28 36/10/28 40/8/28 
f 37/1/29 34/4/29 33/10/29 39/9/29 
f 38/1/30 40/9/30 36/10/30 35/4/30 
# 6 polygons

#
# object Shape009
#

v  94.7459 25.5394 -43.7369
v  85.7459 25.5394 -43.7369
v  85.7459 37.0996 -43.7369
v  94.7459 37.0996 -43.7369
v  85.7459 25.5394 -41.7369
v  85.7459 37.0996 -41.7369
v  94.7459 25.5394 -41.7369
v  94.7459 37.0996 -41.7369
# 8 vertices

vn 0.0000 0.0000 -1.0000
vn -1.0000 0.0000 -0.0000
vn 0.0000 0.0000 1.0000
vn 1.0000 0.0000 -0.0000
vn 0.0000 -1.0000 -0.0000
vn 0.0000 1.0000 -0.0000
# 6 vertex normals

g Shape009
usemtl °×Ç½
f 41//31 42//31 43//31 44//31 
f 42//32 45//32 46//32 43//32 
f 45//33 47//33 48//33 46//33 
f 47//34 41//34 44//34 48//34 
f 45//35 42//35 41//35 47//35 
f 46//36 48//36 44//36 43//36 
# 6 polygons

#
# object Shape010
#

v  -25.7416 24.4119 -37.7382
v  -35.7416 24.4119 -37.7382
v  -35.7416 37.0996 -37.7382
v  -25.7416 37.0996 -37.7382
v  -35.7416 24.4119 -35.7382
v  -35.7416 37.0996 -35.7382
v  -25.7416 24.4119 -35.7382
v  -25.7416 37.0996 -35.7382
# 8 vertices

vn 0.0000 0.0000 -1.0000
vn -1.0000 0.0000 -0.0000
vn 0.0000 0.0000 1.0000
vn 1.0000 0.0000 -0.0000
vn 0.0000 -1.0000 -0.0000
vn 0.0000 1.0000 -0.0000
# 6 vertex normals

g Shape010
usemtl °×Ç½
f 49//37 50//37 51//37 52//37 
f 50//38 53//38 54//38 51//38 
f 53//39 55//39 56//39 54//39 
f 55//40 49//40 52//40 56//40 
f 53//41 50//41 49//41 55//41 
f 54//42 56//42 52//42 51//42 
# 6 polygons

#
# object Shape011
#

v  -21.2415 25.5394 22.2619
v  -21.2415 25.5394 31.2619
v  -21.2415 37.0996 31.2619
v  -21.2415 37.0996 22.2619
v  -19.2415 25.5394 31.2619
v  -19.2415 37.0996 31.2619
v  -19.2415 25.5394 22.2619
v  -19.2415 37.0996 22.2619
# 8 vertices

vn -1.0000 0.0000 0.0000
vn 0.0000 0.0000 1.0000
vn 1.0000 0.0000 -0.0000
vn -0.0000 0.0000 -1.0000
vn 0.0000 -1.0000 -0.0000
vn 0.0000 1.0000 -0.0000
# 6 vertex normals

g Shape011
usemtl °×Ç½
f 57//43 58//43 59//43 60//43 
f 58//44 61//44 62//44 59//44 
f 61//45 63//45 64//45 62//45 
f 63//46 57//46 60//46 64//46 
f 61//47 58//47 57//47 63//47 
f 62//48 64//48 60//48 59//48 
# 6 polygons

#
# object Shape012
#

v  -56.2415 25.5394 26.9750
v  -56.2415 25.5394 35.9750
v  -56.2415 37.0996 35.9750
v  -56.2415 37.0996 26.9750
v  -54.2415 25.5394 35.9750
v  -54.2415 37.0996 35.9750
v  -54.2415 25.5394 26.9750
v  -54.2415 37.0996 26.9750
# 8 vertices

vn -1.0000 0.0000 0.0000
vn 0.0000 0.0000 1.0000
vn 1.0000 0.0000 -0.0000
vn -0.0000 0.0000 -1.0000
vn 0.0000 -1.0000 -0.0000
vn 0.0000 1.0000 -0.0000
# 6 vertex normals

g Shape012
usemtl °×Ç½
f 65//49 66//49 67//49 68//49 
f 66//50 69//50 70//50 67//50 
f 69//51 71//51 72//51 70//51 
f 71//52 65//52 68//52 72//52 
f 69//53 66//53 65//53 71//53 
f 70//54 72//54 68//54 67//54 
# 6 polygons

#
# object Shape013
#

v  -53.3790 25.5394 20.2574
v  -44.3790 25.5394 20.2574
v  -44.3790 37.0996 20.2574
v  -53.3790 37.0996 20.2574
v  -44.3790 25.5394 18.2574
v  -44.3790 37.0996 18.2574
v  -53.3790 25.5394 18.2574
v  -53.3790 37.0996 18.2574
# 8 vertices

vn 0.0000 0.0000 1.0000
vn 1.0000 0.0000 -0.0000
vn -0.0000 0.0000 -1.0000
vn -1.0000 0.0000 0.0000
vn 0.0000 -1.0000 -0.0000
vn 0.0000 1.0000 -0.0000
# 6 vertex normals

g Shape013
usemtl °×Ç½
f 73//55 74//55 75//55 76//55 
f 74//56 77//56 78//56 75//56 
f 77//57 79//57 80//57 78//57 
f 79//58 73//58 76//58 80//58 
f 77//59 74//59 73//59 79//59 
f 78//60 80//60 76//60 75//60 
# 6 polygons

#
# object Shape014
#

v  -56.2416 25.5394 -14.8050
v  -56.2416 25.5394 -6.8050
v  -56.2416 37.0996 -6.8050
v  -56.2416 37.0996 -14.8050
v  -54.2416 25.5394 -6.8050
v  -54.2416 37.0996 -6.8050
v  -54.2416 25.5394 -14.8050
v  -54.2416 37.0996 -14.8050
# 8 vertices

vn -1.0000 0.0000 0.0000
vn 0.0000 0.0000 1.0000
vn 1.0000 0.0000 -0.0000
vn -0.0000 0.0000 -1.0000
vn 0.0000 -1.0000 -0.0000
vn 0.0000 1.0000 -0.0000
# 6 vertex normals

g Shape014
usemtl °×Ç½
f 81//61 82//61 83//61 84//61 
f 82//62 85//62 86//62 83//62 
f 85//63 87//63 88//63 86//63 
f 87//64 81//64 84//64 88//64 
f 85//65 82//65 81//65 87//65 
f 86//66 88//66 84//66 83//66 
# 6 polygons

#
# object Shape015
#

v  -77.7041 25.5394 -3.7388
v  -85.7041 25.5394 -3.7388
v  -85.7041 37.0996 -3.7388
v  -77.7041 37.0996 -3.7388
v  -85.7041 25.5394 -1.7388
v  -85.7041 37.0996 -1.7388
v  -77.7041 25.5394 -1.7388
v  -77.7041 37.0996 -1.7388
# 8 vertices

vn -0.0000 0.0000 -1.0000
vn -1.0000 0.0000 0.0000
vn 0.0000 0.0000 1.0000
vn 1.0000 0.0000 -0.0000
vn 0.0000 -1.0000 -0.0000
vn 0.0000 1.0000 -0.0000
# 6 vertex normals

g Shape015
usemtl °×Ç½
f 89//67 90//67 91//67 92//67 
f 90//68 93//68 94//68 91//68 
f 93//69 95//69 96//69 94//69 
f 95//70 89//70 92//70 96//70 
f 93//71 90//71 89//71 95//71 
f 94//72 96//72 92//72 91//72 
# 6 polygons

#
# object Line1789790217
#

v  -66.1815 59.1096 -15.7382
v  -57.1815 59.1096 -15.7382
v  -57.1815 63.6774 -15.7382
v  -66.1815 63.6774 -15.7382
v  -57.1815 59.1096 -17.7382
v  -57.1815 63.6774 -17.7382
v  -66.1815 59.1096 -17.7382
v  -66.1815 63.6774 -17.7382
# 8 vertices

vn 0.0000 0.0000 1.0000
vn 1.0000 0.0000 -0.0000
vn 0.0000 0.0000 -1.0000
vn -1.0000 0.0000 -0.0000
vn 0.0000 -1.0000 -0.0000
vn 0.0000 1.0000 -0.0000
# 6 vertex normals

g Line1789790217
usemtl Ç½
f 97//73 98//73 99//73 100//73 
f 98//74 101//74 102//74 99//74 
f 101//75 103//75 104//75 102//75 
f 103//76 97//76 100//76 104//76 
f 101//77 98//77 97//77 103//77 
f 102//78 104//78 100//78 99//78 
# 6 polygons

#
# object Line1789790218
#

v  -44.3890 59.1096 -15.7382
v  -53.3890 59.1096 -15.7382
v  -53.3890 63.6774 -15.7382
v  -44.3890 63.6774 -15.7382
v  -53.3890 59.1096 -17.7382
v  -53.3890 63.6774 -17.7382
v  -44.3890 59.1096 -17.7382
v  -44.3890 63.6774 -17.7382
# 8 vertices

vn 0.0000 0.0000 1.0000
vn -1.0000 0.0000 -0.0000
vn 0.0000 -0.0000 -1.0000
vn 1.0000 0.0000 -0.0000
vn 0.0000 -1.0000 0.0000
vn 0.0000 1.0000 -0.0000
# 6 vertex normals

g Line1789790218
usemtl Ç½
f 108//79 107//79 106//79 105//79 
f 107//80 110//80 109//80 106//80 
f 110//81 112//81 111//81 109//81 
f 112//82 108//82 105//82 111//82 
f 111//83 105//83 106//83 109//83 
f 107//84 108//84 112//84 110//84 
# 6 polygons

#
# object Line1789790219
#

v  -67.2415 59.1096 -24.8078
v  -67.2415 59.1096 -33.8078
v  -67.2415 63.6774 -33.8078
v  -67.2415 63.6774 -24.8078
v  -69.2415 59.1096 -33.8078
v  -69.2415 63.6774 -33.8078
v  -69.2415 59.1096 -24.8078
v  -69.2415 63.6774 -24.8078
# 8 vertices

vn 1.0000 0.0000 -0.0000
vn -0.0000 0.0000 -1.0000
vn -1.0000 0.0000 0.0000
vn 0.0000 0.0000 1.0000
vn 0.0000 -1.0000 -0.0000
vn 0.0000 1.0000 -0.0000
# 6 vertex normals

g Line1789790219
usemtl Ç½
f 113//85 114//85 115//85 116//85 
f 114//86 117//86 118//86 115//86 
f 117//87 119//87 120//87 118//87 
f 119//88 113//88 116//88 120//88 
f 117//89 114//89 113//89 119//89 
f 118//90 120//90 116//90 115//90 
# 6 polygons

#
# object Line1789790220
#

v  -67.2376 59.1096 -46.7241
v  -67.2376 59.1096 -37.7241
v  -67.2376 63.6774 -37.7241
v  -67.2376 63.6774 -46.7241
v  -69.2376 59.1096 -37.7241
v  -69.2376 63.6774 -37.7241
v  -69.2376 59.1096 -46.7241
v  -69.2376 63.6774 -46.7241
# 8 vertices

vn 1.0000 0.0000 -0.0000
vn 0.0000 0.0000 1.0000
vn -1.0000 -0.0000 0.0000
vn -0.0000 0.0000 -1.0000
vn 0.0000 -1.0000 -0.0000
vn -0.0000 1.0000 0.0000
# 6 vertex normals

g Line1789790220
usemtl Ç½
f 124//91 123//91 122//91 121//91 
f 123//92 126//92 125//92 122//92 
f 126//93 128//93 127//93 125//93 
f 128//94 124//94 121//94 127//94 
f 127//95 121//95 122//95 125//95 
f 123//96 124//96 128//96 126//96 
# 6 polygons

#
# object Line1789790221
#

v  -54.2376 59.1096 -39.3607
v  -54.2376 59.1096 -48.3607
v  -54.2376 63.6774 -48.3607
v  -54.2376 63.6774 -39.3607
v  -56.2376 59.1096 -48.3607
v  -56.2376 63.6774 -48.3607
v  -56.2376 59.1096 -39.3607
v  -56.2376 63.6774 -39.3607
# 8 vertices

vn 1.0000 0.0000 -0.0000
vn -0.0000 0.0000 -1.0000
vn -1.0000 0.0000 0.0000
vn 0.0000 0.0000 1.0000
vn 0.0000 -1.0000 -0.0000
vn 0.0000 1.0000 -0.0000
# 6 vertex normals

g Line1789790221
usemtl Ç½
f 129//97 130//97 131//97 132//97 
f 130//98 133//98 134//98 131//98 
f 133//99 135//99 136//99 134//99 
f 135//100 129//100 132//100 136//100 
f 133//101 130//101 129//101 135//101 
f 134//102 136//102 132//102 131//102 
# 6 polygons

#
# object Line1789790222
#

v  -42.2455 59.1096 -5.7069
v  -42.2455 59.1096 -14.7069
v  -42.2455 63.6774 -14.7069
v  -42.2455 63.6774 -5.7069
v  -40.2455 59.1096 -14.7069
v  -40.2455 63.6774 -14.7069
v  -40.2455 59.1096 -5.7069
v  -40.2455 63.6774 -5.7069
# 8 vertices

vn -1.0000 0.0000 -0.0000
vn 0.0000 0.0000 -1.0000
vn 1.0000 -0.0000 0.0000
vn -0.0000 0.0000 1.0000
vn -0.0000 -1.0000 -0.0000
vn 0.0000 1.0000 0.0000
# 6 vertex normals

g Line1789790222
usemtl Ç½
f 140//103 139//103 138//103 137//103 
f 139//104 142//104 141//104 138//104 
f 142//105 144//105 143//105 141//105 
f 144//106 140//106 137//106 143//106 
f 143//107 137//107 138//107 141//107 
f 139//108 140//108 144//108 142//108 
# 6 polygons

#
# object Line1789790223
#

v  81.7585 59.1096 -25.2419
v  81.7585 59.1096 -16.2419
v  81.7585 63.6774 -16.2419
v  81.7585 63.6774 -25.2419
v  83.7585 59.1096 -16.2419
v  83.7585 63.6774 -16.2419
v  83.7585 59.1096 -25.2419
v  83.7585 63.6774 -25.2419
# 8 vertices

vn -1.0000 0.0000 -0.0000
vn -0.0000 0.0000 1.0000
vn 1.0000 0.0000 -0.0000
vn 0.0000 0.0000 -1.0000
vn 0.0000 -1.0000 -0.0000
vn 0.0000 1.0000 -0.0000
# 6 vertex normals

g Line1789790223
usemtl Ç½
f 145//109 146//109 147//109 148//109 
f 146//110 149//110 150//110 147//110 
f 149//111 151//111 152//111 150//111 
f 151//112 145//112 148//112 152//112 
f 149//113 146//113 145//113 151//113 
f 150//114 152//114 148//114 147//114 
# 6 polygons

#
# object Line1789790224
#

v  93.9185 59.1096 -38.7896
v  84.9185 59.1096 -38.7896
v  84.9185 63.6774 -38.7896
v  93.9185 63.6774 -38.7896
v  84.9185 59.1096 -36.7896
v  84.9185 63.6774 -36.7896
v  93.9185 59.1096 -36.7896
v  93.9185 63.6774 -36.7896
# 8 vertices

vn -0.0000 0.0000 -1.0000
vn -1.0000 0.0000 -0.0000
vn 0.0000 0.0000 1.0000
vn 1.0000 0.0000 0.0000
vn 0.0000 -1.0000 -0.0000
vn 0.0000 1.0000 -0.0000
# 6 vertex normals

g Line1789790224
usemtl Ç½
f 153//115 154//115 155//115 156//115 
f 154//116 157//116 158//116 155//116 
f 157//117 159//117 160//117 158//117 
f 159//118 153//118 156//118 160//118 
f 157//119 154//119 153//119 159//119 
f 158//120 160//120 156//120 155//120 
# 6 polygons

#
# object Line1789790225
#

v  97.7585 59.1096 -24.9857
v  97.7585 59.1096 -33.9857
v  97.7585 63.6774 -33.9857
v  97.7585 63.6774 -24.9857
v  95.7585 59.1096 -33.9857
v  95.7585 63.6774 -33.9857
v  95.7585 59.1096 -24.9857
v  95.7585 63.6774 -24.9857
# 8 vertices

vn 1.0000 0.0000 -0.0000
vn 0.0000 0.0000 -1.0000
vn -1.0000 0.0000 0.0000
vn 0.0000 0.0000 1.0000
vn 0.0000 -1.0000 -0.0000
vn 0.0000 1.0000 -0.0000
# 6 vertex normals

g Line1789790225
usemtl Ç½
f 161//121 162//121 163//121 164//121 
f 162//122 165//122 166//122 163//122 
f 165//123 167//123 168//123 166//123 
f 167//124 161//124 164//124 168//124 
f 165//125 162//125 161//125 167//125 
f 166//126 168//126 164//126 163//126 
# 6 polygons

#
# object Line1789790226
#

v  97.7585 59.1096 -2.4619
v  97.7585 59.1096 -11.4619
v  97.7585 63.6774 -11.4619
v  97.7585 63.6774 -2.4619
v  95.7585 59.1096 -11.4619
v  95.7585 63.6774 -11.4619
v  95.7585 59.1096 -2.4619
v  95.7585 63.6774 -2.4619
# 8 vertices

vn 1.0000 0.0000 -0.0000
vn 0.0000 0.0000 -1.0000
vn -1.0000 0.0000 0.0000
vn 0.0000 0.0000 1.0000
vn 0.0000 -1.0000 -0.0000
vn 0.0000 1.0000 -0.0000
# 6 vertex normals

g Line1789790226
usemtl Ç½
f 169//127 170//127 171//127 172//127 
f 170//128 173//128 174//128 171//128 
f 173//129 175//129 176//129 174//129 
f 175//130 169//130 172//130 176//130 
f 173//131 170//131 169//131 175//131 
f 174//132 176//132 172//132 171//132 
# 6 polygons

#
# object Line1789790227
#

v  93.7557 59.1096 1.2619
v  84.7557 59.1096 1.2619
v  84.7557 63.6774 1.2619
v  93.7557 63.6774 1.2619
v  84.7557 59.1096 3.2619
v  84.7557 63.6774 3.2619
v  93.7557 59.1096 3.2619
v  93.7557 63.6774 3.2619
# 8 vertices

vn -0.0000 0.0000 -1.0000
vn -1.0000 0.0000 -0.0000
vn 0.0000 0.0000 1.0000
vn 1.0000 0.0000 0.0000
vn 0.0000 -1.0000 -0.0000
vn 0.0000 1.0000 -0.0000
# 6 vertex normals

g Line1789790227
usemtl Ç½
f 177//133 178//133 179//133 180//133 
f 178//134 181//134 182//134 179//134 
f 181//135 183//135 184//135 182//135 
f 183//136 177//136 180//136 184//136 
f 181//137 178//137 177//137 183//137 
f 182//138 184//138 180//138 179//138 
# 6 polygons

#
# object Rectangle294573176
#

v  -25.7415 57.9722 -36.7382
v  -35.7415 57.9722 -36.7382
v  -35.7415 57.9722 -36.6382
v  -25.7415 57.9722 -36.6382
v  -35.7415 38.0996 -36.7382
v  -35.7415 38.0996 -36.6382
v  -25.7415 38.0996 -36.7382
v  -25.7415 38.0996 -36.6382
# 8 vertices

vn 0.0000 1.0000 0.0000
vn -1.0000 0.0000 -0.0000
vn 0.0000 -1.0000 -0.0000
vn 1.0000 0.0000 -0.0000
vn 0.0000 0.0000 -1.0000
vn 0.0000 -0.0000 1.0000
# 6 vertex normals

vt 0.0000 0.0000 0.0000
vt 0.1674 0.0000 0.0000
vt 0.1674 1.0000 0.0000
vt 0.0000 1.0000 0.0000
vt 0.5000 0.0000 0.0000
vt 0.5000 1.0000 0.0000
vt 0.6674 0.0000 0.0000
vt 0.6674 1.0000 0.0000
vt 1.0000 0.0000 0.0000
vt 1.0000 1.0000 0.0000
# 10 texture coords

g Rectangle294573176
usemtl Material__2121234253
f 185/11/139 186/12/139 187/13/139 188/14/139 
f 186/12/140 189/15/140 190/16/140 187/13/140 
f 189/15/141 191/17/141 192/18/141 190/16/141 
f 191/17/142 185/19/142 188/20/142 192/18/142 
f 189/11/143 186/14/143 185/20/143 191/19/143 
f 190/11/144 192/19/144 188/20/144 187/14/144 
# 6 polygons

#
# object Line1789790228
#

v  -25.7415 57.9721 -35.7382
v  -35.7415 57.9721 -35.7382
v  -35.7415 63.6774 -35.7382
v  -25.7415 63.6774 -35.7382
v  -35.7415 57.9721 -37.7382
v  -35.7415 63.6774 -37.7382
v  -25.7415 57.9721 -37.7382
v  -25.7415 63.6774 -37.7382
# 8 vertices

vn 0.0000 0.0000 1.0000
vn -1.0000 0.0000 -0.0000
vn 0.0000 -0.0000 -1.0000
vn 1.0000 0.0000 -0.0000
vn 0.0000 -1.0000 0.0000
vn 0.0000 1.0000 -0.0000
# 6 vertex normals

g Line1789790228
usemtl Ç½
f 196//145 195//145 194//145 193//145 
f 195//146 198//146 197//146 194//146 
f 198//147 200//147 199//147 197//147 
f 200//148 196//148 193//148 199//148 
f 199//149 193//149 194//149 197//149 
f 195//150 196//150 200//150 198//150 
# 6 polygons

