# 3ds Max Wavefront OBJ Exporter v0.97b - (c)2007 guruware
# 创建的文件:20.05.2018 07:58:47

mtllib shuichi.mtl

#
# object Line017
#

v  -21.2415 0.0000 38.3099
v  -21.2415 0.0000 44.8099
v  -21.2415 4.5000 44.8099
v  -21.2415 4.5000 38.3099
v  53.7585 0.0000 44.8099
v  53.7585 4.5000 44.8099
v  53.7585 0.0000 33.3105
v  53.7585 4.5000 33.3105
v  51.2560 0.0000 33.3105
v  51.2560 4.5000 33.3105
v  51.2560 0.0000 42.8099
v  51.2560 4.5000 42.8099
v  -19.2415 0.0000 42.8099
v  -19.2415 4.5000 42.8099
v  -19.2415 0.0000 38.3105
v  -19.2415 4.5000 38.3105
# 16 vertices

vn -1.0000 0.0000 -0.0000
vn 0.0000 0.0000 1.0000
vn 1.0000 0.0000 -0.0000
vn 0.0000 0.0000 -1.0000
vn 0.0003 0.0000 -1.0000
vn 0.0000 -1.0000 -0.0000
vn 0.0000 1.0000 -0.0000
# 7 vertex normals

g Line017
usemtl 雨棚
f 1//1 2//1 3//1 4//1 
f 2//2 5//2 6//2 3//2 
f 5//3 7//3 8//3 6//3 
f 7//4 9//4 10//4 8//4 
f 9//1 11//1 12//1 10//1 
f 11//4 13//4 14//4 12//4 
f 13//3 15//3 16//3 14//3 
f 15//5 1//5 4//5 16//5 
f 15//6 13//6 2//6 1//6 
f 13//6 11//6 5//6 2//6 
f 11//6 9//6 7//6 5//6 
f 16//7 4//7 3//7 14//7 
f 14//7 3//7 6//7 12//7 
f 12//7 6//7 8//7 10//7 
# 14 polygons

#
# object Rectangle153
#

v  -5.7290 2.0394 33.3105
v  -6.7290 2.0394 33.3105
v  -6.7290 4.5394 33.3105
v  -5.7290 4.5394 33.3105
v  -6.7290 2.0394 42.8105
v  -6.7290 4.5394 42.8105
v  -5.7290 2.0394 42.8105
v  -5.7290 4.5394 42.8105
v  6.0410 2.0394 33.3105
v  5.0410 2.0394 33.3105
v  5.0410 4.5394 33.3105
v  6.0410 4.5394 33.3105
v  5.0410 2.0394 42.8105
v  5.0410 4.5394 42.8105
v  6.0410 2.0394 42.8105
v  6.0410 4.5394 42.8105
v  17.3910 2.0394 33.3105
v  16.3910 2.0394 33.3105
v  16.3910 4.5394 33.3105
v  17.3910 4.5394 33.3105
v  16.3910 2.0394 42.8105
v  16.3910 4.5394 42.8105
v  17.3910 2.0394 42.8105
v  17.3910 4.5394 42.8105
v  29.0635 2.0394 33.3105
v  28.0635 2.0394 33.3105
v  28.0635 4.5394 33.3105
v  29.0635 4.5394 33.3105
v  28.0635 2.0394 42.8105
v  28.0635 4.5394 42.8105
v  29.0635 2.0394 42.8105
v  29.0635 4.5394 42.8105
v  42.8585 2.0394 33.3105
v  41.8585 2.0394 33.3105
v  41.8585 4.5394 33.3105
v  42.8585 4.5394 33.3105
v  41.8585 2.0394 42.8105
v  41.8585 4.5394 42.8105
v  42.8585 2.0394 42.8105
v  42.8585 4.5394 42.8105
v  -19.2415 2.0394 33.3105
v  -19.2415 2.0394 34.3105
v  -19.2415 4.5394 34.3105
v  -19.2415 4.5394 33.3105
v  50.7585 2.0394 34.3105
v  50.7585 4.5394 34.3105
v  50.7585 2.0394 33.3105
v  50.7585 4.5394 33.3105
# 48 vertices

vn 0.0000 0.0000 -1.0000
vn -1.0000 0.0000 -0.0000
vn 0.0000 0.0000 1.0000
vn 1.0000 0.0000 -0.0000
vn 0.0000 -1.0000 -0.0000
vn 0.0000 1.0000 -0.0000
# 6 vertex normals

g Rectangle153
usemtl 雨棚
f 17//8 18//8 19//8 20//8 
f 18//9 21//9 22//9 19//9 
f 21//10 23//10 24//10 22//10 
f 23//11 17//11 20//11 24//11 
f 25//8 26//8 27//8 28//8 
f 26//9 29//9 30//9 27//9 
f 29//10 31//10 32//10 30//10 
f 31//11 25//11 28//11 32//11 
f 33//8 34//8 35//8 36//8 
f 34//9 37//9 38//9 35//9 
f 37//10 39//10 40//10 38//10 
f 39//11 33//11 36//11 40//11 
f 41//8 42//8 43//8 44//8 
f 42//9 45//9 46//9 43//9 
f 45//10 47//10 48//10 46//10 
f 47//11 41//11 44//11 48//11 
f 49//8 50//8 51//8 52//8 
f 50//9 53//9 54//9 51//9 
f 53//10 55//10 56//10 54//10 
f 55//11 49//11 52//11 56//11 
f 57//9 58//9 59//9 60//9 
f 58//10 61//10 62//10 59//10 
f 61//11 63//11 64//11 62//11 
f 63//8 57//8 60//8 64//8 
f 21//12 18//12 17//12 23//12 
f 29//12 26//12 25//12 31//12 
f 37//12 34//12 33//12 39//12 
f 45//12 42//12 41//12 47//12 
f 53//12 50//12 49//12 55//12 
f 61//12 58//12 57//12 63//12 
f 22//13 24//13 20//13 19//13 
f 30//13 32//13 28//13 27//13 
f 38//13 40//13 36//13 35//13 
f 46//13 48//13 44//13 43//13 
f 54//13 56//13 52//13 51//13 
f 62//13 64//13 60//13 59//13 
# 36 polygons

#
# object Rectangle154
#

v  -19.2415 4.1061 42.8099
v  51.2560 4.1061 42.8099
v  51.2560 4.1061 33.3105
v  -19.2415 4.1061 33.3105
# 4 vertices

vn 0.0000 1.0000 -0.0000
# 1 vertex normals

vt 0.0005 0.0005 0.5000
vt 0.9995 0.0005 0.5000
vt 0.9995 0.9995 0.5000
vt 0.0005 0.9995 0.5000
# 4 texture coords

g Rectangle154
usemtl 玻璃
f 65/1/14 66/2/14 67/3/14 68/4/14 
# 1 polygons

#
# object Line1789790232
#

v  -12.7466 4.5394 31.3105
v  -6.2516 4.5394 31.3107
v  -5.2516 4.5394 32.3107
v  47.2535 4.5394 33.3107
v  -12.7466 -0.1079 31.3105
v  -6.2516 -0.1079 31.3107
v  -12.7466 -0.1079 33.3105
v  47.2535 -0.1079 33.3107
v  -5.2516 -0.1079 32.3107
v  -12.7466 4.5394 33.3105
v  -6.2515 4.5393 31.3106
v  -6.2515 -0.1080 31.3107
v  47.2535 -0.1080 31.3107
v  47.2535 4.5393 31.3107
# 14 vertices

vn 0.0000 -1.0000 0.0000
vn 0.0000 -0.0000 -1.0000
vn -0.0000 -1.0000 0.0000
vn -0.0000 0.0000 1.0000
vn -1.0000 -0.0000 -0.0000
vn 0.0000 1.0000 -0.0000
vn 0.0000 1.0000 -0.0001
vn -0.0789 -0.0000 -0.9969
vn 1.0000 0.0000 0.0000
vn -0.1393 -0.0000 -0.9903
vn -0.0000 -0.0951 0.9955
# 11 vertex normals

vt 3.1571 -2.9000 0.5203
vt 2.5076 -2.9000 0.5203
vt 2.4076 -3.0000 0.5203
vt -2.8429 -3.1000 0.5203
vt 3.1571 0.0556 -2.9000
vt 2.5076 0.0556 -2.9000
vt 2.5076 0.5203 -2.9000
vt 3.1571 -3.1000 0.0556
vt -2.8429 -3.1000 0.0556
vt 2.4076 -3.0000 0.0556
vt 2.5076 -2.9000 0.0556
vt -2.1571 0.5203 -3.1000
vt 3.8429 0.5203 -3.1000
vt 3.8429 0.0556 -3.1000
vt 3.9000 0.0556 -2.1571
vt 3.9000 0.5203 -2.1571
vt 4.1000 0.5203 -2.1571
vt 4.1000 0.0556 -2.1571
vt 3.8429 -3.1000 0.5203
vt -2.1571 -3.1000 0.5203
vt -2.1571 -2.9000 0.5203
vt 3.1571 0.5203 -2.9000
vt 3.1571 -2.9000 0.0556
vt -2.1571 0.0556 -3.1000
vt -1.5076 -2.9000 0.5203
vt -1.4076 -3.0000 0.5203
vt -2.8429 -2.9000 0.0556
vt -3.1000 0.5203 3.8429
vt -2.9000 0.5203 3.8429
vt -3.1000 0.0556 3.8429
vt -2.8429 0.5203 -2.9000
vt -2.8429 0.0556 -2.9000
vt 3.8429 -2.9000 0.5203
vt -1.5076 0.0556 -2.9000
vt 3.8429 0.0556 -2.9000
vt -2.9000 0.0556 3.8429
# 36 texture coords

g Line1789790232
usemtl Material__2100436820
f 72/8/15 71/7/15 70/6/15 69/5/15 
f 70/11/16 74/10/16 73/9/16 
f 74/15/17 77/14/17 76/13/17 75/12/17 
f 76/18/18 72/17/18 78/16/18 
f 75/22/19 78/21/19 69/20/19 73/19/19 
f 69/25/20 78/24/20 72/23/20 
f 73/9/16 69/26/16 70/11/16 
f 75/12/17 73/27/17 74/15/17 
f 78/16/18 75/28/18 76/18/18 
f 71/30/21 72/23/21 79/29/21 70/29/21 
f 70/11/22 80/10/22 74/10/22 
f 77/14/17 74/15/17 81/31/17 76/13/17 
f 76/34/23 82/33/23 72/32/23 
f 81/36/16 80/10/16 79/11/16 82/35/16 
f 79/29/20 72/23/20 82/37/20 
f 80/10/24 70/11/24 79/11/24 
f 81/39/25 74/38/25 80/38/25 
f 82/33/23 76/34/23 81/40/23 
# 6 polygons - 12 triangles

